<?xml version="1.0" encoding="us-ascii" standalone="no"?><svg xmlns="http://www.w3.org/2000/svg" xmlns:xlink="http://www.w3.org/1999/xlink" contentStyleType="text/css" height="637px" preserveAspectRatio="none" style="width:1260px;height:637px;background:#FFFFFF;" version="1.1" viewBox="0 0 1260 637" width="1260px" zoomAndPan="magnify"><defs/><g><text fill="#000000" font-family="sans-serif" font-size="14" font-weight="bold" lengthAdjust="spacing" textLength="373" x="442.75" y="27.9951">Sequence Diagram - Visitor Sort Posts by New</text><rect fill="#FFFFFF" height="418.7266" style="stroke:#181818;stroke-width:1.0;" width="10" x="33" y="128.5938"/><rect fill="#FFFFFF" height="388.5938" style="stroke:#181818;stroke-width:1.0;" width="10" x="232" y="149.7266"/><rect fill="#FFFFFF" height="330.3281" style="stroke:#181818;stroke-width:1.0;" width="10" x="491" y="178.8594"/><rect fill="#FFFFFF" height="264.0625" style="stroke:#181818;stroke-width:1.0;" width="10" x="496" y="215.9922"/><rect fill="#FFFFFF" height="229.9297" style="stroke:#181818;stroke-width:1.0;" width="10" x="787.5" y="250.125"/><rect fill="#FFFFFF" height="171.6641" style="stroke:#181818;stroke-width:1.0;" width="10" x="995.5" y="279.2578"/><rect fill="#FFFFFF" height="40.1328" style="stroke:#181818;stroke-width:1.0;" width="10" x="1000.5" y="374.6563"/><rect fill="#FFFFFF" height="29.1328" style="stroke:#181818;stroke-width:1.0;" width="10" x="1207.5" y="308.3906"/><line style="stroke:#181818;stroke-width:0.5;stroke-dasharray:5.0,5.0;" x1="38" x2="38" y1="118.5938" y2="556.3203"/><line style="stroke:#181818;stroke-width:0.5;stroke-dasharray:5.0,5.0;" x1="236.5" x2="236.5" y1="118.5938" y2="556.3203"/><line style="stroke:#181818;stroke-width:0.5;stroke-dasharray:5.0,5.0;" x1="495.5" x2="495.5" y1="118.5938" y2="556.3203"/><line style="stroke:#181818;stroke-width:0.5;stroke-dasharray:5.0,5.0;" x1="792.5" x2="792.5" y1="118.5938" y2="556.3203"/><line style="stroke:#181818;stroke-width:0.5;stroke-dasharray:5.0,5.0;" x1="1000.5" x2="1000.5" y1="118.5938" y2="556.3203"/><line style="stroke:#181818;stroke-width:0.5;stroke-dasharray:5.0,5.0;" x1="1212.5" x2="1212.5" y1="118.5938" y2="556.3203"/><text fill="#000000" font-family="sans-serif" font-size="14" lengthAdjust="spacing" textLength="60" x="5" y="115.292">Member</text><ellipse cx="38" cy="50.7969" fill="#E3E3E3" rx="8" ry="8" style="stroke:#181818;stroke-width:0.5;"/><path d="M38,58.7969 L38,85.7969 M25,66.7969 L51,66.7969 M38,85.7969 L25,100.7969 M38,85.7969 L51,100.7969 " fill="none" style="stroke:#181818;stroke-width:0.5;"/><text fill="#000000" font-family="sans-serif" font-size="14" lengthAdjust="spacing" textLength="60" x="5" y="568.3154">Member</text><ellipse cx="38" cy="580.1172" fill="#E3E3E3" rx="8" ry="8" style="stroke:#181818;stroke-width:0.5;"/><path d="M38,588.1172 L38,615.1172 M25,596.1172 L51,596.1172 M38,615.1172 L25,630.1172 M38,615.1172 L51,630.1172 " fill="none" style="stroke:#181818;stroke-width:0.5;"/><rect fill="#E3E3E3" height="30.2969" rx="2.5" ry="2.5" style="stroke:#181818;stroke-width:0.5;" width="113" x="180.5" y="87.2969"/><text fill="#000000" font-family="sans-serif" font-size="14" lengthAdjust="spacing" textLength="99" x="187.5" y="107.292">routes:recent</text><rect fill="#E3E3E3" height="30.2969" rx="2.5" ry="2.5" style="stroke:#181818;stroke-width:0.5;" width="113" x="180.5" y="555.3203"/><text fill="#000000" font-family="sans-serif" font-size="14" lengthAdjust="spacing" textLength="99" x="187.5" y="575.3154">routes:recent</text><rect fill="#E3E3E3" height="30.2969" rx="2.5" ry="2.5" style="stroke:#181818;stroke-width:0.5;" width="385" x="303.5" y="87.2969"/><text fill="#000000" font-family="sans-serif" font-size="14" lengthAdjust="spacing" textLength="371" x="310.5" y="107.292">getRecentPostController:GetRecentPostController</text><rect fill="#E3E3E3" height="30.2969" rx="2.5" ry="2.5" style="stroke:#181818;stroke-width:0.5;" width="385" x="303.5" y="555.3203"/><text fill="#000000" font-family="sans-serif" font-size="14" lengthAdjust="spacing" textLength="371" x="310.5" y="575.3154">getRecentPostController:GetRecentPostController</text><rect fill="#E3E3E3" height="30.2969" rx="2.5" ry="2.5" style="stroke:#181818;stroke-width:0.5;" width="188" x="698.5" y="87.2969"/><text fill="#000000" font-family="sans-serif" font-size="14" lengthAdjust="spacing" textLength="174" x="705.5" y="107.292">useCase:GetRecentPost</text><rect fill="#E3E3E3" height="30.2969" rx="2.5" ry="2.5" style="stroke:#181818;stroke-width:0.5;" width="188" x="698.5" y="555.3203"/><text fill="#000000" font-family="sans-serif" font-size="14" lengthAdjust="spacing" textLength="174" x="705.5" y="575.3154">useCase:GetRecentPost</text><rect fill="#E3E3E3" height="30.2969" rx="2.5" ry="2.5" style="stroke:#181818;stroke-width:0.5;" width="208" x="896.5" y="87.2969"/><text fill="#000000" font-family="sans-serif" font-size="14" lengthAdjust="spacing" textLength="194" x="903.5" y="107.292">postRepo:GetRecentPosts</text><rect fill="#E3E3E3" height="30.2969" rx="2.5" ry="2.5" style="stroke:#181818;stroke-width:0.5;" width="208" x="896.5" y="555.3203"/><text fill="#000000" font-family="sans-serif" font-size="14" lengthAdjust="spacing" textLength="194" x="903.5" y="575.3154">postRepo:GetRecentPosts</text><rect fill="#E3E3E3" height="30.2969" rx="2.5" ry="2.5" style="stroke:#181818;stroke-width:0.5;" width="84" x="1170.5" y="87.2969"/><text fill="#000000" font-family="sans-serif" font-size="14" lengthAdjust="spacing" textLength="70" x="1177.5" y="107.292">PostRepo</text><rect fill="#E3E3E3" height="30.2969" rx="2.5" ry="2.5" style="stroke:#181818;stroke-width:0.5;" width="84" x="1170.5" y="555.3203"/><text fill="#000000" font-family="sans-serif" font-size="14" lengthAdjust="spacing" textLength="70" x="1177.5" y="575.3154">PostRepo</text><rect fill="#FFFFFF" height="418.7266" style="stroke:#181818;stroke-width:1.0;" width="10" x="33" y="128.5938"/><rect fill="#FFFFFF" height="388.5938" style="stroke:#181818;stroke-width:1.0;" width="10" x="232" y="149.7266"/><rect fill="#FFFFFF" height="330.3281" style="stroke:#181818;stroke-width:1.0;" width="10" x="491" y="178.8594"/><rect fill="#FFFFFF" height="264.0625" style="stroke:#181818;stroke-width:1.0;" width="10" x="496" y="215.9922"/><rect fill="#FFFFFF" height="229.9297" style="stroke:#181818;stroke-width:1.0;" width="10" x="787.5" y="250.125"/><rect fill="#FFFFFF" height="171.6641" style="stroke:#181818;stroke-width:1.0;" width="10" x="995.5" y="279.2578"/><rect fill="#FFFFFF" height="40.1328" style="stroke:#181818;stroke-width:1.0;" width="10" x="1000.5" y="374.6563"/><rect fill="#FFFFFF" height="29.1328" style="stroke:#181818;stroke-width:1.0;" width="10" x="1207.5" y="308.3906"/><polygon fill="#181818" points="220,145.7266,230,149.7266,220,153.7266,224,149.7266" style="stroke:#181818;stroke-width:1.0;"/><line style="stroke:#181818;stroke-width:1.0;" x1="43" x2="226" y1="149.7266" y2="149.7266"/><text fill="#000000" font-family="sans-serif" font-size="13" font-weight="bold" lengthAdjust="spacing" textLength="9" x="50" y="144.6606">1</text><text fill="#000000" font-family="sans-serif" font-size="13" lengthAdjust="spacing" textLength="114" x="63" y="144.6606">GET /posts/recent</text><polygon fill="#181818" points="479,174.8594,489,178.8594,479,182.8594,483,178.8594" style="stroke:#181818;stroke-width:1.0;"/><line style="stroke:#181818;stroke-width:1.0;" x1="242" x2="485" y1="178.8594" y2="178.8594"/><text fill="#000000" font-family="sans-serif" font-size="13" font-weight="bold" lengthAdjust="spacing" textLength="9" x="249" y="173.7935">2</text><text fill="#000000" font-family="sans-serif" font-size="13" lengthAdjust="spacing" textLength="116" x="262" y="173.7935">execute(req, res);</text><line style="stroke:#181818;stroke-width:1.0;" x1="501" x2="548" y1="202.9922" y2="202.9922"/><line style="stroke:#181818;stroke-width:1.0;" x1="548" x2="548" y1="202.9922" y2="215.9922"/><line style="stroke:#181818;stroke-width:1.0;" x1="507" x2="548" y1="215.9922" y2="215.9922"/><line style="stroke:#181818;stroke-width:1.0;" x1="507" x2="517" y1="215.9922" y2="211.9922"/><line style="stroke:#181818;stroke-width:1.0;" x1="507" x2="517" y1="215.9922" y2="219.9922"/><text fill="#000000" font-family="sans-serif" font-size="13" font-weight="bold" lengthAdjust="spacing" textLength="8" x="513" y="197.9263">3</text><text fill="#000000" font-family="sans-serif" font-size="13" lengthAdjust="spacing" textLength="135" x="525" y="197.9263">executeImp(req, res)</text><polygon fill="#181818" points="775.5,246.125,785.5,250.125,775.5,254.125,779.5,250.125" style="stroke:#181818;stroke-width:1.0;"/><line style="stroke:#181818;stroke-width:1.0;" x1="506" x2="781.5" y1="250.125" y2="250.125"/><text fill="#000000" font-family="sans-serif" font-size="13" font-weight="bold" lengthAdjust="spacing" textLength="9" x="513" y="245.0591">4</text><text fill="#000000" font-family="sans-serif" font-size="13" lengthAdjust="spacing" textLength="83" x="526" y="245.0591">execute(dto)</text><polygon fill="#181818" points="983.5,275.2578,993.5,279.2578,983.5,283.2578,987.5,279.2578" style="stroke:#181818;stroke-width:1.0;"/><line style="stroke:#181818;stroke-width:1.0;" x1="797.5" x2="989.5" y1="279.2578" y2="279.2578"/><text fill="#000000" font-family="sans-serif" font-size="13" font-weight="bold" lengthAdjust="spacing" textLength="9" x="804.5" y="274.1919">5</text><text fill="#000000" font-family="sans-serif" font-size="13" lengthAdjust="spacing" textLength="137" x="817.5" y="274.1919">getRecentPosts(dto);</text><polygon fill="#181818" points="1195.5,304.3906,1205.5,308.3906,1195.5,312.3906,1199.5,308.3906" style="stroke:#181818;stroke-width:1.0;"/><line style="stroke:#181818;stroke-width:1.0;" x1="1005.5" x2="1201.5" y1="308.3906" y2="308.3906"/><text fill="#000000" font-family="sans-serif" font-size="13" font-weight="bold" lengthAdjust="spacing" textLength="9" x="1012.5" y="303.3247">6</text><text fill="#000000" font-family="sans-serif" font-size="13" lengthAdjust="spacing" textLength="170" x="1025.5" y="303.3247">createBaseDetailsQuery();</text><polygon fill="#181818" points="1016.5,333.5234,1006.5,337.5234,1016.5,341.5234,1012.5,337.5234" style="stroke:#181818;stroke-width:1.0;"/><line style="stroke:#181818;stroke-width:1.0;stroke-dasharray:2.0,2.0;" x1="1010.5" x2="1211.5" y1="337.5234" y2="337.5234"/><text fill="#000000" font-family="sans-serif" font-size="13" font-weight="bold" lengthAdjust="spacing" textLength="9" x="1022.5" y="332.4575">7</text><text fill="#000000" font-family="sans-serif" font-size="13" lengthAdjust="spacing" textLength="128" x="1035.5" y="332.4575">Query structure obj.</text><line style="stroke:#181818;stroke-width:1.0;" x1="1005.5" x2="1052.5" y1="361.6563" y2="361.6563"/><line style="stroke:#181818;stroke-width:1.0;" x1="1052.5" x2="1052.5" y1="361.6563" y2="374.6563"/><line style="stroke:#181818;stroke-width:1.0;" x1="1011.5" x2="1052.5" y1="374.6563" y2="374.6563"/><line style="stroke:#181818;stroke-width:1.0;" x1="1011.5" x2="1021.5" y1="374.6563" y2="370.6563"/><line style="stroke:#181818;stroke-width:1.0;" x1="1011.5" x2="1021.5" y1="374.6563" y2="378.6563"/><text fill="#000000" font-family="sans-serif" font-size="13" font-weight="bold" lengthAdjust="spacing" textLength="9" x="1017.5" y="356.5903">8</text><text fill="#000000" font-family="sans-serif" font-size="13" lengthAdjust="spacing" textLength="118" x="1030.5" y="356.5903">PostModel.findAll()</text><line style="stroke:#181818;stroke-width:1.0;stroke-dasharray:2.0,2.0;" x1="1010.5" x2="1052.5" y1="413.7891" y2="413.7891"/><line style="stroke:#181818;stroke-width:1.0;stroke-dasharray:2.0,2.0;" x1="1052.5" x2="1052.5" y1="413.7891" y2="426.7891"/><line style="stroke:#181818;stroke-width:1.0;stroke-dasharray:2.0,2.0;" x1="1005.5" x2="1052.5" y1="426.7891" y2="426.7891"/><line style="stroke:#181818;stroke-width:1.0;" x1="1005.5" x2="1015.5" y1="426.7891" y2="422.7891"/><line style="stroke:#181818;stroke-width:1.0;" x1="1005.5" x2="1015.5" y1="426.7891" y2="430.7891"/><text fill="#000000" font-family="sans-serif" font-size="13" font-weight="bold" lengthAdjust="spacing" textLength="9" x="1017.5" y="408.7231">9</text><text fill="#000000" font-family="sans-serif" font-size="13" lengthAdjust="spacing" textLength="78" x="1030.5" y="408.7231">posts.map()</text><polygon fill="#181818" points="808.5,446.9219,798.5,450.9219,808.5,454.9219,804.5,450.9219" style="stroke:#181818;stroke-width:1.0;"/><line style="stroke:#181818;stroke-width:1.0;stroke-dasharray:2.0,2.0;" x1="802.5" x2="999.5" y1="450.9219" y2="450.9219"/><text fill="#000000" font-family="sans-serif" font-size="13" font-weight="bold" lengthAdjust="spacing" textLength="19" x="814.5" y="445.856">10</text><text fill="#000000" font-family="sans-serif" font-size="13" lengthAdjust="spacing" textLength="87" x="837.5" y="445.856">PostDetails[];</text><polygon fill="#181818" points="512,476.0547,502,480.0547,512,484.0547,508,480.0547" style="stroke:#181818;stroke-width:1.0;"/><line style="stroke:#181818;stroke-width:1.0;stroke-dasharray:2.0,2.0;" x1="506" x2="791.5" y1="480.0547" y2="480.0547"/><text fill="#000000" font-family="sans-serif" font-size="13" font-weight="bold" lengthAdjust="spacing" textLength="18" x="518" y="474.9888">11</text><text fill="#000000" font-family="sans-serif" font-size="13" lengthAdjust="spacing" textLength="65" x="540" y="474.9888">ok(posts);</text><polygon fill="#181818" points="253,505.1875,243,509.1875,253,513.1875,249,509.1875" style="stroke:#181818;stroke-width:1.0;"/><line style="stroke:#181818;stroke-width:1.0;stroke-dasharray:2.0,2.0;" x1="247" x2="495" y1="509.1875" y2="509.1875"/><text fill="#000000" font-family="sans-serif" font-size="13" font-weight="bold" lengthAdjust="spacing" textLength="18" x="259" y="504.1216">12</text><text fill="#000000" font-family="sans-serif" font-size="13" lengthAdjust="spacing" textLength="95" x="281" y="504.1216">RecentPosts[];</text><polygon fill="#181818" points="54,534.3203,44,538.3203,54,542.3203,50,538.3203" style="stroke:#181818;stroke-width:1.0;"/><line style="stroke:#181818;stroke-width:1.0;stroke-dasharray:2.0,2.0;" x1="48" x2="236" y1="538.3203" y2="538.3203"/><text fill="#000000" font-family="sans-serif" font-size="13" font-weight="bold" lengthAdjust="spacing" textLength="17" x="60" y="533.2544">13</text><text fill="#000000" font-family="sans-serif" font-size="13" lengthAdjust="spacing" textLength="144" x="81" y="533.2544">[200 OK] Recent Posts</text><!--SRC=[bPHDRzim38Rl-XL4JYcmfiMEBZ1WROTY6BfboR1BqODYiwuMMN95Ubt-_IJvInxYhZrP5j_teKXQfhqojNIoWieQcpywMo6mQr3G4AbblfSbRlcW4HpcB4sfKm4zoi8-ArF2WzI4GZPiJLFjq0d1YhrhYqyDcXpXMiaoM4xXfoB5ri7MEeQr9IRO7U0hFWiXP1uYYriCZ0L8WdOfV3vMkQgbOLWusp1Iva-4XgDg4tUcgX9v4nKXnvKrxApMwBARu_kHCnERWXl2Aqau1KLx5vdAQn_TO6sdUeg6FZPrhBlTAEbVskwetvAnRqhxWDCFNVqPt7pw0MS1IcTjTqPFroBHFeDffjWCy0_cNhHq-FJEpvrEBaRCN8V4JC0d-d-cprKz9dj5hXUIzJCOgoZO9in-HA9R1Cim8PXyCnIjIUt3j4I_2kxruCuTUjcbfruZIwNfUuFki4mHupJN0s9o0eWU87yLSsuSWjtzMea2Zn3IKoI88BYr1UhLWpB5HwsN9qTASEZf9hxJgfAr5oMyj8-1rzLpTt-H7cNinzZDbxuhkr_6VBuXAMOOIRBtziyikGN92FyvyIoslnMUqjwg3ExUdv_3jo_t7QxzLQMmrlCN]--></g></svg>