<?xml version="1.0" encoding="us-ascii" standalone="no"?><svg xmlns="http://www.w3.org/2000/svg" xmlns:xlink="http://www.w3.org/1999/xlink" contentStyleType="text/css" height="394px" preserveAspectRatio="none" style="width:628px;height:394px;background:#FFFFFF;" version="1.1" viewBox="0 0 628 394" width="628px" zoomAndPan="magnify"><defs/><g><text fill="#000000" font-family="sans-serif" font-size="14" font-weight="bold" lengthAdjust="spacing" textLength="600" x="10" y="27.9951">System Sequence Diagram (SSD) - Alternative Two - Login through tooltip</text><rect fill="#FFFFFF" height="166.7969" style="stroke:#181818;stroke-width:1.0;" width="10" x="121.5" y="128.5938"/><rect fill="#FFFFFF" height="29.1328" style="stroke:#181818;stroke-width:1.0;" width="10" x="488.5" y="149.7266"/><rect fill="#FFFFFF" height="29.1328" style="stroke:#181818;stroke-width:1.0;" width="10" x="488.5" y="207.9922"/><rect fill="#FFFFFF" height="29.1328" style="stroke:#181818;stroke-width:1.0;" width="10" x="488.5" y="266.2578"/><line style="stroke:#181818;stroke-width:0.5;stroke-dasharray:5.0,5.0;" x1="126.5" x2="126.5" y1="118.5938" y2="313.3906"/><line style="stroke:#181818;stroke-width:0.5;stroke-dasharray:5.0,5.0;" x1="493.5" x2="493.5" y1="118.5938" y2="313.3906"/><text fill="#000000" font-family="sans-serif" font-size="14" lengthAdjust="spacing" textLength="60" x="93.5" y="115.292">Member</text><ellipse cx="126.5" cy="50.7969" fill="#E3E3E3" rx="8" ry="8" style="stroke:#181818;stroke-width:0.5;"/><path d="M126.5,58.7969 L126.5,85.7969 M113.5,66.7969 L139.5,66.7969 M126.5,85.7969 L113.5,100.7969 M126.5,85.7969 L139.5,100.7969 " fill="none" style="stroke:#181818;stroke-width:0.5;"/><text fill="#000000" font-family="sans-serif" font-size="14" lengthAdjust="spacing" textLength="60" x="93.5" y="325.3857">Member</text><ellipse cx="126.5" cy="337.1875" fill="#E3E3E3" rx="8" ry="8" style="stroke:#181818;stroke-width:0.5;"/><path d="M126.5,345.1875 L126.5,372.1875 M113.5,353.1875 L139.5,353.1875 M126.5,372.1875 L113.5,387.1875 M126.5,372.1875 L139.5,387.1875 " fill="none" style="stroke:#181818;stroke-width:0.5;"/><rect fill="#E3E3E3" height="30.2969" rx="2.5" ry="2.5" style="stroke:#181818;stroke-width:0.5;" width="68" x="459.5" y="87.2969"/><text fill="#000000" font-family="sans-serif" font-size="14" lengthAdjust="spacing" textLength="54" x="466.5" y="107.292">System</text><rect fill="#E3E3E3" height="30.2969" rx="2.5" ry="2.5" style="stroke:#181818;stroke-width:0.5;" width="68" x="459.5" y="312.3906"/><text fill="#000000" font-family="sans-serif" font-size="14" lengthAdjust="spacing" textLength="54" x="466.5" y="332.3857">System</text><rect fill="#FFFFFF" height="166.7969" style="stroke:#181818;stroke-width:1.0;" width="10" x="121.5" y="128.5938"/><rect fill="#FFFFFF" height="29.1328" style="stroke:#181818;stroke-width:1.0;" width="10" x="488.5" y="149.7266"/><rect fill="#FFFFFF" height="29.1328" style="stroke:#181818;stroke-width:1.0;" width="10" x="488.5" y="207.9922"/><rect fill="#FFFFFF" height="29.1328" style="stroke:#181818;stroke-width:1.0;" width="10" x="488.5" y="266.2578"/><polygon fill="#181818" points="476.5,145.7266,486.5,149.7266,476.5,153.7266,480.5,149.7266" style="stroke:#181818;stroke-width:1.0;"/><line style="stroke:#181818;stroke-width:1.0;" x1="131.5" x2="482.5" y1="149.7266" y2="149.7266"/><text fill="#000000" font-family="sans-serif" font-size="13" font-weight="bold" lengthAdjust="spacing" textLength="9" x="138.5" y="144.6606">1</text><text fill="#000000" font-family="sans-serif" font-size="13" lengthAdjust="spacing" textLength="291" x="151.5" y="144.6606">Hovers upvote or downvote arrows on a post</text><polygon fill="#181818" points="142.5,174.8594,132.5,178.8594,142.5,182.8594,138.5,178.8594" style="stroke:#181818;stroke-width:1.0;"/><line style="stroke:#181818;stroke-width:1.0;stroke-dasharray:2.0,2.0;" x1="136.5" x2="492.5" y1="178.8594" y2="178.8594"/><text fill="#000000" font-family="sans-serif" font-size="13" font-weight="bold" lengthAdjust="spacing" textLength="9" x="148.5" y="173.7935">2</text><text fill="#000000" font-family="sans-serif" font-size="13" lengthAdjust="spacing" textLength="98" x="161.5" y="173.7935">Displays tooltip</text><polygon fill="#181818" points="476.5,203.9922,486.5,207.9922,476.5,211.9922,480.5,207.9922" style="stroke:#181818;stroke-width:1.0;"/><line style="stroke:#181818;stroke-width:1.0;" x1="131.5" x2="482.5" y1="207.9922" y2="207.9922"/><text fill="#000000" font-family="sans-serif" font-size="13" font-weight="bold" lengthAdjust="spacing" textLength="8" x="138.5" y="202.9263">3</text><text fill="#000000" font-family="sans-serif" font-size="13" lengthAdjust="spacing" textLength="80" x="150.5" y="202.9263">Clicks "Here"</text><polygon fill="#181818" points="142.5,233.125,132.5,237.125,142.5,241.125,138.5,237.125" style="stroke:#181818;stroke-width:1.0;"/><line style="stroke:#181818;stroke-width:1.0;stroke-dasharray:2.0,2.0;" x1="136.5" x2="492.5" y1="237.125" y2="237.125"/><text fill="#000000" font-family="sans-serif" font-size="13" font-weight="bold" lengthAdjust="spacing" textLength="9" x="148.5" y="232.0591">4</text><text fill="#000000" font-family="sans-serif" font-size="13" lengthAdjust="spacing" textLength="124" x="161.5" y="232.0591">Displays login page</text><polygon fill="#181818" points="476.5,262.2578,486.5,266.2578,476.5,270.2578,480.5,266.2578" style="stroke:#181818;stroke-width:1.0;"/><line style="stroke:#181818;stroke-width:1.0;" x1="131.5" x2="482.5" y1="266.2578" y2="266.2578"/><text fill="#000000" font-family="sans-serif" font-size="13" font-weight="bold" lengthAdjust="spacing" textLength="9" x="138.5" y="261.1919">5</text><text fill="#000000" font-family="sans-serif" font-size="13" lengthAdjust="spacing" textLength="325" x="151.5" y="261.1919">Enters "username", "password" and clicks "Submit"</text><polygon fill="#181818" points="137.5,291.3906,127.5,295.3906,137.5,299.3906,133.5,295.3906" style="stroke:#181818;stroke-width:1.0;"/><line style="stroke:#181818;stroke-width:1.0;stroke-dasharray:2.0,2.0;" x1="131.5" x2="492.5" y1="295.3906" y2="295.3906"/><text fill="#000000" font-family="sans-serif" font-size="13" font-weight="bold" lengthAdjust="spacing" textLength="9" x="143.5" y="290.3247">6</text><text fill="#000000" font-family="sans-serif" font-size="13" lengthAdjust="spacing" textLength="272" x="156.5" y="290.3247">Displays success message and main page</text><!--SRC=[fL7BJWCn3BplLrWvWKH_e0SaH94um6dv0JThjb6JECJEhlhtP1-jAi61Xm_H99dCZ1qvkfWmOu30aUqXSo3GNAYHoqr2UyIUMZrvWanMCVR-cY07x7XqiOTtz49DequhjJs9Ke2MFWf5Ix1ps4_qcxRTtS867hnIZgXk87WRkPwySEyYQ4rH-WCeirUNcWQBSYnXJxbYgvp1lDAqDO022sng57NM9OmAPh6UhnSuFtG3Aftv3THQC6pkLzeMddcWB53Im9LRhMfdSSQOCuy2704XiUWiS54zsy1QQ_ERAhsOR6l_aZoUvDBOcTlHjp9VmprwPuy2vfaocR_x-tdCgVxfxoCyHPtcOufCVnV8t859A39oxkgyOmTs3TcMVN3wZvXIh2KH27MfMMVnW3z8VdMqY7u2]--></g></svg>