<?xml version="1.0" encoding="us-ascii" standalone="no"?><svg xmlns="http://www.w3.org/2000/svg" xmlns:xlink="http://www.w3.org/1999/xlink" contentStyleType="text/css" height="394px" preserveAspectRatio="none" style="width:741px;height:394px;background:#FFFFFF;" version="1.1" viewBox="0 0 741 394" width="741px" zoomAndPan="magnify"><defs/><g><text fill="#000000" font-family="sans-serif" font-size="14" font-weight="bold" lengthAdjust="spacing" textLength="713" x="10" y="27.9951">System Sequence Diagram (SSD) - Alternative Thre - Login through tooltip in comments</text><rect fill="#FFFFFF" height="166.7969" style="stroke:#181818;stroke-width:1.0;" width="10" x="178" y="128.5938"/><rect fill="#FFFFFF" height="29.1328" style="stroke:#181818;stroke-width:1.0;" width="10" x="545" y="149.7266"/><rect fill="#FFFFFF" height="29.1328" style="stroke:#181818;stroke-width:1.0;" width="10" x="545" y="207.9922"/><rect fill="#FFFFFF" height="29.1328" style="stroke:#181818;stroke-width:1.0;" width="10" x="545" y="266.2578"/><line style="stroke:#181818;stroke-width:0.5;stroke-dasharray:5.0,5.0;" x1="183" x2="183" y1="118.5938" y2="313.3906"/><line style="stroke:#181818;stroke-width:0.5;stroke-dasharray:5.0,5.0;" x1="550" x2="550" y1="118.5938" y2="313.3906"/><text fill="#000000" font-family="sans-serif" font-size="14" lengthAdjust="spacing" textLength="60" x="150" y="115.292">Member</text><ellipse cx="183" cy="50.7969" fill="#E3E3E3" rx="8" ry="8" style="stroke:#181818;stroke-width:0.5;"/><path d="M183,58.7969 L183,85.7969 M170,66.7969 L196,66.7969 M183,85.7969 L170,100.7969 M183,85.7969 L196,100.7969 " fill="none" style="stroke:#181818;stroke-width:0.5;"/><text fill="#000000" font-family="sans-serif" font-size="14" lengthAdjust="spacing" textLength="60" x="150" y="325.3857">Member</text><ellipse cx="183" cy="337.1875" fill="#E3E3E3" rx="8" ry="8" style="stroke:#181818;stroke-width:0.5;"/><path d="M183,345.1875 L183,372.1875 M170,353.1875 L196,353.1875 M183,372.1875 L170,387.1875 M183,372.1875 L196,387.1875 " fill="none" style="stroke:#181818;stroke-width:0.5;"/><rect fill="#E3E3E3" height="30.2969" rx="2.5" ry="2.5" style="stroke:#181818;stroke-width:0.5;" width="68" x="516" y="87.2969"/><text fill="#000000" font-family="sans-serif" font-size="14" lengthAdjust="spacing" textLength="54" x="523" y="107.292">System</text><rect fill="#E3E3E3" height="30.2969" rx="2.5" ry="2.5" style="stroke:#181818;stroke-width:0.5;" width="68" x="516" y="312.3906"/><text fill="#000000" font-family="sans-serif" font-size="14" lengthAdjust="spacing" textLength="54" x="523" y="332.3857">System</text><rect fill="#FFFFFF" height="166.7969" style="stroke:#181818;stroke-width:1.0;" width="10" x="178" y="128.5938"/><rect fill="#FFFFFF" height="29.1328" style="stroke:#181818;stroke-width:1.0;" width="10" x="545" y="149.7266"/><rect fill="#FFFFFF" height="29.1328" style="stroke:#181818;stroke-width:1.0;" width="10" x="545" y="207.9922"/><rect fill="#FFFFFF" height="29.1328" style="stroke:#181818;stroke-width:1.0;" width="10" x="545" y="266.2578"/><polygon fill="#181818" points="533,145.7266,543,149.7266,533,153.7266,537,149.7266" style="stroke:#181818;stroke-width:1.0;"/><line style="stroke:#181818;stroke-width:1.0;" x1="188" x2="539" y1="149.7266" y2="149.7266"/><text fill="#000000" font-family="sans-serif" font-size="13" font-weight="bold" lengthAdjust="spacing" textLength="9" x="195" y="144.6606">1</text><text fill="#000000" font-family="sans-serif" font-size="13" lengthAdjust="spacing" textLength="325" x="208" y="144.6606">Hovers upvote or downvote arrows on a comment</text><polygon fill="#181818" points="199,174.8594,189,178.8594,199,182.8594,195,178.8594" style="stroke:#181818;stroke-width:1.0;"/><line style="stroke:#181818;stroke-width:1.0;stroke-dasharray:2.0,2.0;" x1="193" x2="549" y1="178.8594" y2="178.8594"/><text fill="#000000" font-family="sans-serif" font-size="13" font-weight="bold" lengthAdjust="spacing" textLength="9" x="205" y="173.7935">2</text><text fill="#000000" font-family="sans-serif" font-size="13" lengthAdjust="spacing" textLength="98" x="218" y="173.7935">Displays tooltip</text><polygon fill="#181818" points="533,203.9922,543,207.9922,533,211.9922,537,207.9922" style="stroke:#181818;stroke-width:1.0;"/><line style="stroke:#181818;stroke-width:1.0;" x1="188" x2="539" y1="207.9922" y2="207.9922"/><text fill="#000000" font-family="sans-serif" font-size="13" font-weight="bold" lengthAdjust="spacing" textLength="8" x="195" y="202.9263">3</text><text fill="#000000" font-family="sans-serif" font-size="13" lengthAdjust="spacing" textLength="80" x="207" y="202.9263">Clicks "Here"</text><polygon fill="#181818" points="199,233.125,189,237.125,199,241.125,195,237.125" style="stroke:#181818;stroke-width:1.0;"/><line style="stroke:#181818;stroke-width:1.0;stroke-dasharray:2.0,2.0;" x1="193" x2="549" y1="237.125" y2="237.125"/><text fill="#000000" font-family="sans-serif" font-size="13" font-weight="bold" lengthAdjust="spacing" textLength="9" x="205" y="232.0591">4</text><text fill="#000000" font-family="sans-serif" font-size="13" lengthAdjust="spacing" textLength="124" x="218" y="232.0591">Displays login page</text><polygon fill="#181818" points="533,262.2578,543,266.2578,533,270.2578,537,266.2578" style="stroke:#181818;stroke-width:1.0;"/><line style="stroke:#181818;stroke-width:1.0;" x1="188" x2="539" y1="266.2578" y2="266.2578"/><text fill="#000000" font-family="sans-serif" font-size="13" font-weight="bold" lengthAdjust="spacing" textLength="9" x="195" y="261.1919">5</text><text fill="#000000" font-family="sans-serif" font-size="13" lengthAdjust="spacing" textLength="325" x="208" y="261.1919">Enters "username", "password" and clicks "Submit"</text><polygon fill="#181818" points="194,291.3906,184,295.3906,194,299.3906,190,295.3906" style="stroke:#181818;stroke-width:1.0;"/><line style="stroke:#181818;stroke-width:1.0;stroke-dasharray:2.0,2.0;" x1="188" x2="549" y1="295.3906" y2="295.3906"/><text fill="#000000" font-family="sans-serif" font-size="13" font-weight="bold" lengthAdjust="spacing" textLength="9" x="200" y="290.3247">6</text><text fill="#000000" font-family="sans-serif" font-size="13" lengthAdjust="spacing" textLength="272" x="213" y="290.3247">Displays success message and main page</text><!--SRC=[fP7BJWCn34NtynLMLY3H7-W22L4a5h0QVi3Dc9ceUH4xK_NlSUTHLO85Zon67kVc-kI63ovcB1WWf9ZiK58Wa5AfuSjEHdl0dbevUO92LZ3s_bh00tRfw68Fx-YPcaQSgBGziL20bZugHKkmSzYVvJTjkxk53JnueH9Ht4ZmDXJIralgNGHHZDeF82bvSHcqPLC858MR1gkaMCEUYjPMKW7pIkTV0yWmburoYRCkOnGmCyUqFPVJGJUYqAflGDTSm-P-aMtXEOrK66eUasfrb5upJZMMaeuCAGAkR9F7nNYT1CjQmjYe-pndgtbmzdZYzPuNRKVVsdpbU_JE7XZCCnKoVv_lfzIpll7l4PwYd2CobSzl6SZSWSd8V4obqyXZ1tQ1REi-EFa79bThYHc2VfHrCW_u0_Ahrcpw2G00]--></g></svg>