<?xml version="1.0" encoding="us-ascii" standalone="no"?><svg xmlns="http://www.w3.org/2000/svg" xmlns:xlink="http://www.w3.org/1999/xlink" contentStyleType="text/css" height="609px" preserveAspectRatio="none" style="width:1543px;height:609px;background:#FFFFFF;" version="1.1" viewBox="0 0 1543 609" width="1543px" zoomAndPan="magnify"><defs/><g><text fill="#000000" font-family="sans-serif" font-size="14" font-weight="bold" lengthAdjust="spacing" textLength="718" x="411.75" y="27.9951">Sequence Diagram (SD) - US017 - View Post Title with more comments of a specific date</text><rect fill="#FFFFFF" height="390.8906" style="stroke:#181818;stroke-width:1.0;" width="10" x="33" y="128.5938"/><rect fill="#FFFFFF" height="345.625" style="stroke:#181818;stroke-width:1.0;" width="10" x="305" y="164.8594"/><rect fill="#FFFFFF" height="325.4922" style="stroke:#181818;stroke-width:1.0;" width="10" x="591" y="193.9922"/><rect fill="#ADD8E6" height="250.2266" style="stroke:#181818;stroke-width:1.0;" width="10" x="596" y="231.125"/><rect fill="#FFFFFF" height="212.9297" style="stroke:#181818;stroke-width:1.0;" width="10" x="1176" y="306.5547"/><rect fill="#FFFFFF" height="87.3984" style="stroke:#181818;stroke-width:1.0;" width="10" x="1378.5" y="335.6875"/><rect fill="#FFFFFF" height="29.1328" style="stroke:#181818;stroke-width:1.0;" width="10" x="1500.5" y="364.8203"/><line style="stroke:#181818;stroke-width:0.5;stroke-dasharray:5.0,5.0;" x1="38" x2="38" y1="118.5938" y2="528.4844"/><line style="stroke:#181818;stroke-width:0.5;stroke-dasharray:5.0,5.0;" x1="309.5" x2="309.5" y1="118.5938" y2="528.4844"/><line style="stroke:#181818;stroke-width:0.5;stroke-dasharray:5.0,5.0;" x1="595.5" x2="595.5" y1="118.5938" y2="528.4844"/><line style="stroke:#181818;stroke-width:0.5;stroke-dasharray:5.0,5.0;" x1="946.5" x2="946.5" y1="274.7734" y2="528.4844"/><line style="stroke:#181818;stroke-width:0.5;stroke-dasharray:5.0,5.0;" x1="1180.5" x2="1180.5" y1="118.5938" y2="528.4844"/><line style="stroke:#181818;stroke-width:0.5;stroke-dasharray:5.0,5.0;" x1="1383.5" x2="1383.5" y1="118.5938" y2="528.4844"/><line style="stroke:#181818;stroke-width:0.5;stroke-dasharray:5.0,5.0;" x1="1505.5" x2="1505.5" y1="118.5938" y2="528.4844"/><text fill="#000000" font-family="sans-serif" font-size="14" lengthAdjust="spacing" textLength="60" x="5" y="115.292">Member</text><ellipse cx="38" cy="50.7969" fill="#E2E2F0" rx="8" ry="8" style="stroke:#181818;stroke-width:0.5;"/><path d="M38,58.7969 L38,85.7969 M25,66.7969 L51,66.7969 M38,85.7969 L25,100.7969 M38,85.7969 L51,100.7969 " fill="none" style="stroke:#181818;stroke-width:0.5;"/><text fill="#000000" font-family="sans-serif" font-size="14" lengthAdjust="spacing" textLength="60" x="5" y="540.4795">Member</text><ellipse cx="38" cy="552.2813" fill="#E2E2F0" rx="8" ry="8" style="stroke:#181818;stroke-width:0.5;"/><path d="M38,560.2813 L38,587.2813 M25,568.2813 L51,568.2813 M38,587.2813 L25,602.2813 M38,587.2813 L51,602.2813 " fill="none" style="stroke:#181818;stroke-width:0.5;"/><rect fill="#E2E2F0" height="30.2969" rx="2.5" ry="2.5" style="stroke:#181818;stroke-width:0.5;" width="93" x="263.5" y="87.2969"/><text fill="#000000" font-family="sans-serif" font-size="14" lengthAdjust="spacing" textLength="79" x="270.5" y="107.292">userRouter</text><rect fill="#E2E2F0" height="30.2969" rx="2.5" ry="2.5" style="stroke:#181818;stroke-width:0.5;" width="93" x="263.5" y="527.4844"/><text fill="#000000" font-family="sans-serif" font-size="14" lengthAdjust="spacing" textLength="79" x="270.5" y="547.4795">userRouter</text><rect fill="#E2E2F0" height="30.2969" rx="2.5" ry="2.5" style="stroke:#181818;stroke-width:0.5;" width="459" x="366.5" y="87.2969"/><text fill="#000000" font-family="sans-serif" font-size="14" lengthAdjust="spacing" textLength="445" x="373.5" y="107.292">getStatisticsByDateController:GetStatisticsByDateController</text><rect fill="#E2E2F0" height="30.2969" rx="2.5" ry="2.5" style="stroke:#181818;stroke-width:0.5;" width="459" x="366.5" y="527.4844"/><text fill="#000000" font-family="sans-serif" font-size="14" lengthAdjust="spacing" textLength="445" x="373.5" y="547.4795">getStatisticsByDateController:GetStatisticsByDateController</text><rect fill="#E2E2F0" height="30.2969" rx="2.5" ry="2.5" style="stroke:#181818;stroke-width:0.5;" width="223" x="835.5" y="527.4844"/><text fill="#000000" font-family="sans-serif" font-size="14" lengthAdjust="spacing" textLength="209" x="842.5" y="547.4795">dto:GetStatisticsByDateDTO</text><rect fill="#E2E2F0" height="30.2969" rx="2.5" ry="2.5" style="stroke:#181818;stroke-width:0.5;" width="225" x="1068.5" y="87.2969"/><text fill="#000000" font-family="sans-serif" font-size="14" lengthAdjust="spacing" textLength="211" x="1075.5" y="107.292">useCase:GetStatisticsByDate</text><rect fill="#E2E2F0" height="30.2969" rx="2.5" ry="2.5" style="stroke:#181818;stroke-width:0.5;" width="225" x="1068.5" y="527.4844"/><text fill="#000000" font-family="sans-serif" font-size="14" lengthAdjust="spacing" textLength="211" x="1075.5" y="547.4795">useCase:GetStatisticsByDate</text><rect fill="#E2E2F0" height="30.2969" rx="2.5" ry="2.5" style="stroke:#181818;stroke-width:0.5;" width="160" x="1303.5" y="87.2969"/><text fill="#000000" font-family="sans-serif" font-size="14" lengthAdjust="spacing" textLength="146" x="1310.5" y="107.292">userRepo:IUserRepo</text><rect fill="#E2E2F0" height="30.2969" rx="2.5" ry="2.5" style="stroke:#181818;stroke-width:0.5;" width="160" x="1303.5" y="527.4844"/><text fill="#000000" font-family="sans-serif" font-size="14" lengthAdjust="spacing" textLength="146" x="1310.5" y="547.4795">userRepo:IUserRepo</text><rect fill="#E2E2F0" height="30.2969" rx="2.5" ry="2.5" style="stroke:#181818;stroke-width:0.5;" width="64" x="1473.5" y="87.2969"/><text fill="#000000" font-family="sans-serif" font-size="14" lengthAdjust="spacing" textLength="50" x="1480.5" y="107.292">:Result</text><rect fill="#E2E2F0" height="30.2969" rx="2.5" ry="2.5" style="stroke:#181818;stroke-width:0.5;" width="64" x="1473.5" y="527.4844"/><text fill="#000000" font-family="sans-serif" font-size="14" lengthAdjust="spacing" textLength="50" x="1480.5" y="547.4795">:Result</text><rect fill="#FFFFFF" height="390.8906" style="stroke:#181818;stroke-width:1.0;" width="10" x="33" y="128.5938"/><rect fill="#FFFFFF" height="345.625" style="stroke:#181818;stroke-width:1.0;" width="10" x="305" y="164.8594"/><rect fill="#FFFFFF" height="325.4922" style="stroke:#181818;stroke-width:1.0;" width="10" x="591" y="193.9922"/><rect fill="#ADD8E6" height="250.2266" style="stroke:#181818;stroke-width:1.0;" width="10" x="596" y="231.125"/><rect fill="#FFFFFF" height="212.9297" style="stroke:#181818;stroke-width:1.0;" width="10" x="1176" y="306.5547"/><rect fill="#FFFFFF" height="87.3984" style="stroke:#181818;stroke-width:1.0;" width="10" x="1378.5" y="335.6875"/><rect fill="#FFFFFF" height="29.1328" style="stroke:#181818;stroke-width:1.0;" width="10" x="1500.5" y="364.8203"/><polygon fill="#181818" points="293,160.8594,303,164.8594,293,168.8594,297,164.8594" style="stroke:#181818;stroke-width:1.0;"/><line style="stroke:#181818;stroke-width:1.0;" x1="43" x2="299" y1="164.8594" y2="164.8594"/><text fill="#000000" font-family="sans-serif" font-size="13" font-weight="bold" lengthAdjust="spacing" textLength="9" x="50" y="152.2271">1</text><text fill="#000000" font-family="sans-serif" font-size="13" lengthAdjust="spacing" textLength="226" x="63" y="144.6606">GET("/api/v1/users/statistics/:date",</text><text fill="#000000" font-family="sans-serif" font-size="13" lengthAdjust="spacing" textLength="218" x="67" y="159.7935">{ "Authorization": accessToken })</text><polygon fill="#181818" points="579,189.9922,589,193.9922,579,197.9922,583,193.9922" style="stroke:#181818;stroke-width:1.0;"/><line style="stroke:#181818;stroke-width:1.0;" x1="315" x2="585" y1="193.9922" y2="193.9922"/><text fill="#000000" font-family="sans-serif" font-size="13" font-weight="bold" lengthAdjust="spacing" textLength="9" x="322" y="188.9263">2</text><text fill="#000000" font-family="sans-serif" font-size="13" lengthAdjust="spacing" textLength="111" x="335" y="188.9263">execute(req, res)</text><line style="stroke:#181818;stroke-width:1.0;" x1="601" x2="648" y1="218.125" y2="218.125"/><line style="stroke:#181818;stroke-width:1.0;" x1="648" x2="648" y1="218.125" y2="231.125"/><line style="stroke:#181818;stroke-width:1.0;" x1="607" x2="648" y1="231.125" y2="231.125"/><polygon fill="#181818" points="617,227.125,607,231.125,617,235.125,613,231.125" style="stroke:#181818;stroke-width:1.0;"/><text fill="#000000" font-family="sans-serif" font-size="13" font-weight="bold" lengthAdjust="spacing" textLength="8" x="613" y="213.0591">3</text><text fill="#000000" font-family="sans-serif" font-size="13" lengthAdjust="spacing" textLength="135" x="625" y="213.0591">executeImp(req, res)</text><polygon fill="#181818" points="823.5,261.2578,833.5,265.2578,823.5,269.2578,827.5,265.2578" style="stroke:#181818;stroke-width:1.0;"/><line style="stroke:#181818;stroke-width:1.0;" x1="606" x2="829.5" y1="265.2578" y2="265.2578"/><text fill="#000000" font-family="sans-serif" font-size="13" font-weight="bold" lengthAdjust="spacing" textLength="9" x="613" y="260.1919">4</text><text fill="#000000" font-family="sans-serif" font-size="13" lengthAdjust="spacing" textLength="4" x="626" y="260.1919">&#160;</text><rect fill="#E2E2F0" height="30.2969" rx="2.5" ry="2.5" style="stroke:#181818;stroke-width:0.5;" width="223" x="835.5" y="244.125"/><text fill="#000000" font-family="sans-serif" font-size="14" lengthAdjust="spacing" textLength="209" x="842.5" y="264.1201">dto:GetStatisticsByDateDTO</text><polygon fill="#181818" points="1164,302.5547,1174,306.5547,1164,310.5547,1168,306.5547" style="stroke:#181818;stroke-width:1.0;"/><line style="stroke:#181818;stroke-width:1.0;" x1="606" x2="1170" y1="306.5547" y2="306.5547"/><text fill="#000000" font-family="sans-serif" font-size="13" font-weight="bold" lengthAdjust="spacing" textLength="9" x="613" y="301.4888">5</text><text fill="#000000" font-family="sans-serif" font-size="13" lengthAdjust="spacing" textLength="83" x="626" y="301.4888">execute(dto)</text><polygon fill="#181818" points="1366.5,331.6875,1376.5,335.6875,1366.5,339.6875,1370.5,335.6875" style="stroke:#181818;stroke-width:1.0;"/><line style="stroke:#181818;stroke-width:1.0;" x1="1186" x2="1372.5" y1="335.6875" y2="335.6875"/><text fill="#000000" font-family="sans-serif" font-size="13" font-weight="bold" lengthAdjust="spacing" textLength="9" x="1193" y="330.6216">6</text><text fill="#000000" font-family="sans-serif" font-size="13" lengthAdjust="spacing" textLength="143" x="1206" y="330.6216">getStatistics(dto.date)</text><polygon fill="#181818" points="1488.5,360.8203,1498.5,364.8203,1488.5,368.8203,1492.5,364.8203" style="stroke:#181818;stroke-width:1.0;"/><line style="stroke:#181818;stroke-width:1.0;" x1="1388.5" x2="1494.5" y1="364.8203" y2="364.8203"/><text fill="#000000" font-family="sans-serif" font-size="13" font-weight="bold" lengthAdjust="spacing" textLength="9" x="1395.5" y="359.7544">7</text><text fill="#000000" font-family="sans-serif" font-size="13" lengthAdjust="spacing" textLength="67" x="1408.5" y="359.7544">getValue()</text><polygon fill="#181818" points="1399.5,389.9531,1389.5,393.9531,1399.5,397.9531,1395.5,393.9531" style="stroke:#181818;stroke-width:1.0;"/><line style="stroke:#181818;stroke-width:1.0;stroke-dasharray:2.0,2.0;" x1="1393.5" x2="1504.5" y1="393.9531" y2="393.9531"/><text fill="#000000" font-family="sans-serif" font-size="13" font-weight="bold" lengthAdjust="spacing" textLength="9" x="1405.5" y="388.8872">8</text><text fill="#000000" font-family="sans-serif" font-size="13" lengthAdjust="spacing" textLength="35" x="1418.5" y="388.8872">value</text><polygon fill="#181818" points="1197,419.0859,1187,423.0859,1197,427.0859,1193,423.0859" style="stroke:#181818;stroke-width:1.0;"/><line style="stroke:#181818;stroke-width:1.0;stroke-dasharray:2.0,2.0;" x1="1191" x2="1382.5" y1="423.0859" y2="423.0859"/><text fill="#000000" font-family="sans-serif" font-size="13" font-weight="bold" lengthAdjust="spacing" textLength="9" x="1203" y="418.02">9</text><text fill="#000000" font-family="sans-serif" font-size="13" lengthAdjust="spacing" textLength="155" x="1216" y="418.02">Result.ok&lt;any&gt;(values)</text><polygon fill="#181818" points="617,448.2188,607,452.2188,617,456.2188,613,452.2188" style="stroke:#181818;stroke-width:1.0;"/><line style="stroke:#181818;stroke-width:1.0;stroke-dasharray:2.0,2.0;" x1="611" x2="1175" y1="452.2188" y2="452.2188"/><text fill="#000000" font-family="sans-serif" font-size="13" font-weight="bold" lengthAdjust="spacing" textLength="19" x="623" y="447.1528">10</text><text fill="#000000" font-family="sans-serif" font-size="13" lengthAdjust="spacing" textLength="126" x="646" y="447.1528">ok&lt;{ values: any }</text><polygon fill="#181818" points="326,477.3516,316,481.3516,326,485.3516,322,481.3516" style="stroke:#181818;stroke-width:1.0;"/><line style="stroke:#181818;stroke-width:1.0;stroke-dasharray:2.0,2.0;" x1="320" x2="590" y1="481.3516" y2="481.3516"/><text fill="#000000" font-family="sans-serif" font-size="13" font-weight="bold" lengthAdjust="spacing" textLength="18" x="332" y="476.2856">11</text><text fill="#000000" font-family="sans-serif" font-size="13" lengthAdjust="spacing" textLength="130" x="354" y="476.2856">res.sendStatus(200)</text><polygon fill="#181818" points="54,506.4844,44,510.4844,54,514.4844,50,510.4844" style="stroke:#181818;stroke-width:1.0;"/><line style="stroke:#181818;stroke-width:1.0;stroke-dasharray:2.0,2.0;" x1="48" x2="309" y1="510.4844" y2="510.4844"/><text fill="#000000" font-family="sans-serif" font-size="13" font-weight="bold" lengthAdjust="spacing" textLength="18" x="60" y="505.4185">12</text><text fill="#000000" font-family="sans-serif" font-size="13" lengthAdjust="spacing" textLength="130" x="82" y="505.4185">res.sendStatus(200)</text><!--SRC=[dLDDJ-Cm4BttLuoobrIYJU6oKhIg17I5a7QrAreuxSMuGskHsC5s2bt4Vz-ndIRfXqAqkSJZUVFcwzaAco7CyQL4oH5cWgqqoo6UpuOmWllvvFmh_Hy4li9lPImiFFvLs3NaIYDmbUSehG7r10nCWLmy2GvBPd400rPQ9Sly4RKpk5KQef_ex0YOWN0S54nRmKN1f8MeDAZlL6ahI6FkmrPevvPPOUZAN6rdbEzQIQjLbg5ERxgydhSJiPzgQTKfmjdYbsSYzr47rypWgPXTIyv_ecqiL7fxNvsQzidO1wTtQChCUaGuXl6A3UNOJHK6G5ymO3HjJJA5c- -BE4fO8PBDUU8S9Z5rgKdgjXUTmHy9xn1TbdQjjFXBRYMZ51ZdQCn2FQE4Zw5FKgTkRIkaRoweXCwPfu1lo0aPQtmv0utcWBjxOo5T9uPcqA-2sxpuhoBWom-nMjkhh4GVnJMw62UGJujp6_B0Vj2TnkgXKUom2cvlmmkjMeGxrq9mKeEzH-GencxpftY22EkDak6OWlR04pqmQZi-Yjt9axuAFQB0XYM53VFpyf0b7WKU96tt7Y1ZzVoDoUqqzaJLmbf4XzM7CNmk1g9z3yKP4htSmaUVrOocxNT60XeRb4iNKPhuOZ8vAg-FhDklY0gltdGl-YRq7m00]--></g></svg>