<?xml version="1.0" encoding="us-ascii" standalone="no"?><svg xmlns="http://www.w3.org/2000/svg" xmlns:xlink="http://www.w3.org/1999/xlink" contentStyleType="text/css" height="436px" preserveAspectRatio="none" style="width:820px;height:436px;background:#FFFFFF;" version="1.1" viewBox="0 0 820 436" width="820px" zoomAndPan="magnify"><defs/><g><text fill="#000000" font-family="sans-serif" font-size="14" font-weight="bold" lengthAdjust="spacing" textLength="792" x="10" y="27.9951">System Sequence Diagram (SSD) - View Percentage of Posts Without Comments on a Specific Day</text><rect fill="#FFFFFF" height="208.9297" style="stroke:#181818;stroke-width:1.0;" width="10" x="133.5" y="128.5938"/><rect fill="#FFFFFF" height="29.1328" style="stroke:#181818;stroke-width:1.0;" width="10" x="415.5" y="149.7266"/><rect fill="#FFFFFF" height="29.1328" style="stroke:#181818;stroke-width:1.0;" width="10" x="415.5" y="207.9922"/><rect fill="#FFFFFF" height="71.2656" style="stroke:#181818;stroke-width:1.0;" width="10" x="415.5" y="266.2578"/><line style="stroke:#181818;stroke-width:0.5;stroke-dasharray:5.0,5.0;" x1="138.5" x2="138.5" y1="118.5938" y2="355.5234"/><line style="stroke:#181818;stroke-width:0.5;stroke-dasharray:5.0,5.0;" x1="420.5" x2="420.5" y1="118.5938" y2="355.5234"/><text fill="#000000" font-family="sans-serif" font-size="14" lengthAdjust="spacing" textLength="60" x="105.5" y="115.292">Member</text><ellipse cx="138.5" cy="50.7969" fill="#E3E3E3" rx="8" ry="8" style="stroke:#181818;stroke-width:0.5;"/><path d="M138.5,58.7969 L138.5,85.7969 M125.5,66.7969 L151.5,66.7969 M138.5,85.7969 L125.5,100.7969 M138.5,85.7969 L151.5,100.7969 " fill="none" style="stroke:#181818;stroke-width:0.5;"/><text fill="#000000" font-family="sans-serif" font-size="14" lengthAdjust="spacing" textLength="60" x="105.5" y="367.5186">Member</text><ellipse cx="138.5" cy="379.3203" fill="#E3E3E3" rx="8" ry="8" style="stroke:#181818;stroke-width:0.5;"/><path d="M138.5,387.3203 L138.5,414.3203 M125.5,395.3203 L151.5,395.3203 M138.5,414.3203 L125.5,429.3203 M138.5,414.3203 L151.5,429.3203 " fill="none" style="stroke:#181818;stroke-width:0.5;"/><rect fill="#E3E3E3" height="30.2969" rx="2.5" ry="2.5" style="stroke:#181818;stroke-width:0.5;" width="68" x="386.5" y="87.2969"/><text fill="#000000" font-family="sans-serif" font-size="14" lengthAdjust="spacing" textLength="54" x="393.5" y="107.292">System</text><rect fill="#E3E3E3" height="30.2969" rx="2.5" ry="2.5" style="stroke:#181818;stroke-width:0.5;" width="68" x="386.5" y="354.5234"/><text fill="#000000" font-family="sans-serif" font-size="14" lengthAdjust="spacing" textLength="54" x="393.5" y="374.5186">System</text><rect fill="#FFFFFF" height="208.9297" style="stroke:#181818;stroke-width:1.0;" width="10" x="133.5" y="128.5938"/><rect fill="#FFFFFF" height="29.1328" style="stroke:#181818;stroke-width:1.0;" width="10" x="415.5" y="149.7266"/><rect fill="#FFFFFF" height="29.1328" style="stroke:#181818;stroke-width:1.0;" width="10" x="415.5" y="207.9922"/><rect fill="#FFFFFF" height="71.2656" style="stroke:#181818;stroke-width:1.0;" width="10" x="415.5" y="266.2578"/><polygon fill="#181818" points="403.5,145.7266,413.5,149.7266,403.5,153.7266,407.5,149.7266" style="stroke:#181818;stroke-width:1.0;"/><line style="stroke:#181818;stroke-width:1.0;" x1="143.5" x2="409.5" y1="149.7266" y2="149.7266"/><text fill="#000000" font-family="sans-serif" font-size="13" font-weight="bold" lengthAdjust="spacing" textLength="9" x="150.5" y="144.6606">1</text><text fill="#000000" font-family="sans-serif" font-size="13" lengthAdjust="spacing" textLength="38" x="163.5" y="144.6606">Log in</text><polygon fill="#181818" points="154.5,174.8594,144.5,178.8594,154.5,182.8594,150.5,178.8594" style="stroke:#181818;stroke-width:1.0;"/><line style="stroke:#181818;stroke-width:1.0;stroke-dasharray:2.0,2.0;" x1="148.5" x2="419.5" y1="178.8594" y2="178.8594"/><text fill="#000000" font-family="sans-serif" font-size="13" font-weight="bold" lengthAdjust="spacing" textLength="9" x="160.5" y="173.7935">2</text><text fill="#000000" font-family="sans-serif" font-size="13" lengthAdjust="spacing" textLength="100" x="173.5" y="173.7935">Logs in account</text><polygon fill="#181818" points="403.5,203.9922,413.5,207.9922,403.5,211.9922,407.5,207.9922" style="stroke:#181818;stroke-width:1.0;"/><line style="stroke:#181818;stroke-width:1.0;" x1="143.5" x2="409.5" y1="207.9922" y2="207.9922"/><text fill="#000000" font-family="sans-serif" font-size="13" font-weight="bold" lengthAdjust="spacing" textLength="8" x="150.5" y="202.9263">3</text><text fill="#000000" font-family="sans-serif" font-size="13" lengthAdjust="spacing" textLength="90" x="162.5" y="202.9263">Click statistics</text><polygon fill="#181818" points="154.5,233.125,144.5,237.125,154.5,241.125,150.5,237.125" style="stroke:#181818;stroke-width:1.0;"/><line style="stroke:#181818;stroke-width:1.0;stroke-dasharray:2.0,2.0;" x1="148.5" x2="419.5" y1="237.125" y2="237.125"/><text fill="#000000" font-family="sans-serif" font-size="13" font-weight="bold" lengthAdjust="spacing" textLength="9" x="160.5" y="232.0591">4</text><text fill="#000000" font-family="sans-serif" font-size="13" lengthAdjust="spacing" textLength="164" x="173.5" y="232.0591">Statistics page displayed:</text><polygon fill="#181818" points="403.5,262.2578,413.5,266.2578,403.5,270.2578,407.5,266.2578" style="stroke:#181818;stroke-width:1.0;"/><line style="stroke:#181818;stroke-width:1.0;" x1="143.5" x2="409.5" y1="266.2578" y2="266.2578"/><text fill="#000000" font-family="sans-serif" font-size="13" font-weight="bold" lengthAdjust="spacing" textLength="9" x="150.5" y="261.1919">5</text><text fill="#000000" font-family="sans-serif" font-size="13" lengthAdjust="spacing" textLength="240" x="163.5" y="261.1919">Writes a specific day on specific field.</text><line style="stroke:#181818;stroke-width:1.0;" x1="425.5" x2="467.5" y1="295.3906" y2="295.3906"/><line style="stroke:#181818;stroke-width:1.0;" x1="467.5" x2="467.5" y1="295.3906" y2="308.3906"/><line style="stroke:#181818;stroke-width:1.0;" x1="426.5" x2="467.5" y1="308.3906" y2="308.3906"/><polygon fill="#181818" points="436.5,304.3906,426.5,308.3906,436.5,312.3906,432.5,308.3906" style="stroke:#181818;stroke-width:1.0;"/><text fill="#000000" font-family="sans-serif" font-size="13" font-weight="bold" lengthAdjust="spacing" textLength="9" x="432.5" y="290.3247">6</text><text fill="#000000" font-family="sans-serif" font-size="13" lengthAdjust="spacing" textLength="255" x="445.5" y="290.3247">Calculate no-comment post percentage</text><polygon fill="#181818" points="149.5,333.5234,139.5,337.5234,149.5,341.5234,145.5,337.5234" style="stroke:#181818;stroke-width:1.0;"/><line style="stroke:#181818;stroke-width:1.0;stroke-dasharray:2.0,2.0;" x1="143.5" x2="419.5" y1="337.5234" y2="337.5234"/><text fill="#000000" font-family="sans-serif" font-size="13" font-weight="bold" lengthAdjust="spacing" textLength="9" x="155.5" y="332.4575">7</text><text fill="#000000" font-family="sans-serif" font-size="13" lengthAdjust="spacing" textLength="124" x="168.5" y="332.4575">Display percentage</text><!--SRC=[bL8nRiCm3Dpr2Y9JExWFoD0b7biWW85cPcNQ8I9BYaWtyEyhHuaHj47HQ15btj5tEic1VSI40mp11xjFOI3GD9AHfHFH7h2dHYT7aCWg-jxT0cIFRJYnxw539sICicPeCudI00qTH_AMe6RiP_XJqzJFKC47qmcsb2nvpVCXTB0DeW8xrdqO5JPX679F87X0Q29PxjX2ZPCnE6hmu_19ATTMGuBLEyt75Q10AKsMfsmvebTO5JddTYdFHFv2fIlUb1sgrmja3M-X1_O6ybhGLpfSriLebMbbm9accPSvDenU5sXBTwVy_k_6iJs0A2fBzY0FAsWMQWumtsxB4XrErAuV5xDBh2Gv0xbcqE8qfxASEoRNllnFv8r9T7PqCzQ7ofQq8UOt075v5dzvh8kdMxIvR-p7rpBW6m00]--></g></svg>