<?xml version="1.0" encoding="us-ascii" standalone="no"?><svg xmlns="http://www.w3.org/2000/svg" xmlns:xlink="http://www.w3.org/1999/xlink" contentStyleType="text/css" height="636px" preserveAspectRatio="none" style="width:1610px;height:636px;background:#FFFFFF;" version="1.1" viewBox="0 0 1610 636" width="1610px" zoomAndPan="magnify"><defs/><g><text fill="#000000" font-family="sans-serif" font-size="14" font-weight="bold" lengthAdjust="spacing" textLength="594" x="507.25" y="27.9951">Sequence Diagram (SD) - US015 - Average of comments for a specific day</text><rect fill="#FFFFFF" height="408.8906" style="stroke:#181818;stroke-width:1.0;" width="10" x="33" y="128.5938"/><rect fill="#FFFFFF" height="387.7578" style="stroke:#181818;stroke-width:1.0;" width="10" x="204" y="149.7266"/><rect fill="#FFFFFF" height="329.4922" style="stroke:#181818;stroke-width:1.0;" width="10" x="517" y="178.8594"/><rect fill="#CCCCCC" height="256.2266" style="stroke:#181818;stroke-width:1.0;" width="10" x="522" y="215.9922"/><rect fill="#FFFFFF" height="145.6641" style="stroke:#181818;stroke-width:1.0;" width="10" x="1102" y="291.4219"/><rect fill="#FFFFFF" height="87.3984" style="stroke:#181818;stroke-width:1.0;" width="10" x="1304.5" y="320.5547"/><rect fill="#FFFFFF" height="29.1328" style="stroke:#181818;stroke-width:1.0;" width="10" x="1527.5" y="349.6875"/><line style="stroke:#181818;stroke-width:0.5;stroke-dasharray:5.0,5.0;" x1="38" x2="38" y1="118.5938" y2="555.4844"/><line style="stroke:#181818;stroke-width:0.5;stroke-dasharray:5.0,5.0;" x1="208.5" x2="208.5" y1="118.5938" y2="555.4844"/><line style="stroke:#181818;stroke-width:0.5;stroke-dasharray:5.0,5.0;" x1="521.5" x2="521.5" y1="118.5938" y2="555.4844"/><line style="stroke:#181818;stroke-width:0.5;stroke-dasharray:5.0,5.0;" x1="872.5" x2="872.5" y1="259.6406" y2="555.4844"/><line style="stroke:#181818;stroke-width:0.5;stroke-dasharray:5.0,5.0;" x1="1106.5" x2="1106.5" y1="118.5938" y2="555.4844"/><line style="stroke:#181818;stroke-width:0.5;stroke-dasharray:5.0,5.0;" x1="1309.5" x2="1309.5" y1="118.5938" y2="555.4844"/><line style="stroke:#181818;stroke-width:0.5;stroke-dasharray:5.0,5.0;" x1="1532.5" x2="1532.5" y1="118.5938" y2="555.4844"/><text fill="#000000" font-family="sans-serif" font-size="14" lengthAdjust="spacing" textLength="60" x="5" y="115.292">Member</text><ellipse cx="38" cy="50.7969" fill="#E3E3E3" rx="8" ry="8" style="stroke:#181818;stroke-width:0.5;"/><path d="M38,58.7969 L38,85.7969 M25,66.7969 L51,66.7969 M38,85.7969 L25,100.7969 M38,85.7969 L51,100.7969 " fill="none" style="stroke:#181818;stroke-width:0.5;"/><text fill="#000000" font-family="sans-serif" font-size="14" lengthAdjust="spacing" textLength="60" x="5" y="567.4795">Member</text><ellipse cx="38" cy="579.2813" fill="#E3E3E3" rx="8" ry="8" style="stroke:#181818;stroke-width:0.5;"/><path d="M38,587.2813 L38,614.2813 M25,595.2813 L51,595.2813 M38,614.2813 L25,629.2813 M38,614.2813 L51,629.2813 " fill="none" style="stroke:#181818;stroke-width:0.5;"/><rect fill="#E3E3E3" height="30.2969" rx="2.5" ry="2.5" style="stroke:#181818;stroke-width:0.5;" width="147" x="135.5" y="87.2969"/><text fill="#000000" font-family="sans-serif" font-size="14" lengthAdjust="spacing" textLength="133" x="142.5" y="107.292">userRouter:Router</text><rect fill="#E3E3E3" height="30.2969" rx="2.5" ry="2.5" style="stroke:#181818;stroke-width:0.5;" width="147" x="135.5" y="554.4844"/><text fill="#000000" font-family="sans-serif" font-size="14" lengthAdjust="spacing" textLength="133" x="142.5" y="574.4795">userRouter:Router</text><rect fill="#E3E3E3" height="30.2969" rx="2.5" ry="2.5" style="stroke:#181818;stroke-width:0.5;" width="459" x="292.5" y="87.2969"/><text fill="#000000" font-family="sans-serif" font-size="14" lengthAdjust="spacing" textLength="445" x="299.5" y="107.292">getStatisticsByDateController:GetStatisticsByDateController</text><rect fill="#E3E3E3" height="30.2969" rx="2.5" ry="2.5" style="stroke:#181818;stroke-width:0.5;" width="459" x="292.5" y="554.4844"/><text fill="#000000" font-family="sans-serif" font-size="14" lengthAdjust="spacing" textLength="445" x="299.5" y="574.4795">getStatisticsByDateController:GetStatisticsByDateController</text><rect fill="#E3E3E3" height="30.2969" rx="2.5" ry="2.5" style="stroke:#181818;stroke-width:0.5;" width="223" x="761.5" y="554.4844"/><text fill="#000000" font-family="sans-serif" font-size="14" lengthAdjust="spacing" textLength="209" x="768.5" y="574.4795">dto:GetStatisticsByDateDTO</text><rect fill="#E3E3E3" height="30.2969" rx="2.5" ry="2.5" style="stroke:#181818;stroke-width:0.5;" width="225" x="994.5" y="87.2969"/><text fill="#000000" font-family="sans-serif" font-size="14" lengthAdjust="spacing" textLength="211" x="1001.5" y="107.292">useCase:GetStatisticsByDate</text><rect fill="#E3E3E3" height="30.2969" rx="2.5" ry="2.5" style="stroke:#181818;stroke-width:0.5;" width="225" x="994.5" y="554.4844"/><text fill="#000000" font-family="sans-serif" font-size="14" lengthAdjust="spacing" textLength="211" x="1001.5" y="574.4795">useCase:GetStatisticsByDate</text><rect fill="#E3E3E3" height="30.2969" rx="2.5" ry="2.5" style="stroke:#181818;stroke-width:0.5;" width="160" x="1229.5" y="87.2969"/><text fill="#000000" font-family="sans-serif" font-size="14" lengthAdjust="spacing" textLength="146" x="1236.5" y="107.292">userRepo:IUserRepo</text><rect fill="#E3E3E3" height="30.2969" rx="2.5" ry="2.5" style="stroke:#181818;stroke-width:0.5;" width="160" x="1229.5" y="554.4844"/><text fill="#000000" font-family="sans-serif" font-size="14" lengthAdjust="spacing" textLength="146" x="1236.5" y="574.4795">userRepo:IUserRepo</text><rect fill="#E3E3E3" height="30.2969" rx="2.5" ry="2.5" style="stroke:#181818;stroke-width:0.5;" width="144" x="1460.5" y="87.2969"/><text fill="#000000" font-family="sans-serif" font-size="14" lengthAdjust="spacing" textLength="130" x="1467.5" y="107.292">statistics:Average</text><rect fill="#E3E3E3" height="30.2969" rx="2.5" ry="2.5" style="stroke:#181818;stroke-width:0.5;" width="144" x="1460.5" y="554.4844"/><text fill="#000000" font-family="sans-serif" font-size="14" lengthAdjust="spacing" textLength="130" x="1467.5" y="574.4795">statistics:Average</text><rect fill="#FFFFFF" height="408.8906" style="stroke:#181818;stroke-width:1.0;" width="10" x="33" y="128.5938"/><rect fill="#FFFFFF" height="387.7578" style="stroke:#181818;stroke-width:1.0;" width="10" x="204" y="149.7266"/><rect fill="#FFFFFF" height="329.4922" style="stroke:#181818;stroke-width:1.0;" width="10" x="517" y="178.8594"/><rect fill="#CCCCCC" height="256.2266" style="stroke:#181818;stroke-width:1.0;" width="10" x="522" y="215.9922"/><rect fill="#FFFFFF" height="145.6641" style="stroke:#181818;stroke-width:1.0;" width="10" x="1102" y="291.4219"/><rect fill="#FFFFFF" height="87.3984" style="stroke:#181818;stroke-width:1.0;" width="10" x="1304.5" y="320.5547"/><rect fill="#FFFFFF" height="29.1328" style="stroke:#181818;stroke-width:1.0;" width="10" x="1527.5" y="349.6875"/><polygon fill="#181818" points="192,145.7266,202,149.7266,192,153.7266,196,149.7266" style="stroke:#181818;stroke-width:1.0;"/><line style="stroke:#181818;stroke-width:1.0;" x1="43" x2="198" y1="149.7266" y2="149.7266"/><text fill="#000000" font-family="sans-serif" font-size="13" font-weight="bold" lengthAdjust="spacing" textLength="9" x="50" y="144.6606">1</text><text fill="#000000" font-family="sans-serif" font-size="13" lengthAdjust="spacing" textLength="129" x="63" y="144.6606">GET /statistics/:date</text><polygon fill="#181818" points="505,174.8594,515,178.8594,505,182.8594,509,178.8594" style="stroke:#181818;stroke-width:1.0;"/><line style="stroke:#181818;stroke-width:1.0;" x1="214" x2="511" y1="178.8594" y2="178.8594"/><text fill="#000000" font-family="sans-serif" font-size="13" font-weight="bold" lengthAdjust="spacing" textLength="9" x="221" y="173.7935">2</text><text fill="#000000" font-family="sans-serif" font-size="13" lengthAdjust="spacing" textLength="111" x="234" y="173.7935">execute(req, res)</text><line style="stroke:#181818;stroke-width:1.0;" x1="527" x2="574" y1="202.9922" y2="202.9922"/><line style="stroke:#181818;stroke-width:1.0;" x1="574" x2="574" y1="202.9922" y2="215.9922"/><line style="stroke:#181818;stroke-width:1.0;" x1="533" x2="574" y1="215.9922" y2="215.9922"/><polygon fill="#181818" points="543,211.9922,533,215.9922,543,219.9922,539,215.9922" style="stroke:#181818;stroke-width:1.0;"/><text fill="#000000" font-family="sans-serif" font-size="13" font-weight="bold" lengthAdjust="spacing" textLength="8" x="539" y="197.9263">3</text><text fill="#000000" font-family="sans-serif" font-size="13" lengthAdjust="spacing" textLength="135" x="551" y="197.9263">executeImp(req, res)</text><polygon fill="#181818" points="749.5,246.125,759.5,250.125,749.5,254.125,753.5,250.125" style="stroke:#181818;stroke-width:1.0;"/><line style="stroke:#181818;stroke-width:1.0;" x1="532" x2="755.5" y1="250.125" y2="250.125"/><text fill="#000000" font-family="sans-serif" font-size="13" font-weight="bold" lengthAdjust="spacing" textLength="9" x="539" y="245.0591">4</text><text fill="#000000" font-family="sans-serif" font-size="13" lengthAdjust="spacing" textLength="37" x="552" y="245.0591">new()</text><rect fill="#E3E3E3" height="30.2969" rx="2.5" ry="2.5" style="stroke:#181818;stroke-width:0.5;" width="223" x="761.5" y="228.9922"/><text fill="#000000" font-family="sans-serif" font-size="14" lengthAdjust="spacing" textLength="209" x="768.5" y="248.9873">dto:GetStatisticsByDateDTO</text><polygon fill="#181818" points="1090,287.4219,1100,291.4219,1090,295.4219,1094,291.4219" style="stroke:#181818;stroke-width:1.0;"/><line style="stroke:#181818;stroke-width:1.0;" x1="532" x2="1096" y1="291.4219" y2="291.4219"/><text fill="#000000" font-family="sans-serif" font-size="13" font-weight="bold" lengthAdjust="spacing" textLength="9" x="539" y="286.356">5</text><text fill="#000000" font-family="sans-serif" font-size="13" lengthAdjust="spacing" textLength="83" x="552" y="286.356">execute(dto)</text><polygon fill="#181818" points="1292.5,316.5547,1302.5,320.5547,1292.5,324.5547,1296.5,320.5547" style="stroke:#181818;stroke-width:1.0;"/><line style="stroke:#181818;stroke-width:1.0;" x1="1112" x2="1298.5" y1="320.5547" y2="320.5547"/><text fill="#000000" font-family="sans-serif" font-size="13" font-weight="bold" lengthAdjust="spacing" textLength="9" x="1119" y="315.4888">6</text><text fill="#000000" font-family="sans-serif" font-size="13" lengthAdjust="spacing" textLength="118" x="1132" y="315.4888">getStatistics(date)</text><polygon fill="#181818" points="1515.5,345.6875,1525.5,349.6875,1515.5,353.6875,1519.5,349.6875" style="stroke:#181818;stroke-width:1.0;"/><line style="stroke:#181818;stroke-width:1.0;" x1="1314.5" x2="1521.5" y1="349.6875" y2="349.6875"/><text fill="#000000" font-family="sans-serif" font-size="13" font-weight="bold" lengthAdjust="spacing" textLength="9" x="1321.5" y="344.6216">7</text><text fill="#000000" font-family="sans-serif" font-size="13" lengthAdjust="spacing" textLength="181" x="1334.5" y="344.6216">averageCommentsPerDay()</text><polygon fill="#181818" points="1325.5,374.8203,1315.5,378.8203,1325.5,382.8203,1321.5,378.8203" style="stroke:#181818;stroke-width:1.0;"/><line style="stroke:#181818;stroke-width:1.0;" x1="1319.5" x2="1531.5" y1="378.8203" y2="378.8203"/><text fill="#000000" font-family="sans-serif" font-size="13" font-weight="bold" lengthAdjust="spacing" textLength="9" x="1331.5" y="373.7544">8</text><text fill="#000000" font-family="sans-serif" font-size="13" lengthAdjust="spacing" textLength="116" x="1344.5" y="373.7544">averageResponse</text><polygon fill="#181818" points="1123,403.9531,1113,407.9531,1123,411.9531,1119,407.9531" style="stroke:#181818;stroke-width:1.0;"/><line style="stroke:#181818;stroke-width:1.0;stroke-dasharray:2.0,2.0;" x1="1117" x2="1308.5" y1="407.9531" y2="407.9531"/><text fill="#000000" font-family="sans-serif" font-size="13" font-weight="bold" lengthAdjust="spacing" textLength="9" x="1129" y="402.8872">9</text><text fill="#000000" font-family="sans-serif" font-size="13" lengthAdjust="spacing" textLength="119" x="1142" y="402.8872">result:statisticsObj</text><polygon fill="#181818" points="543,433.0859,533,437.0859,543,441.0859,539,437.0859" style="stroke:#181818;stroke-width:1.0;"/><line style="stroke:#181818;stroke-width:1.0;stroke-dasharray:2.0,2.0;" x1="537" x2="1106" y1="437.0859" y2="437.0859"/><text fill="#000000" font-family="sans-serif" font-size="13" font-weight="bold" lengthAdjust="spacing" textLength="19" x="549" y="432.02">10</text><text fill="#000000" font-family="sans-serif" font-size="13" lengthAdjust="spacing" textLength="83" x="572" y="432.02">OK(stats.obj)</text><line style="stroke:#181818;stroke-width:1.0;stroke-dasharray:2.0,2.0;" x1="532" x2="574" y1="471.2188" y2="471.2188"/><line style="stroke:#181818;stroke-width:1.0;stroke-dasharray:2.0,2.0;" x1="574" x2="574" y1="471.2188" y2="484.2188"/><line style="stroke:#181818;stroke-width:1.0;stroke-dasharray:2.0,2.0;" x1="527" x2="574" y1="484.2188" y2="484.2188"/><polygon fill="#181818" points="537,480.2188,527,484.2188,537,488.2188,533,484.2188" style="stroke:#181818;stroke-width:1.0;"/><text fill="#000000" font-family="sans-serif" font-size="13" font-weight="bold" lengthAdjust="spacing" textLength="18" x="539" y="466.1528">11</text><text fill="#000000" font-family="sans-serif" font-size="13" lengthAdjust="spacing" textLength="4" x="561" y="466.1528">&#160;</text><polygon fill="#181818" points="225,504.3516,215,508.3516,225,512.3516,221,508.3516" style="stroke:#181818;stroke-width:1.0;"/><line style="stroke:#181818;stroke-width:1.0;stroke-dasharray:2.0,2.0;" x1="219" x2="521" y1="508.3516" y2="508.3516"/><text fill="#000000" font-family="sans-serif" font-size="13" font-weight="bold" lengthAdjust="spacing" textLength="18" x="231" y="503.2856">12</text><text fill="#000000" font-family="sans-serif" font-size="13" lengthAdjust="spacing" textLength="105" x="253" y="503.2856">Response(stats)</text><polygon fill="#181818" points="49,533.4844,39,537.4844,49,541.4844,45,537.4844" style="stroke:#181818;stroke-width:1.0;"/><line style="stroke:#181818;stroke-width:1.0;stroke-dasharray:2.0,2.0;" x1="43" x2="208" y1="537.4844" y2="537.4844"/><text fill="#000000" font-family="sans-serif" font-size="13" font-weight="bold" lengthAdjust="spacing" textLength="17" x="55" y="532.4185">13</text><text fill="#000000" font-family="sans-serif" font-size="13" lengthAdjust="spacing" textLength="97" x="76" y="532.4185">STATUS 200 ok</text><!--SRC=[fLDDRzim3BthLn3PnGQMDHkmYmy3sdWeYct8K2S_G94PHuqjkPBSBlz-z5SiRuQpOhw8flWUAVBHdgGgkU4555ffSJIwG72cGcOlDoKN9vvXuiuvWa7XkCfoFy0UUQfVfShWm7EBZ5TEgwhOes7CIKUe19yhL08XbZoh8K4IXx24NRBw-9dEsnSqb0Bq0OGk2bJEma4Ru61B5F8W1QJyp1WNZhoB7rYJBu1RQ4r6XJWfPCcLWqLbqJpgog69sgE9t5syu-WCNUAuavPSzkuSSuThhPpHUKu4ztEt3Uzin3XLwlGKORpTD4nq_TT3rjpY5AO1TFSJhyTIHm-xpkfZcvzniBtGHjqCck31tVHSlb36ljMiFM7vnMjf1FTVjt0pu6wYb303sEi-6-oQPBP_4U0l51GQ67n-J-gpuS0vttasU_tFYH-AyisvuTrtcHtTNKvxn8J16b0FTnv49TK20OMlGSYk1_VgkBI8q5w5lJZewymErAfZ9FkW7bR8Hk1MBQot2Ek9XRTYMNVB-XDDpC-1bzrJq63w-Jk6HxIbLbHcYbFO8Rt_O1f5bRjeYDlidto2KVKrP7bzt9jlGSrdF-ZzKpX9DlQrlRqof6jfmIVzBpd_iOrzMzitXMz8uoydaRRB7a6olTtk4lYqMe4-ZShsDjlpjhZV]--></g></svg>