<?xml version="1.0" encoding="us-ascii" standalone="no"?><svg xmlns="http://www.w3.org/2000/svg" xmlns:xlink="http://www.w3.org/1999/xlink" contentStyleType="text/css" height="394px" preserveAspectRatio="none" style="width:671px;height:394px;background:#FFFFFF;" version="1.1" viewBox="0 0 671 394" width="671px" zoomAndPan="magnify"><defs/><g><text fill="#000000" font-family="sans-serif" font-size="14" font-weight="bold" lengthAdjust="spacing" textLength="643" x="10" y="27.9951">System Sequence Diagram (SSD) - Alternative 1 - Member replies to a comment</text><rect fill="#FFFFFF" height="166.7969" style="stroke:#181818;stroke-width:1.0;" width="10" x="173.5" y="128.5938"/><rect fill="#FFFFFF" height="29.1328" style="stroke:#181818;stroke-width:1.0;" width="10" x="479.5" y="149.7266"/><rect fill="#FFFFFF" height="29.1328" style="stroke:#181818;stroke-width:1.0;" width="10" x="479.5" y="207.9922"/><rect fill="#FFFFFF" height="29.1328" style="stroke:#181818;stroke-width:1.0;" width="10" x="479.5" y="266.2578"/><line style="stroke:#181818;stroke-width:0.5;stroke-dasharray:5.0,5.0;" x1="178.5" x2="178.5" y1="118.5938" y2="313.3906"/><line style="stroke:#181818;stroke-width:0.5;stroke-dasharray:5.0,5.0;" x1="484.5" x2="484.5" y1="118.5938" y2="313.3906"/><text fill="#000000" font-family="sans-serif" font-size="14" lengthAdjust="spacing" textLength="60" x="145.5" y="115.292">Member</text><ellipse cx="178.5" cy="50.7969" fill="#E3E3E3" rx="8" ry="8" style="stroke:#181818;stroke-width:0.5;"/><path d="M178.5,58.7969 L178.5,85.7969 M165.5,66.7969 L191.5,66.7969 M178.5,85.7969 L165.5,100.7969 M178.5,85.7969 L191.5,100.7969 " fill="none" style="stroke:#181818;stroke-width:0.5;"/><text fill="#000000" font-family="sans-serif" font-size="14" lengthAdjust="spacing" textLength="60" x="145.5" y="325.3857">Member</text><ellipse cx="178.5" cy="337.1875" fill="#E3E3E3" rx="8" ry="8" style="stroke:#181818;stroke-width:0.5;"/><path d="M178.5,345.1875 L178.5,372.1875 M165.5,353.1875 L191.5,353.1875 M178.5,372.1875 L165.5,387.1875 M178.5,372.1875 L191.5,387.1875 " fill="none" style="stroke:#181818;stroke-width:0.5;"/><rect fill="#E3E3E3" height="30.2969" rx="2.5" ry="2.5" style="stroke:#181818;stroke-width:0.5;" width="68" x="450.5" y="87.2969"/><text fill="#000000" font-family="sans-serif" font-size="14" lengthAdjust="spacing" textLength="54" x="457.5" y="107.292">System</text><rect fill="#E3E3E3" height="30.2969" rx="2.5" ry="2.5" style="stroke:#181818;stroke-width:0.5;" width="68" x="450.5" y="312.3906"/><text fill="#000000" font-family="sans-serif" font-size="14" lengthAdjust="spacing" textLength="54" x="457.5" y="332.3857">System</text><rect fill="#FFFFFF" height="166.7969" style="stroke:#181818;stroke-width:1.0;" width="10" x="173.5" y="128.5938"/><rect fill="#FFFFFF" height="29.1328" style="stroke:#181818;stroke-width:1.0;" width="10" x="479.5" y="149.7266"/><rect fill="#FFFFFF" height="29.1328" style="stroke:#181818;stroke-width:1.0;" width="10" x="479.5" y="207.9922"/><rect fill="#FFFFFF" height="29.1328" style="stroke:#181818;stroke-width:1.0;" width="10" x="479.5" y="266.2578"/><polygon fill="#181818" points="467.5,145.7266,477.5,149.7266,467.5,153.7266,471.5,149.7266" style="stroke:#181818;stroke-width:1.0;"/><line style="stroke:#181818;stroke-width:1.0;" x1="183.5" x2="473.5" y1="149.7266" y2="149.7266"/><text fill="#000000" font-family="sans-serif" font-size="13" font-weight="bold" lengthAdjust="spacing" textLength="9" x="190.5" y="144.6606">1</text><text fill="#000000" font-family="sans-serif" font-size="13" lengthAdjust="spacing" textLength="152" x="203.5" y="144.6606">Selects an existing post</text><polygon fill="#181818" points="194.5,174.8594,184.5,178.8594,194.5,182.8594,190.5,178.8594" style="stroke:#181818;stroke-width:1.0;"/><line style="stroke:#181818;stroke-width:1.0;stroke-dasharray:2.0,2.0;" x1="188.5" x2="483.5" y1="178.8594" y2="178.8594"/><text fill="#000000" font-family="sans-serif" font-size="13" font-weight="bold" lengthAdjust="spacing" textLength="9" x="200.5" y="173.7935">2</text><text fill="#000000" font-family="sans-serif" font-size="13" lengthAdjust="spacing" textLength="169" x="213.5" y="173.7935">Displays the selected post</text><polygon fill="#181818" points="467.5,203.9922,477.5,207.9922,467.5,211.9922,471.5,207.9922" style="stroke:#181818;stroke-width:1.0;"/><line style="stroke:#181818;stroke-width:1.0;" x1="183.5" x2="473.5" y1="207.9922" y2="207.9922"/><text fill="#000000" font-family="sans-serif" font-size="13" font-weight="bold" lengthAdjust="spacing" textLength="8" x="190.5" y="202.9263">3</text><text fill="#000000" font-family="sans-serif" font-size="13" lengthAdjust="spacing" textLength="180" x="202.5" y="202.9263">Clicks "reply" on a comment</text><polygon fill="#181818" points="194.5,233.125,184.5,237.125,194.5,241.125,190.5,237.125" style="stroke:#181818;stroke-width:1.0;"/><line style="stroke:#181818;stroke-width:1.0;stroke-dasharray:2.0,2.0;" x1="188.5" x2="483.5" y1="237.125" y2="237.125"/><text fill="#000000" font-family="sans-serif" font-size="13" font-weight="bold" lengthAdjust="spacing" textLength="9" x="200.5" y="232.0591">4</text><text fill="#000000" font-family="sans-serif" font-size="13" lengthAdjust="spacing" textLength="259" x="213.5" y="232.0591">Displays the reply page of the comment</text><polygon fill="#181818" points="467.5,262.2578,477.5,266.2578,467.5,270.2578,471.5,266.2578" style="stroke:#181818;stroke-width:1.0;"/><line style="stroke:#181818;stroke-width:1.0;" x1="183.5" x2="473.5" y1="266.2578" y2="266.2578"/><text fill="#000000" font-family="sans-serif" font-size="13" font-weight="bold" lengthAdjust="spacing" textLength="9" x="190.5" y="261.1919">5</text><text fill="#000000" font-family="sans-serif" font-size="13" lengthAdjust="spacing" textLength="248" x="203.5" y="261.1919">Types a reply and clicks "Submit reply"</text><polygon fill="#181818" points="189.5,291.3906,179.5,295.3906,189.5,299.3906,185.5,295.3906" style="stroke:#181818;stroke-width:1.0;"/><line style="stroke:#181818;stroke-width:1.0;stroke-dasharray:2.0,2.0;" x1="183.5" x2="483.5" y1="295.3906" y2="295.3906"/><text fill="#000000" font-family="sans-serif" font-size="13" font-weight="bold" lengthAdjust="spacing" textLength="9" x="195.5" y="290.3247">6</text><text fill="#000000" font-family="sans-serif" font-size="13" lengthAdjust="spacing" textLength="184" x="208.5" y="290.3247">Displays a success message</text><!--SRC=[fP7FJiCm3CRlUGgh9pZim7K790HNJkK5lDJhekKViJles-EcsPW4GW9yg9hayy_Vb_3HnOm50uGKapsK50YaJ6JuSfBH7d6aNcPFKCWAnj5V2_Y0GtfpSOGzUYPZn8bA-vc50lJqEb6q14yEnqL-q_TFjx211ozK8eex4Tpf-fd2ZefEoDuHWoH0i2a4Yc8CJfBYL0Mwi98AT6j31yYjrwWVSTPbZ0BTEhyUhx-rqPrGwAmteDNcRkwRRAkMlSPam0ZqxbYMQ3cnLFc5SOP2gvPtew0LkTN8d3tE6kP0m9LAmoTggO6-1NurzUYTFJ9qo_tC7QHuTJt_ybM1-ieZGThNdOQ5tvjycRC-7JOcnW5iizrFk-04clk_EqRWoLfYXg0VDVsJoQkj5VG1]--></g></svg>