<?xml version="1.0" encoding="us-ascii" standalone="no"?><svg xmlns="http://www.w3.org/2000/svg" xmlns:xlink="http://www.w3.org/1999/xlink" contentStyleType="text/css" height="394px" preserveAspectRatio="none" style="width:794px;height:394px;background:#FFFFFF;" version="1.1" viewBox="0 0 794 394" width="794px" zoomAndPan="magnify"><defs/><g><text fill="#000000" font-family="sans-serif" font-size="14" font-weight="bold" lengthAdjust="spacing" textLength="766" x="10" y="27.9951">System Sequence Diagram (SSD) - Alternative 2 - Member replies to a comment via timestamp</text><rect fill="#FFFFFF" height="166.7969" style="stroke:#181818;stroke-width:1.0;" width="10" x="242.5" y="128.5938"/><rect fill="#FFFFFF" height="29.1328" style="stroke:#181818;stroke-width:1.0;" width="10" x="533.5" y="149.7266"/><rect fill="#FFFFFF" height="29.1328" style="stroke:#181818;stroke-width:1.0;" width="10" x="533.5" y="207.9922"/><rect fill="#FFFFFF" height="29.1328" style="stroke:#181818;stroke-width:1.0;" width="10" x="533.5" y="266.2578"/><line style="stroke:#181818;stroke-width:0.5;stroke-dasharray:5.0,5.0;" x1="247.5" x2="247.5" y1="118.5938" y2="313.3906"/><line style="stroke:#181818;stroke-width:0.5;stroke-dasharray:5.0,5.0;" x1="538.5" x2="538.5" y1="118.5938" y2="313.3906"/><text fill="#000000" font-family="sans-serif" font-size="14" lengthAdjust="spacing" textLength="60" x="214.5" y="115.292">Member</text><ellipse cx="247.5" cy="50.7969" fill="#E3E3E3" rx="8" ry="8" style="stroke:#181818;stroke-width:0.5;"/><path d="M247.5,58.7969 L247.5,85.7969 M234.5,66.7969 L260.5,66.7969 M247.5,85.7969 L234.5,100.7969 M247.5,85.7969 L260.5,100.7969 " fill="none" style="stroke:#181818;stroke-width:0.5;"/><text fill="#000000" font-family="sans-serif" font-size="14" lengthAdjust="spacing" textLength="60" x="214.5" y="325.3857">Member</text><ellipse cx="247.5" cy="337.1875" fill="#E3E3E3" rx="8" ry="8" style="stroke:#181818;stroke-width:0.5;"/><path d="M247.5,345.1875 L247.5,372.1875 M234.5,353.1875 L260.5,353.1875 M247.5,372.1875 L234.5,387.1875 M247.5,372.1875 L260.5,387.1875 " fill="none" style="stroke:#181818;stroke-width:0.5;"/><rect fill="#E3E3E3" height="30.2969" rx="2.5" ry="2.5" style="stroke:#181818;stroke-width:0.5;" width="68" x="504.5" y="87.2969"/><text fill="#000000" font-family="sans-serif" font-size="14" lengthAdjust="spacing" textLength="54" x="511.5" y="107.292">System</text><rect fill="#E3E3E3" height="30.2969" rx="2.5" ry="2.5" style="stroke:#181818;stroke-width:0.5;" width="68" x="504.5" y="312.3906"/><text fill="#000000" font-family="sans-serif" font-size="14" lengthAdjust="spacing" textLength="54" x="511.5" y="332.3857">System</text><rect fill="#FFFFFF" height="166.7969" style="stroke:#181818;stroke-width:1.0;" width="10" x="242.5" y="128.5938"/><rect fill="#FFFFFF" height="29.1328" style="stroke:#181818;stroke-width:1.0;" width="10" x="533.5" y="149.7266"/><rect fill="#FFFFFF" height="29.1328" style="stroke:#181818;stroke-width:1.0;" width="10" x="533.5" y="207.9922"/><rect fill="#FFFFFF" height="29.1328" style="stroke:#181818;stroke-width:1.0;" width="10" x="533.5" y="266.2578"/><polygon fill="#181818" points="521.5,145.7266,531.5,149.7266,521.5,153.7266,525.5,149.7266" style="stroke:#181818;stroke-width:1.0;"/><line style="stroke:#181818;stroke-width:1.0;" x1="252.5" x2="527.5" y1="149.7266" y2="149.7266"/><text fill="#000000" font-family="sans-serif" font-size="13" font-weight="bold" lengthAdjust="spacing" textLength="9" x="259.5" y="144.6606">1</text><text fill="#000000" font-family="sans-serif" font-size="13" lengthAdjust="spacing" textLength="152" x="272.5" y="144.6606">Selects an existing post</text><polygon fill="#181818" points="263.5,174.8594,253.5,178.8594,263.5,182.8594,259.5,178.8594" style="stroke:#181818;stroke-width:1.0;"/><line style="stroke:#181818;stroke-width:1.0;stroke-dasharray:2.0,2.0;" x1="257.5" x2="537.5" y1="178.8594" y2="178.8594"/><text fill="#000000" font-family="sans-serif" font-size="13" font-weight="bold" lengthAdjust="spacing" textLength="9" x="269.5" y="173.7935">2</text><text fill="#000000" font-family="sans-serif" font-size="13" lengthAdjust="spacing" textLength="169" x="282.5" y="173.7935">Displays the selected post</text><polygon fill="#181818" points="521.5,203.9922,531.5,207.9922,521.5,211.9922,525.5,207.9922" style="stroke:#181818;stroke-width:1.0;"/><line style="stroke:#181818;stroke-width:1.0;" x1="252.5" x2="527.5" y1="207.9922" y2="207.9922"/><text fill="#000000" font-family="sans-serif" font-size="13" font-weight="bold" lengthAdjust="spacing" textLength="8" x="259.5" y="202.9263">3</text><text fill="#000000" font-family="sans-serif" font-size="13" lengthAdjust="spacing" textLength="250" x="271.5" y="202.9263">Clicks on the timestamp of a comment</text><polygon fill="#181818" points="263.5,233.125,253.5,237.125,263.5,241.125,259.5,237.125" style="stroke:#181818;stroke-width:1.0;"/><line style="stroke:#181818;stroke-width:1.0;stroke-dasharray:2.0,2.0;" x1="257.5" x2="537.5" y1="237.125" y2="237.125"/><text fill="#000000" font-family="sans-serif" font-size="13" font-weight="bold" lengthAdjust="spacing" textLength="9" x="269.5" y="232.0591">4</text><text fill="#000000" font-family="sans-serif" font-size="13" lengthAdjust="spacing" textLength="145" x="282.5" y="232.0591">Displays the comment</text><polygon fill="#181818" points="521.5,262.2578,531.5,266.2578,521.5,270.2578,525.5,266.2578" style="stroke:#181818;stroke-width:1.0;"/><line style="stroke:#181818;stroke-width:1.0;" x1="252.5" x2="527.5" y1="266.2578" y2="266.2578"/><text fill="#000000" font-family="sans-serif" font-size="13" font-weight="bold" lengthAdjust="spacing" textLength="9" x="259.5" y="261.1919">5</text><text fill="#000000" font-family="sans-serif" font-size="13" lengthAdjust="spacing" textLength="248" x="272.5" y="261.1919">Types a reply and clicks "Submit reply"</text><polygon fill="#181818" points="258.5,291.3906,248.5,295.3906,258.5,299.3906,254.5,295.3906" style="stroke:#181818;stroke-width:1.0;"/><line style="stroke:#181818;stroke-width:1.0;stroke-dasharray:2.0,2.0;" x1="252.5" x2="537.5" y1="295.3906" y2="295.3906"/><text fill="#000000" font-family="sans-serif" font-size="13" font-weight="bold" lengthAdjust="spacing" textLength="9" x="264.5" y="290.3247">6</text><text fill="#000000" font-family="sans-serif" font-size="13" lengthAdjust="spacing" textLength="184" x="277.5" y="290.3247">Displays a success message</text><!--SRC=[fPBDJiCm48JlVefLJd3eXMCFI8XUEOKNs3hRrAh_y6uAUNksTXegWP0GFiNnx9UPSVZaOiQ20KAAoHvB2WHI9ZAydcIq9nofbzaJ5BA2SVIt0ZxYaDvT7E60diaOSQBIVcQX03szJHGjmSxXU97VzVtk7ZRmv8LAH75dWWVTlr3OKz4lPE-8GH8Ws1G2HO6pGn0NY0L3DWOdIN6gSjrOIGMwDju1ya8owawSTHaLq3KtzRWzra5tHg6hte2knSNcSP5jDO3Nq0mOWJuSooLeJYnGzIlaIeLbBV4tIchChJR0sUEisOu4NB4qLDOwDT2FmE-kdhsp9uOKAspj1jBXgxR_6Rns_tTlhtFM2yHwbRFsDe1jRhj-sWSdxQ3xHu48F5bBpA2vMV_EtqpUl6gWJm00]--></g></svg>