<?xml version="1.0" encoding="us-ascii" standalone="no"?><svg xmlns="http://www.w3.org/2000/svg" xmlns:xlink="http://www.w3.org/1999/xlink" contentStyleType="text/css" height="1063px" preserveAspectRatio="none" style="width:2596px;height:1063px;background:#FFFFFF;" version="1.1" viewBox="0 0 2596 1063" width="2596px" zoomAndPan="magnify"><defs/><g><text fill="#000000" font-family="sans-serif" font-size="14" font-weight="bold" lengthAdjust="spacing" textLength="643" x="972.5" y="27.9951">Sequence Diagram (SD) - US007 - Upvote an already upvoted post by same user</text><rect fill="#FFFFFF" height="836.1094" style="stroke:#181818;stroke-width:1.0;" width="10" x="33" y="128.5938"/><rect fill="#FFFFFF" height="814.9766" style="stroke:#181818;stroke-width:1.0;" width="10" x="289" y="149.7266"/><rect fill="#FFFFFF" height="756.7109" style="stroke:#181818;stroke-width:1.0;" width="10" x="540" y="178.8594"/><rect fill="#CCCCCC" height="683.4453" style="stroke:#181818;stroke-width:1.0;" width="10" x="545" y="215.9922"/><rect fill="#FFFFFF" height="29.1328" style="stroke:#181818;stroke-width:1.0;" width="10" x="793.5" y="320.5547"/><rect fill="#FFFFFF" height="286.5234" style="stroke:#181818;stroke-width:1.0;" width="10" x="961.5" y="291.4219"/><rect fill="#FFFFFF" height="70.4297" style="stroke:#181818;stroke-width:1.0;" width="10" x="1181.5" y="378.8203"/><rect fill="#FFFFFF" height="70.4297" style="stroke:#181818;stroke-width:1.0;" width="10" x="1540" y="478.3828"/><rect fill="#FFFFFF" height="29.1328" style="stroke:#181818;stroke-width:1.0;" width="10" x="1540" y="800.0391"/><rect fill="#FFFFFF" height="70.4297" style="stroke:#181818;stroke-width:1.0;" width="10" x="1839" y="577.9453"/><rect fill="#FFFFFF" height="29.1328" style="stroke:#181818;stroke-width:1.0;" width="10" x="2114.5" y="677.5078"/><rect fill="#FFFFFF" height="32.1328" style="stroke:#181818;stroke-width:1.0;" width="10" x="2114.5" y="735.7734"/><rect fill="#FFFFFF" height="29.1328" style="stroke:#181818;stroke-width:1.0;" width="10" x="2377" y="648.375"/><rect fill="#FFFFFF" height="32.1328" style="stroke:#181818;stroke-width:1.0;" width="10" x="2377" y="767.9063"/><rect fill="#FFFFFF" height="32.1328" style="stroke:#181818;stroke-width:1.0;" width="10" x="2377" y="829.1719"/><rect fill="#FFFFFF" height="29.1328" style="stroke:#181818;stroke-width:1.0;" width="10" x="2529" y="706.6406"/><line style="stroke:#181818;stroke-width:0.5;stroke-dasharray:5.0,5.0;" x1="38" x2="38" y1="118.5938" y2="982.7031"/><line style="stroke:#181818;stroke-width:0.5;stroke-dasharray:5.0,5.0;" x1="294" x2="294" y1="118.5938" y2="982.7031"/><line style="stroke:#181818;stroke-width:0.5;stroke-dasharray:5.0,5.0;" x1="545" x2="545" y1="118.5938" y2="982.7031"/><line style="stroke:#181818;stroke-width:0.5;stroke-dasharray:5.0,5.0;" x1="798" x2="798" y1="259.6406" y2="982.7031"/><line style="stroke:#181818;stroke-width:0.5;stroke-dasharray:5.0,5.0;" x1="966" x2="966" y1="118.5938" y2="982.7031"/><line style="stroke:#181818;stroke-width:0.5;stroke-dasharray:5.0,5.0;" x1="1186" x2="1186" y1="118.5938" y2="982.7031"/><line style="stroke:#181818;stroke-width:0.5;stroke-dasharray:5.0,5.0;" x1="1377" x2="1377" y1="417.4688" y2="982.7031"/><line style="stroke:#181818;stroke-width:0.5;stroke-dasharray:5.0,5.0;" x1="1545" x2="1545" y1="118.5938" y2="982.7031"/><line style="stroke:#181818;stroke-width:0.5;stroke-dasharray:5.0,5.0;" x1="1684" x2="1684" y1="517.0313" y2="982.7031"/><line style="stroke:#181818;stroke-width:0.5;stroke-dasharray:5.0,5.0;" x1="1844" x2="1844" y1="118.5938" y2="982.7031"/><line style="stroke:#181818;stroke-width:0.5;stroke-dasharray:5.0,5.0;" x1="2119" x2="2119" y1="616.5938" y2="982.7031"/><line style="stroke:#181818;stroke-width:0.5;stroke-dasharray:5.0,5.0;" x1="2382" x2="2382" y1="118.5938" y2="982.7031"/><line style="stroke:#181818;stroke-width:0.5;stroke-dasharray:5.0,5.0;" x1="2534" x2="2534" y1="118.5938" y2="982.7031"/><text fill="#000000" font-family="sans-serif" font-size="14" lengthAdjust="spacing" textLength="60" x="5" y="115.292">Member</text><ellipse cx="38" cy="50.7969" fill="#E3E3E3" rx="8" ry="8" style="stroke:#181818;stroke-width:0.5;"/><path d="M38,58.7969 L38,85.7969 M25,66.7969 L51,66.7969 M38,85.7969 L25,100.7969 M38,85.7969 L51,100.7969 " fill="none" style="stroke:#181818;stroke-width:0.5;"/><text fill="#000000" font-family="sans-serif" font-size="14" lengthAdjust="spacing" textLength="60" x="5" y="994.6982">Member</text><ellipse cx="38" cy="1006.5" fill="#E3E3E3" rx="8" ry="8" style="stroke:#181818;stroke-width:0.5;"/><path d="M38,1014.5 L38,1041.5 M25,1022.5 L51,1022.5 M38,1041.5 L25,1056.5 M38,1041.5 L51,1056.5 " fill="none" style="stroke:#181818;stroke-width:0.5;"/><rect fill="#E3E3E3" height="30.2969" rx="2.5" ry="2.5" style="stroke:#181818;stroke-width:0.5;" width="150" x="219" y="87.2969"/><text fill="#000000" font-family="sans-serif" font-size="14" lengthAdjust="spacing" textLength="136" x="226" y="107.292">postRouter:Router</text><rect fill="#E3E3E3" height="30.2969" rx="2.5" ry="2.5" style="stroke:#181818;stroke-width:0.5;" width="150" x="219" y="981.7031"/><text fill="#000000" font-family="sans-serif" font-size="14" lengthAdjust="spacing" textLength="136" x="226" y="1001.6982">postRouter:Router</text><rect fill="#E3E3E3" height="30.2969" rx="2.5" ry="2.5" style="stroke:#181818;stroke-width:0.5;" width="332" x="379" y="87.2969"/><text fill="#000000" font-family="sans-serif" font-size="14" lengthAdjust="spacing" textLength="318" x="386" y="107.292">upvotePostController:UpvotePostController</text><rect fill="#E3E3E3" height="30.2969" rx="2.5" ry="2.5" style="stroke:#181818;stroke-width:0.5;" width="332" x="379" y="981.7031"/><text fill="#000000" font-family="sans-serif" font-size="14" lengthAdjust="spacing" textLength="318" x="386" y="1001.6982">upvotePostController:UpvotePostController</text><rect fill="#E3E3E3" height="30.2969" rx="2.5" ry="2.5" style="stroke:#181818;stroke-width:0.5;" width="155" x="721" y="981.7031"/><text fill="#000000" font-family="sans-serif" font-size="14" lengthAdjust="spacing" textLength="141" x="728" y="1001.6982">dto:UpvotePostDto</text><rect fill="#E3E3E3" height="30.2969" rx="2.5" ry="2.5" style="stroke:#181818;stroke-width:0.5;" width="161" x="886" y="87.2969"/><text fill="#000000" font-family="sans-serif" font-size="14" lengthAdjust="spacing" textLength="147" x="893" y="107.292">useCase:UpvotePost</text><rect fill="#E3E3E3" height="30.2969" rx="2.5" ry="2.5" style="stroke:#181818;stroke-width:0.5;" width="161" x="886" y="981.7031"/><text fill="#000000" font-family="sans-serif" font-size="14" lengthAdjust="spacing" textLength="147" x="893" y="1001.6982">useCase:UpvotePost</text><rect fill="#E3E3E3" height="30.2969" rx="2.5" ry="2.5" style="stroke:#181818;stroke-width:0.5;" width="221" x="1076" y="87.2969"/><text fill="#000000" font-family="sans-serif" font-size="14" lengthAdjust="spacing" textLength="207" x="1083" y="107.292">memberRepo:IMemberRepo</text><rect fill="#E3E3E3" height="30.2969" rx="2.5" ry="2.5" style="stroke:#181818;stroke-width:0.5;" width="221" x="1076" y="981.7031"/><text fill="#000000" font-family="sans-serif" font-size="14" lengthAdjust="spacing" textLength="207" x="1083" y="1001.6982">memberRepo:IMemberRepo</text><rect fill="#E3E3E3" height="30.2969" rx="2.5" ry="2.5" style="stroke:#181818;stroke-width:0.5;" width="141" x="1307" y="981.7031"/><text fill="#000000" font-family="sans-serif" font-size="14" lengthAdjust="spacing" textLength="127" x="1314" y="1001.6982">member:Member</text><rect fill="#E3E3E3" height="30.2969" rx="2.5" ry="2.5" style="stroke:#181818;stroke-width:0.5;" width="174" x="1458" y="87.2969"/><text fill="#000000" font-family="sans-serif" font-size="14" lengthAdjust="spacing" textLength="160" x="1465" y="107.292">postRepo:UpvotePost</text><rect fill="#E3E3E3" height="30.2969" rx="2.5" ry="2.5" style="stroke:#181818;stroke-width:0.5;" width="174" x="1458" y="981.7031"/><text fill="#000000" font-family="sans-serif" font-size="14" lengthAdjust="spacing" textLength="160" x="1465" y="1001.6982">postRepo:UpvotePost</text><rect fill="#E3E3E3" height="30.2969" rx="2.5" ry="2.5" style="stroke:#181818;stroke-width:0.5;" width="84" x="1642" y="981.7031"/><text fill="#000000" font-family="sans-serif" font-size="14" lengthAdjust="spacing" textLength="70" x="1649" y="1001.6982">post:Post</text><rect fill="#E3E3E3" height="30.2969" rx="2.5" ry="2.5" style="stroke:#181818;stroke-width:0.5;" width="216" x="1736" y="87.2969"/><text fill="#000000" font-family="sans-serif" font-size="14" lengthAdjust="spacing" textLength="202" x="1743" y="107.292">postVotesRepo:UpvotePost</text><rect fill="#E3E3E3" height="30.2969" rx="2.5" ry="2.5" style="stroke:#181818;stroke-width:0.5;" width="216" x="1736" y="981.7031"/><text fill="#000000" font-family="sans-serif" font-size="14" lengthAdjust="spacing" textLength="202" x="1743" y="1001.6982">postVotesRepo:UpvotePost</text><rect fill="#E3E3E3" height="30.2969" rx="2.5" ry="2.5" style="stroke:#181818;stroke-width:0.5;" width="315" x="1962" y="981.7031"/><text fill="#000000" font-family="sans-serif" font-size="14" lengthAdjust="spacing" textLength="301" x="1969" y="1001.6982">existingVotesOnPostByMember:PostVote</text><rect fill="#E3E3E3" height="30.2969" rx="2.5" ry="2.5" style="stroke:#181818;stroke-width:0.5;" width="190" x="2287" y="87.2969"/><text fill="#000000" font-family="sans-serif" font-size="14" lengthAdjust="spacing" textLength="176" x="2294" y="107.292">postService:PostService</text><rect fill="#E3E3E3" height="30.2969" rx="2.5" ry="2.5" style="stroke:#181818;stroke-width:0.5;" width="190" x="2287" y="981.7031"/><text fill="#000000" font-family="sans-serif" font-size="14" lengthAdjust="spacing" textLength="176" x="2294" y="1001.6982">postService:PostService</text><rect fill="#E3E3E3" height="30.2969" rx="2.5" ry="2.5" style="stroke:#181818;stroke-width:0.5;" width="94" x="2487" y="87.2969"/><text fill="#000000" font-family="sans-serif" font-size="14" lengthAdjust="spacing" textLength="80" x="2494" y="107.292">v:PostVote</text><rect fill="#E3E3E3" height="30.2969" rx="2.5" ry="2.5" style="stroke:#181818;stroke-width:0.5;" width="94" x="2487" y="981.7031"/><text fill="#000000" font-family="sans-serif" font-size="14" lengthAdjust="spacing" textLength="80" x="2494" y="1001.6982">v:PostVote</text><rect fill="#FFFFFF" height="836.1094" style="stroke:#181818;stroke-width:1.0;" width="10" x="33" y="128.5938"/><rect fill="#FFFFFF" height="814.9766" style="stroke:#181818;stroke-width:1.0;" width="10" x="289" y="149.7266"/><rect fill="#FFFFFF" height="756.7109" style="stroke:#181818;stroke-width:1.0;" width="10" x="540" y="178.8594"/><rect fill="#CCCCCC" height="683.4453" style="stroke:#181818;stroke-width:1.0;" width="10" x="545" y="215.9922"/><rect fill="#FFFFFF" height="29.1328" style="stroke:#181818;stroke-width:1.0;" width="10" x="793.5" y="320.5547"/><rect fill="#FFFFFF" height="286.5234" style="stroke:#181818;stroke-width:1.0;" width="10" x="961.5" y="291.4219"/><rect fill="#FFFFFF" height="70.4297" style="stroke:#181818;stroke-width:1.0;" width="10" x="1181.5" y="378.8203"/><rect fill="#FFFFFF" height="70.4297" style="stroke:#181818;stroke-width:1.0;" width="10" x="1540" y="478.3828"/><rect fill="#FFFFFF" height="29.1328" style="stroke:#181818;stroke-width:1.0;" width="10" x="1540" y="800.0391"/><rect fill="#FFFFFF" height="70.4297" style="stroke:#181818;stroke-width:1.0;" width="10" x="1839" y="577.9453"/><rect fill="#FFFFFF" height="29.1328" style="stroke:#181818;stroke-width:1.0;" width="10" x="2114.5" y="677.5078"/><rect fill="#FFFFFF" height="32.1328" style="stroke:#181818;stroke-width:1.0;" width="10" x="2114.5" y="735.7734"/><rect fill="#FFFFFF" height="29.1328" style="stroke:#181818;stroke-width:1.0;" width="10" x="2377" y="648.375"/><rect fill="#FFFFFF" height="32.1328" style="stroke:#181818;stroke-width:1.0;" width="10" x="2377" y="767.9063"/><rect fill="#FFFFFF" height="32.1328" style="stroke:#181818;stroke-width:1.0;" width="10" x="2377" y="829.1719"/><rect fill="#FFFFFF" height="29.1328" style="stroke:#181818;stroke-width:1.0;" width="10" x="2529" y="706.6406"/><polygon fill="#181818" points="277,145.7266,287,149.7266,277,153.7266,281,149.7266" style="stroke:#181818;stroke-width:1.0;"/><line style="stroke:#181818;stroke-width:1.0;" x1="43" x2="283" y1="149.7266" y2="149.7266"/><text fill="#000000" font-family="sans-serif" font-size="13" font-weight="bold" lengthAdjust="spacing" textLength="9" x="50" y="144.6606">1</text><text fill="#000000" font-family="sans-serif" font-size="13" lengthAdjust="spacing" textLength="161" x="63" y="144.6606">POST /posts/:slug/upvote</text><polygon fill="#181818" points="528,174.8594,538,178.8594,528,182.8594,532,178.8594" style="stroke:#181818;stroke-width:1.0;"/><line style="stroke:#181818;stroke-width:1.0;" x1="299" x2="534" y1="178.8594" y2="178.8594"/><text fill="#000000" font-family="sans-serif" font-size="13" font-weight="bold" lengthAdjust="spacing" textLength="9" x="306" y="173.7935">2</text><text fill="#000000" font-family="sans-serif" font-size="13" lengthAdjust="spacing" textLength="111" x="319" y="173.7935">execute(req, res)</text><line style="stroke:#181818;stroke-width:1.0;" x1="550" x2="597" y1="202.9922" y2="202.9922"/><line style="stroke:#181818;stroke-width:1.0;" x1="597" x2="597" y1="202.9922" y2="215.9922"/><line style="stroke:#181818;stroke-width:1.0;" x1="556" x2="597" y1="215.9922" y2="215.9922"/><polygon fill="#181818" points="566,211.9922,556,215.9922,566,219.9922,562,215.9922" style="stroke:#181818;stroke-width:1.0;"/><text fill="#000000" font-family="sans-serif" font-size="13" font-weight="bold" lengthAdjust="spacing" textLength="8" x="562" y="197.9263">3</text><text fill="#000000" font-family="sans-serif" font-size="13" lengthAdjust="spacing" textLength="135" x="574" y="197.9263">executeImp(req, res)</text><polygon fill="#181818" points="709,246.125,719,250.125,709,254.125,713,250.125" style="stroke:#181818;stroke-width:1.0;"/><line style="stroke:#181818;stroke-width:1.0;" x1="555" x2="715" y1="250.125" y2="250.125"/><text fill="#000000" font-family="sans-serif" font-size="13" font-weight="bold" lengthAdjust="spacing" textLength="9" x="562" y="245.0591">4</text><text fill="#000000" font-family="sans-serif" font-size="13" lengthAdjust="spacing" textLength="37" x="575" y="245.0591">new()</text><rect fill="#E3E3E3" height="30.2969" rx="2.5" ry="2.5" style="stroke:#181818;stroke-width:0.5;" width="155" x="721" y="228.9922"/><text fill="#000000" font-family="sans-serif" font-size="14" lengthAdjust="spacing" textLength="141" x="728" y="248.9873">dto:UpvotePostDto</text><polygon fill="#181818" points="949.5,287.4219,959.5,291.4219,949.5,295.4219,953.5,291.4219" style="stroke:#181818;stroke-width:1.0;"/><line style="stroke:#181818;stroke-width:1.0;" x1="555" x2="955.5" y1="291.4219" y2="291.4219"/><text fill="#000000" font-family="sans-serif" font-size="13" font-weight="bold" lengthAdjust="spacing" textLength="9" x="562" y="286.356">5</text><text fill="#000000" font-family="sans-serif" font-size="13" lengthAdjust="spacing" textLength="83" x="575" y="286.356">execute(dto)</text><polygon fill="#181818" points="814.5,316.5547,804.5,320.5547,814.5,324.5547,810.5,320.5547" style="stroke:#181818;stroke-width:1.0;"/><line style="stroke:#181818;stroke-width:1.0;stroke-dasharray:2.0,2.0;" x1="808.5" x2="960.5" y1="320.5547" y2="320.5547"/><text fill="#000000" font-family="sans-serif" font-size="13" font-weight="bold" lengthAdjust="spacing" textLength="9" x="820.5" y="315.4888">6</text><text fill="#000000" font-family="sans-serif" font-size="13" lengthAdjust="spacing" textLength="64" x="833.5" y="315.4888">get userId</text><polygon fill="#181818" points="949.5,345.6875,959.5,349.6875,949.5,353.6875,953.5,349.6875" style="stroke:#181818;stroke-width:1.0;"/><line style="stroke:#181818;stroke-width:1.0;" x1="798.5" x2="955.5" y1="349.6875" y2="349.6875"/><text fill="#000000" font-family="sans-serif" font-size="13" font-weight="bold" lengthAdjust="spacing" textLength="9" x="805.5" y="344.6216">7</text><text fill="#000000" font-family="sans-serif" font-size="13" lengthAdjust="spacing" textLength="70" x="818.5" y="344.6216">give userId</text><polygon fill="#181818" points="1169.5,374.8203,1179.5,378.8203,1169.5,382.8203,1173.5,378.8203" style="stroke:#181818;stroke-width:1.0;"/><line style="stroke:#181818;stroke-width:1.0;" x1="971.5" x2="1175.5" y1="378.8203" y2="378.8203"/><text fill="#000000" font-family="sans-serif" font-size="13" font-weight="bold" lengthAdjust="spacing" textLength="9" x="978.5" y="373.7544">8</text><text fill="#000000" font-family="sans-serif" font-size="13" lengthAdjust="spacing" textLength="178" x="991.5" y="373.7544">getMemberByUserId(userId)</text><polygon fill="#181818" points="1295,403.9531,1305,407.9531,1295,411.9531,1299,407.9531" style="stroke:#181818;stroke-width:1.0;"/><line style="stroke:#181818;stroke-width:1.0;" x1="1191.5" x2="1301" y1="407.9531" y2="407.9531"/><text fill="#000000" font-family="sans-serif" font-size="13" font-weight="bold" lengthAdjust="spacing" textLength="9" x="1198.5" y="402.8872">9</text><text fill="#000000" font-family="sans-serif" font-size="13" lengthAdjust="spacing" textLength="37" x="1211.5" y="402.8872">new()</text><rect fill="#E3E3E3" height="30.2969" rx="2.5" ry="2.5" style="stroke:#181818;stroke-width:0.5;" width="141" x="1307" y="386.8203"/><text fill="#000000" font-family="sans-serif" font-size="14" lengthAdjust="spacing" textLength="127" x="1314" y="406.8154">member:Member</text><polygon fill="#181818" points="982.5,445.25,972.5,449.25,982.5,453.25,978.5,449.25" style="stroke:#181818;stroke-width:1.0;"/><line style="stroke:#181818;stroke-width:1.0;stroke-dasharray:2.0,2.0;" x1="976.5" x2="1185.5" y1="449.25" y2="449.25"/><text fill="#000000" font-family="sans-serif" font-size="13" font-weight="bold" lengthAdjust="spacing" textLength="19" x="988.5" y="444.1841">10</text><text fill="#000000" font-family="sans-serif" font-size="13" lengthAdjust="spacing" textLength="66" x="1011.5" y="444.1841">memberId</text><polygon fill="#181818" points="1528,474.3828,1538,478.3828,1528,482.3828,1532,478.3828" style="stroke:#181818;stroke-width:1.0;"/><line style="stroke:#181818;stroke-width:1.0;" x1="971.5" x2="1534" y1="478.3828" y2="478.3828"/><text fill="#000000" font-family="sans-serif" font-size="13" font-weight="bold" lengthAdjust="spacing" textLength="18" x="978.5" y="473.3169">11</text><text fill="#000000" font-family="sans-serif" font-size="13" lengthAdjust="spacing" textLength="128" x="1000.5" y="473.3169">getPostBySlug(slug)</text><polygon fill="#181818" points="1630,503.5156,1640,507.5156,1630,511.5156,1634,507.5156" style="stroke:#181818;stroke-width:1.0;"/><line style="stroke:#181818;stroke-width:1.0;" x1="1550" x2="1636" y1="507.5156" y2="507.5156"/><text fill="#000000" font-family="sans-serif" font-size="13" font-weight="bold" lengthAdjust="spacing" textLength="18" x="1557" y="502.4497">12</text><text fill="#000000" font-family="sans-serif" font-size="13" lengthAdjust="spacing" textLength="37" x="1579" y="502.4497">new()</text><rect fill="#E3E3E3" height="30.2969" rx="2.5" ry="2.5" style="stroke:#181818;stroke-width:0.5;" width="84" x="1642" y="486.3828"/><text fill="#000000" font-family="sans-serif" font-size="14" lengthAdjust="spacing" textLength="70" x="1649" y="506.3779">post:Post</text><polygon fill="#181818" points="982.5,544.8125,972.5,548.8125,982.5,552.8125,978.5,548.8125" style="stroke:#181818;stroke-width:1.0;"/><line style="stroke:#181818;stroke-width:1.0;stroke-dasharray:2.0,2.0;" x1="976.5" x2="1544" y1="548.8125" y2="548.8125"/><text fill="#000000" font-family="sans-serif" font-size="13" font-weight="bold" lengthAdjust="spacing" textLength="17" x="988.5" y="543.7466">13</text><text fill="#000000" font-family="sans-serif" font-size="13" lengthAdjust="spacing" textLength="39" x="1009.5" y="543.7466">postId</text><polygon fill="#181818" points="1827,573.9453,1837,577.9453,1827,581.9453,1831,577.9453" style="stroke:#181818;stroke-width:1.0;"/><line style="stroke:#181818;stroke-width:1.0;" x1="966.5" x2="1833" y1="577.9453" y2="577.9453"/><text fill="#000000" font-family="sans-serif" font-size="13" font-weight="bold" lengthAdjust="spacing" textLength="18" x="973.5" y="572.8794">14</text><text fill="#000000" font-family="sans-serif" font-size="13" lengthAdjust="spacing" textLength="308" x="995.5" y="572.8794">getVotesForPostByMemberId(postId, memberId)</text><polygon fill="#181818" points="1950,603.0781,1960,607.0781,1950,611.0781,1954,607.0781" style="stroke:#181818;stroke-width:1.0;"/><line style="stroke:#181818;stroke-width:1.0;" x1="1849" x2="1956" y1="607.0781" y2="607.0781"/><text fill="#000000" font-family="sans-serif" font-size="13" font-weight="bold" lengthAdjust="spacing" textLength="18" x="1856" y="602.0122">15</text><text fill="#000000" font-family="sans-serif" font-size="13" lengthAdjust="spacing" textLength="37" x="1878" y="602.0122">new()</text><rect fill="#E3E3E3" height="30.2969" rx="2.5" ry="2.5" style="stroke:#181818;stroke-width:0.5;" width="315" x="1962" y="585.9453"/><text fill="#000000" font-family="sans-serif" font-size="14" lengthAdjust="spacing" textLength="301" x="1969" y="605.9404">existingVotesOnPostByMember:PostVote</text><polygon fill="#181818" points="2365,644.375,2375,648.375,2365,652.375,2369,648.375" style="stroke:#181818;stroke-width:1.0;"/><line style="stroke:#181818;stroke-width:1.0;" x1="1844" x2="2371" y1="648.375" y2="648.375"/><text fill="#000000" font-family="sans-serif" font-size="13" font-weight="bold" lengthAdjust="spacing" textLength="18" x="1851" y="643.3091">16</text><text fill="#000000" font-family="sans-serif" font-size="13" lengthAdjust="spacing" textLength="375" x="1873" y="643.3091">upvotePost(post,member,existingVotesOnPostByMember)</text><polygon fill="#181818" points="2135.5,673.5078,2125.5,677.5078,2135.5,681.5078,2131.5,677.5078" style="stroke:#181818;stroke-width:1.0;"/><line style="stroke:#181818;stroke-width:1.0;" x1="2129.5" x2="2381" y1="677.5078" y2="677.5078"/><text fill="#000000" font-family="sans-serif" font-size="13" font-weight="bold" lengthAdjust="spacing" textLength="18" x="2141.5" y="672.4419">17</text><text fill="#000000" font-family="sans-serif" font-size="13" lengthAdjust="spacing" textLength="143" x="2163.5" y="672.4419">loop find(v.isUpvote())</text><polygon fill="#181818" points="2517,702.6406,2527,706.6406,2517,710.6406,2521,706.6406" style="stroke:#181818;stroke-width:1.0;"/><line style="stroke:#181818;stroke-width:1.0;" x1="2119.5" x2="2523" y1="706.6406" y2="706.6406"/><text fill="#000000" font-family="sans-serif" font-size="13" font-weight="bold" lengthAdjust="spacing" textLength="18" x="2126.5" y="701.5747">18</text><text fill="#000000" font-family="sans-serif" font-size="13" lengthAdjust="spacing" textLength="66" x="2148.5" y="701.5747">isUpvote()</text><polygon fill="#181818" points="2135.5,731.7734,2125.5,735.7734,2135.5,739.7734,2131.5,735.7734" style="stroke:#181818;stroke-width:1.0;"/><line style="stroke:#181818;stroke-width:1.0;stroke-dasharray:2.0,2.0;" x1="2129.5" x2="2533" y1="735.7734" y2="735.7734"/><text fill="#000000" font-family="sans-serif" font-size="13" font-weight="bold" lengthAdjust="spacing" textLength="18" x="2141.5" y="730.7075">19</text><text fill="#000000" font-family="sans-serif" font-size="13" lengthAdjust="spacing" textLength="26" x="2163.5" y="730.7075">true</text><polygon fill="#181818" points="2365,763.9063,2375,767.9063,2365,771.9063,2369,767.9063" style="stroke:#181818;stroke-width:1.0;"/><line style="stroke:#181818;stroke-width:1.0;" x1="2119.5" x2="2371" y1="767.9063" y2="767.9063"/><text fill="#000000" font-family="sans-serif" font-size="13" font-weight="bold" lengthAdjust="spacing" textLength="19" x="2126.5" y="762.8403">20</text><text fill="#000000" font-family="sans-serif" font-size="13" lengthAdjust="spacing" textLength="139" x="2149.5" y="762.8403">return existingUpvote</text><path d="M2392,748.7734 L2392,773.7734 L2589,773.7734 L2589,758.7734 L2579,748.7734 L2392,748.7734 " fill="#FAFAFA" style="stroke:#181818;stroke-width:0.5;"/><path d="M2579,748.7734 L2579,758.7734 L2589,758.7734 L2579,748.7734 " fill="#FAFAFA" style="stroke:#181818;stroke-width:0.5;"/><text fill="#000000" font-family="sans-serif" font-size="13" lengthAdjust="spacing" textLength="176" x="2398" y="765.8403">Stop, upvote already exists</text><polygon fill="#181818" points="1561,796.0391,1551,800.0391,1561,804.0391,1557,800.0391" style="stroke:#181818;stroke-width:1.0;"/><line style="stroke:#181818;stroke-width:1.0;stroke-dasharray:2.0,2.0;" x1="1555" x2="2381" y1="800.0391" y2="800.0391"/><text fill="#000000" font-family="sans-serif" font-size="13" font-weight="bold" lengthAdjust="spacing" textLength="18" x="1567" y="794.9731">21</text><text fill="#000000" font-family="sans-serif" font-size="13" lengthAdjust="spacing" textLength="69" x="1589" y="794.9731">save(post)</text><polygon fill="#181818" points="2365,825.1719,2375,829.1719,2365,833.1719,2369,829.1719" style="stroke:#181818;stroke-width:1.0;"/><line style="stroke:#181818;stroke-width:1.0;stroke-dasharray:2.0,2.0;" x1="1545" x2="2371" y1="829.1719" y2="829.1719"/><text fill="#000000" font-family="sans-serif" font-size="13" font-weight="bold" lengthAdjust="spacing" textLength="18" x="1552" y="824.106">22</text><text fill="#000000" font-family="sans-serif" font-size="13" lengthAdjust="spacing" textLength="198" x="1574" y="824.106">return right(Result.ok&lt;void&gt;())</text><polygon fill="#181818" points="566,857.3047,556,861.3047,566,865.3047,562,861.3047" style="stroke:#181818;stroke-width:1.0;"/><line style="stroke:#181818;stroke-width:1.0;stroke-dasharray:2.0,2.0;" x1="560" x2="2381" y1="861.3047" y2="861.3047"/><text fill="#000000" font-family="sans-serif" font-size="13" font-weight="bold" lengthAdjust="spacing" textLength="17" x="572" y="856.2388">23</text><text fill="#000000" font-family="sans-serif" font-size="13" lengthAdjust="spacing" textLength="36" x="593" y="856.2388">result</text><path d="M2392,842.1719 L2392,867.1719 L2471,867.1719 L2471,852.1719 L2461,842.1719 L2392,842.1719 " fill="#FAFAFA" style="stroke:#181818;stroke-width:0.5;"/><path d="M2461,842.1719 L2461,852.1719 L2471,852.1719 L2461,842.1719 " fill="#FAFAFA" style="stroke:#181818;stroke-width:0.5;"/><text fill="#000000" font-family="sans-serif" font-size="13" lengthAdjust="spacing" textLength="58" x="2398" y="859.2388">return ok</text><line style="stroke:#181818;stroke-width:1.0;stroke-dasharray:2.0,2.0;" x1="555" x2="597" y1="898.4375" y2="898.4375"/><line style="stroke:#181818;stroke-width:1.0;stroke-dasharray:2.0,2.0;" x1="597" x2="597" y1="898.4375" y2="911.4375"/><line style="stroke:#181818;stroke-width:1.0;stroke-dasharray:2.0,2.0;" x1="550" x2="597" y1="911.4375" y2="911.4375"/><polygon fill="#181818" points="560,907.4375,550,911.4375,560,915.4375,556,911.4375" style="stroke:#181818;stroke-width:1.0;"/><text fill="#000000" font-family="sans-serif" font-size="13" font-weight="bold" lengthAdjust="spacing" textLength="18" x="562" y="893.3716">24</text><text fill="#000000" font-family="sans-serif" font-size="13" lengthAdjust="spacing" textLength="4" x="584" y="893.3716">&#160;</text><polygon fill="#181818" points="310,931.5703,300,935.5703,310,939.5703,306,935.5703" style="stroke:#181818;stroke-width:1.0;"/><line style="stroke:#181818;stroke-width:1.0;stroke-dasharray:2.0,2.0;" x1="304" x2="544" y1="935.5703" y2="935.5703"/><text fill="#000000" font-family="sans-serif" font-size="13" font-weight="bold" lengthAdjust="spacing" textLength="18" x="316" y="930.5044">25</text><text fill="#000000" font-family="sans-serif" font-size="13" lengthAdjust="spacing" textLength="36" x="338" y="930.5044">result</text><polygon fill="#181818" points="49,960.7031,39,964.7031,49,968.7031,45,964.7031" style="stroke:#181818;stroke-width:1.0;"/><line style="stroke:#181818;stroke-width:1.0;stroke-dasharray:2.0,2.0;" x1="43" x2="293" y1="964.7031" y2="964.7031"/><text fill="#000000" font-family="sans-serif" font-size="13" font-weight="bold" lengthAdjust="spacing" textLength="18" x="55" y="959.6372">26</text><text fill="#000000" font-family="sans-serif" font-size="13" lengthAdjust="spacing" textLength="200" x="77" y="959.6372">STATUS 200 ok | "Done-zo! &#129312;"</text><!--SRC=[hLPBRjim4Dth55Dt8mDsOdHJG2WCD34A16YG8agwPoH64IoJ2aafTT6xj8iUi4SeF-9FTfGKw4QYvlFc3Jap5D_Mf4KCxM172IqU6DrX4Ap32NUQ5XLRLE5Sx1iC31S2aQe93VW3AkbJJIguHmt72Ue49Ttk3hCa4RMGNZb-x30fC6ngL2cNDD_COGct-MhrNhtRdWeCY01g64Rb7ZejAQ6bNC3T7ZYIn3gk854XA8FP9LOHPe0uc6KYsOYwg5j41CoKupNj16QPUMdBBquQMvjmIdjEYM2qQQJVxH6XHZ4ABuonIa43rusWsaTAHo4vFaSS1wRQRX37jZkTu3LkQNPnwTRQtgkEkMJ1BksUsoK5Es9XvOVMMMHpgFygOVXpa4uP- -5lDHUoVhJwYYYNixrXhiCfkSQOC3naacFMrmNM2CFQ4Hc-OwS-3jRhKgjx92jpY96ODopNGILbyEKglu5JXSjFCzvqrQcf9-yVr5tYrmfdN4kPJ18NKfio_BYG_SRd7kQWy9AnP1BoOjU-1XNUVgwh1t7Mo36G5B8VfOqgtx6T3ALg7GX-IkV7gTWYTqb9Xo2oBVPaMC3IObPOw7Q_ABsruf38HmHSrJssbYMERHtgEcYJJ4AROppRtsg_rBW7l8AciXimT8_NUDHis81G5r8qyfXV626WwVfHaZJLdSjoIbLD1VHSTrfofXK7wG1ZMLbnp4b9OqOUTCJ7TxGafJy-KHQsdjn10xTmgSv3P7lAKIW_2cmIayqTUaXUKnC3WiITZqt63WK_y3NtXI6-cC2TZpVBPn29xMX9We_bUf9mGsaBzpKfq_wavgQFqlb1G8liX5Cxbameb-i-0nyeZ3C5wOpaPEoNB-IaVo82uFv_q0vFK0unqJ7Yq4ms_vnBkB54_OGmDVioo0Lj5yDlYFihqOWyEbhTLgvjEUgnBgYN3y_tMzIXnrBKbD9hpBj6dD3jXvxMvVf8WRok67MOmpk2QVXe3uRmTFjSCaTc_X7iqFirDzZeTXs8JOA4TwfqjqMOttoykStXtMebau0VCDjGWfVVwHluy_Fthrc86TpGWTG0_GK0]--></g></svg>