<?xml version="1.0" encoding="us-ascii" standalone="no"?><svg xmlns="http://www.w3.org/2000/svg" xmlns:xlink="http://www.w3.org/1999/xlink" contentStyleType="text/css" height="394px" preserveAspectRatio="none" style="width:672px;height:394px;background:#FFFFFF;" version="1.1" viewBox="0 0 672 394" width="672px" zoomAndPan="magnify"><defs/><g><text fill="#000000" font-family="sans-serif" font-size="14" font-weight="bold" lengthAdjust="spacing" textLength="644" x="10" y="27.9951">System Sequence Diagram (SSD) - Alternative 2 - View a comment and it's data</text><rect fill="#FFFFFF" height="166.7969" style="stroke:#181818;stroke-width:1.0;" width="10" x="186.75" y="128.5938"/><rect fill="#FFFFFF" height="29.1328" style="stroke:#181818;stroke-width:1.0;" width="10" x="460.75" y="149.7266"/><rect fill="#FFFFFF" height="29.1328" style="stroke:#181818;stroke-width:1.0;" width="10" x="460.75" y="207.9922"/><rect fill="#FFFFFF" height="29.1328" style="stroke:#181818;stroke-width:1.0;" width="10" x="460.75" y="266.2578"/><line style="stroke:#181818;stroke-width:0.5;stroke-dasharray:5.0,5.0;" x1="191.25" x2="191.25" y1="118.5938" y2="313.3906"/><line style="stroke:#181818;stroke-width:0.5;stroke-dasharray:5.0,5.0;" x1="465.75" x2="465.75" y1="118.5938" y2="313.3906"/><text fill="#000000" font-family="sans-serif" font-size="14" lengthAdjust="spacing" textLength="47" x="165.25" y="115.292">Visitor</text><ellipse cx="191.75" cy="50.7969" fill="#E3E3E3" rx="8" ry="8" style="stroke:#181818;stroke-width:0.5;"/><path d="M191.75,58.7969 L191.75,85.7969 M178.75,66.7969 L204.75,66.7969 M191.75,85.7969 L178.75,100.7969 M191.75,85.7969 L204.75,100.7969 " fill="none" style="stroke:#181818;stroke-width:0.5;"/><text fill="#000000" font-family="sans-serif" font-size="14" lengthAdjust="spacing" textLength="47" x="165.25" y="325.3857">Visitor</text><ellipse cx="191.75" cy="337.1875" fill="#E3E3E3" rx="8" ry="8" style="stroke:#181818;stroke-width:0.5;"/><path d="M191.75,345.1875 L191.75,372.1875 M178.75,353.1875 L204.75,353.1875 M191.75,372.1875 L178.75,387.1875 M191.75,372.1875 L204.75,387.1875 " fill="none" style="stroke:#181818;stroke-width:0.5;"/><rect fill="#E3E3E3" height="30.2969" rx="2.5" ry="2.5" style="stroke:#181818;stroke-width:0.5;" width="68" x="431.75" y="87.2969"/><text fill="#000000" font-family="sans-serif" font-size="14" lengthAdjust="spacing" textLength="54" x="438.75" y="107.292">System</text><rect fill="#E3E3E3" height="30.2969" rx="2.5" ry="2.5" style="stroke:#181818;stroke-width:0.5;" width="68" x="431.75" y="312.3906"/><text fill="#000000" font-family="sans-serif" font-size="14" lengthAdjust="spacing" textLength="54" x="438.75" y="332.3857">System</text><rect fill="#FFFFFF" height="166.7969" style="stroke:#181818;stroke-width:1.0;" width="10" x="186.75" y="128.5938"/><rect fill="#FFFFFF" height="29.1328" style="stroke:#181818;stroke-width:1.0;" width="10" x="460.75" y="149.7266"/><rect fill="#FFFFFF" height="29.1328" style="stroke:#181818;stroke-width:1.0;" width="10" x="460.75" y="207.9922"/><rect fill="#FFFFFF" height="29.1328" style="stroke:#181818;stroke-width:1.0;" width="10" x="460.75" y="266.2578"/><polygon fill="#181818" points="448.75,145.7266,458.75,149.7266,448.75,153.7266,452.75,149.7266" style="stroke:#181818;stroke-width:1.0;"/><line style="stroke:#181818;stroke-width:1.0;" x1="196.75" x2="454.75" y1="149.7266" y2="149.7266"/><text fill="#000000" font-family="sans-serif" font-size="13" font-weight="bold" lengthAdjust="spacing" textLength="9" x="203.75" y="144.6606">1</text><text fill="#000000" font-family="sans-serif" font-size="13" lengthAdjust="spacing" textLength="139" x="216.75" y="144.6606">Accesses DDD Forum</text><polygon fill="#181818" points="207.75,174.8594,197.75,178.8594,207.75,182.8594,203.75,178.8594" style="stroke:#181818;stroke-width:1.0;"/><line style="stroke:#181818;stroke-width:1.0;stroke-dasharray:2.0,2.0;" x1="201.75" x2="464.75" y1="178.8594" y2="178.8594"/><text fill="#000000" font-family="sans-serif" font-size="13" font-weight="bold" lengthAdjust="spacing" textLength="9" x="213.75" y="173.7935">2</text><text fill="#000000" font-family="sans-serif" font-size="13" lengthAdjust="spacing" textLength="93" x="226.75" y="173.7935">Displays posts</text><polygon fill="#181818" points="448.75,203.9922,458.75,207.9922,448.75,211.9922,452.75,207.9922" style="stroke:#181818;stroke-width:1.0;"/><line style="stroke:#181818;stroke-width:1.0;" x1="196.75" x2="454.75" y1="207.9922" y2="207.9922"/><text fill="#000000" font-family="sans-serif" font-size="13" font-weight="bold" lengthAdjust="spacing" textLength="8" x="203.75" y="202.9263">3</text><text fill="#000000" font-family="sans-serif" font-size="13" lengthAdjust="spacing" textLength="100" x="215.75" y="202.9263">Clicks on a post</text><polygon fill="#181818" points="207.75,233.125,197.75,237.125,207.75,241.125,203.75,237.125" style="stroke:#181818;stroke-width:1.0;"/><line style="stroke:#181818;stroke-width:1.0;stroke-dasharray:2.0,2.0;" x1="201.75" x2="464.75" y1="237.125" y2="237.125"/><text fill="#000000" font-family="sans-serif" font-size="13" font-weight="bold" lengthAdjust="spacing" textLength="9" x="213.75" y="232.0591">4</text><text fill="#000000" font-family="sans-serif" font-size="13" lengthAdjust="spacing" textLength="227" x="226.75" y="232.0591">Displays posts and comments data</text><polygon fill="#181818" points="448.75,262.2578,458.75,266.2578,448.75,270.2578,452.75,266.2578" style="stroke:#181818;stroke-width:1.0;"/><line style="stroke:#181818;stroke-width:1.0;" x1="196.75" x2="454.75" y1="266.2578" y2="266.2578"/><text fill="#000000" font-family="sans-serif" font-size="13" font-weight="bold" lengthAdjust="spacing" textLength="9" x="203.75" y="261.1919">5</text><text fill="#000000" font-family="sans-serif" font-size="13" lengthAdjust="spacing" textLength="215" x="216.75" y="261.1919">Selects timestamp of a comment</text><polygon fill="#181818" points="202.75,291.3906,192.75,295.3906,202.75,299.3906,198.75,295.3906" style="stroke:#181818;stroke-width:1.0;"/><line style="stroke:#181818;stroke-width:1.0;stroke-dasharray:2.0,2.0;" x1="196.75" x2="464.75" y1="295.3906" y2="295.3906"/><text fill="#000000" font-family="sans-serif" font-size="13" font-weight="bold" lengthAdjust="spacing" textLength="9" x="208.75" y="290.3247">6</text><text fill="#000000" font-family="sans-serif" font-size="13" lengthAdjust="spacing" textLength="200" x="221.75" y="290.3247">Displays comment and its data</text><!--SRC=[fLAxRiCm3Dpr5OSiROSi7JCK26hq1mnaPsN64QA7Az89ylTL7CLDqQ93muaKUQVJKR9tSQ1C0I75P7Sv1ORcaOtCdO7iddfkzUGPcQrIxFtjWEoeIqSNUsp92nj3ewOuXdVEngZJ0cjFeXpGyiV8qJ8QH_qP-jYspHEMM7lb74dTWV5SwetZ8mWsXS1HGR63qmT1Hqg5tshAM6oSk98iG8AQcw98dNK35TJYSklKlwGJr1r8UGOObAW5bYzNfIkihMKH5ZHDWxUKnp2DpWHNHjIem6NXg7IhyamPF9q4GnALURJZNrb-g5ZXrJkx5wHOp3Xpt2jXShAwUd4J_r3LiY_VGA0ki2Y50MdxjQqxD7xVTrtt7_fkZYhP9m00]--></g></svg>