<?xml version="1.0" encoding="us-ascii" standalone="no"?><svg xmlns="http://www.w3.org/2000/svg" xmlns:xlink="http://www.w3.org/1999/xlink" contentStyleType="text/css" height="679px" preserveAspectRatio="none" style="width:2115px;height:679px;background:#FFFFFF;" version="1.1" viewBox="0 0 2115 679" width="2115px" zoomAndPan="magnify"><defs/><g><text fill="#000000" font-family="sans-serif" font-size="14" font-weight="bold" lengthAdjust="spacing" textLength="368" x="875.5" y="27.9951">Sequence Diagram - Average of posts per day</text><rect fill="#FFFFFF" height="460.8594" style="stroke:#181818;stroke-width:1.0;" width="10" x="33" y="128.5938"/><rect fill="#FFFFFF" height="430.7266" style="stroke:#181818;stroke-width:1.0;" width="10" x="312" y="149.7266"/><rect fill="#FFFFFF" height="372.4609" style="stroke:#181818;stroke-width:1.0;" width="10" x="617" y="178.8594"/><rect fill="#FFFFFF" height="299.1953" style="stroke:#181818;stroke-width:1.0;" width="10" x="622" y="215.9922"/><rect fill="#FFFFFF" height="229.9297" style="stroke:#181818;stroke-width:1.0;" width="10" x="969" y="250.125"/><rect fill="#FFFFFF" height="171.6641" style="stroke:#181818;stroke-width:1.0;" width="10" x="1362" y="279.2578"/><rect fill="#FFFFFF" height="113.3984" style="stroke:#181818;stroke-width:1.0;" width="10" x="1741" y="308.3906"/><rect fill="#FFFFFF" height="40.1328" style="stroke:#181818;stroke-width:1.0;" width="10" x="1746" y="345.5234"/><line style="stroke:#181818;stroke-width:0.5;stroke-dasharray:5.0,5.0;" x1="38" x2="38" y1="118.5938" y2="598.4531"/><line style="stroke:#181818;stroke-width:0.5;stroke-dasharray:5.0,5.0;" x1="316.5" x2="316.5" y1="118.5938" y2="598.4531"/><line style="stroke:#181818;stroke-width:0.5;stroke-dasharray:5.0,5.0;" x1="621.5" x2="621.5" y1="118.5938" y2="598.4531"/><line style="stroke:#181818;stroke-width:0.5;stroke-dasharray:5.0,5.0;" x1="973.5" x2="973.5" y1="118.5938" y2="598.4531"/><line style="stroke:#181818;stroke-width:0.5;stroke-dasharray:5.0,5.0;" x1="1367" x2="1367" y1="118.5938" y2="598.4531"/><line style="stroke:#181818;stroke-width:0.5;stroke-dasharray:5.0,5.0;" x1="1746" x2="1746" y1="118.5938" y2="598.4531"/><text fill="#000000" font-family="sans-serif" font-size="14" lengthAdjust="spacing" textLength="60" x="5" y="115.292">Member</text><ellipse cx="38" cy="50.7969" fill="#E3E3E3" rx="8" ry="8" style="stroke:#181818;stroke-width:0.5;"/><path d="M38,58.7969 L38,85.7969 M25,66.7969 L51,66.7969 M38,85.7969 L25,100.7969 M38,85.7969 L51,100.7969 " fill="none" style="stroke:#181818;stroke-width:0.5;"/><text fill="#000000" font-family="sans-serif" font-size="14" lengthAdjust="spacing" textLength="60" x="5" y="610.4482">Member</text><ellipse cx="38" cy="622.25" fill="#E3E3E3" rx="8" ry="8" style="stroke:#181818;stroke-width:0.5;"/><path d="M38,630.25 L38,657.25 M25,638.25 L51,638.25 M38,657.25 L25,672.25 M38,657.25 L51,672.25 " fill="none" style="stroke:#181818;stroke-width:0.5;"/><rect fill="#E3E3E3" height="30.2969" rx="2.5" ry="2.5" style="stroke:#181818;stroke-width:0.5;" width="131" x="251.5" y="87.2969"/><text fill="#000000" font-family="sans-serif" font-size="14" lengthAdjust="spacing" textLength="117" x="258.5" y="107.292">routes:statistics</text><rect fill="#E3E3E3" height="30.2969" rx="2.5" ry="2.5" style="stroke:#181818;stroke-width:0.5;" width="131" x="251.5" y="597.4531"/><text fill="#000000" font-family="sans-serif" font-size="14" lengthAdjust="spacing" textLength="117" x="258.5" y="617.4482">routes:statistics</text><rect fill="#E3E3E3" height="30.2969" rx="2.5" ry="2.5" style="stroke:#181818;stroke-width:0.5;" width="459" x="392.5" y="87.2969"/><text fill="#000000" font-family="sans-serif" font-size="14" lengthAdjust="spacing" textLength="445" x="399.5" y="107.292">getStatisticsByDateController:GetStatisticsByDateController</text><rect fill="#E3E3E3" height="30.2969" rx="2.5" ry="2.5" style="stroke:#181818;stroke-width:0.5;" width="459" x="392.5" y="597.4531"/><text fill="#000000" font-family="sans-serif" font-size="14" lengthAdjust="spacing" textLength="445" x="399.5" y="617.4482">getStatisticsByDateController:GetStatisticsByDateController</text><rect fill="#E3E3E3" height="30.2969" rx="2.5" ry="2.5" style="stroke:#181818;stroke-width:0.5;" width="225" x="861.5" y="87.2969"/><text fill="#000000" font-family="sans-serif" font-size="14" lengthAdjust="spacing" textLength="211" x="868.5" y="107.292">useCase:GetStatisticsByDate</text><rect fill="#E3E3E3" height="30.2969" rx="2.5" ry="2.5" style="stroke:#181818;stroke-width:0.5;" width="225" x="861.5" y="597.4531"/><text fill="#000000" font-family="sans-serif" font-size="14" lengthAdjust="spacing" textLength="211" x="868.5" y="617.4482">useCase:GetStatisticsByDate</text><rect fill="#E3E3E3" height="30.2969" rx="2.5" ry="2.5" style="stroke:#181818;stroke-width:0.5;" width="160" x="1287" y="87.2969"/><text fill="#000000" font-family="sans-serif" font-size="14" lengthAdjust="spacing" textLength="146" x="1294" y="107.292">userRepo:IUserRepo</text><rect fill="#E3E3E3" height="30.2969" rx="2.5" ry="2.5" style="stroke:#181818;stroke-width:0.5;" width="160" x="1287" y="597.4531"/><text fill="#000000" font-family="sans-serif" font-size="14" lengthAdjust="spacing" textLength="146" x="1294" y="617.4482">userRepo:IUserRepo</text><rect fill="#E3E3E3" height="30.2969" rx="2.5" ry="2.5" style="stroke:#181818;stroke-width:0.5;" width="152" x="1670" y="87.2969"/><text fill="#000000" font-family="sans-serif" font-size="14" lengthAdjust="spacing" textLength="138" x="1677" y="107.292">SequelizeUserRepo</text><rect fill="#E3E3E3" height="30.2969" rx="2.5" ry="2.5" style="stroke:#181818;stroke-width:0.5;" width="152" x="1670" y="597.4531"/><text fill="#000000" font-family="sans-serif" font-size="14" lengthAdjust="spacing" textLength="138" x="1677" y="617.4482">SequelizeUserRepo</text><rect fill="#FFFFFF" height="460.8594" style="stroke:#181818;stroke-width:1.0;" width="10" x="33" y="128.5938"/><rect fill="#FFFFFF" height="430.7266" style="stroke:#181818;stroke-width:1.0;" width="10" x="312" y="149.7266"/><rect fill="#FFFFFF" height="372.4609" style="stroke:#181818;stroke-width:1.0;" width="10" x="617" y="178.8594"/><rect fill="#FFFFFF" height="299.1953" style="stroke:#181818;stroke-width:1.0;" width="10" x="622" y="215.9922"/><rect fill="#FFFFFF" height="229.9297" style="stroke:#181818;stroke-width:1.0;" width="10" x="969" y="250.125"/><rect fill="#FFFFFF" height="171.6641" style="stroke:#181818;stroke-width:1.0;" width="10" x="1362" y="279.2578"/><rect fill="#FFFFFF" height="113.3984" style="stroke:#181818;stroke-width:1.0;" width="10" x="1741" y="308.3906"/><rect fill="#FFFFFF" height="40.1328" style="stroke:#181818;stroke-width:1.0;" width="10" x="1746" y="345.5234"/><polygon fill="#181818" points="300,145.7266,310,149.7266,300,153.7266,304,149.7266" style="stroke:#181818;stroke-width:1.0;"/><line style="stroke:#181818;stroke-width:1.0;" x1="43" x2="306" y1="149.7266" y2="149.7266"/><text fill="#000000" font-family="sans-serif" font-size="13" font-weight="bold" lengthAdjust="spacing" textLength="9" x="50" y="144.6606">1</text><text fill="#000000" font-family="sans-serif" font-size="13" lengthAdjust="spacing" textLength="168" x="63" y="144.6606">GET /users/statistics/:date</text><polygon fill="#181818" points="605,174.8594,615,178.8594,605,182.8594,609,178.8594" style="stroke:#181818;stroke-width:1.0;"/><line style="stroke:#181818;stroke-width:1.0;" x1="322" x2="611" y1="178.8594" y2="178.8594"/><text fill="#000000" font-family="sans-serif" font-size="13" font-weight="bold" lengthAdjust="spacing" textLength="9" x="329" y="173.7935">2</text><text fill="#000000" font-family="sans-serif" font-size="13" lengthAdjust="spacing" textLength="116" x="342" y="173.7935">execute(req, res);</text><line style="stroke:#181818;stroke-width:1.0;" x1="627" x2="674" y1="202.9922" y2="202.9922"/><line style="stroke:#181818;stroke-width:1.0;" x1="674" x2="674" y1="202.9922" y2="215.9922"/><line style="stroke:#181818;stroke-width:1.0;" x1="633" x2="674" y1="215.9922" y2="215.9922"/><polygon fill="#181818" points="643,211.9922,633,215.9922,643,219.9922,639,215.9922" style="stroke:#181818;stroke-width:1.0;"/><text fill="#000000" font-family="sans-serif" font-size="13" font-weight="bold" lengthAdjust="spacing" textLength="8" x="639" y="197.9263">3</text><text fill="#000000" font-family="sans-serif" font-size="13" lengthAdjust="spacing" textLength="135" x="651" y="197.9263">executeImp(req, res)</text><polygon fill="#181818" points="957,246.125,967,250.125,957,254.125,961,250.125" style="stroke:#181818;stroke-width:1.0;"/><line style="stroke:#181818;stroke-width:1.0;" x1="632" x2="963" y1="250.125" y2="250.125"/><text fill="#000000" font-family="sans-serif" font-size="13" font-weight="bold" lengthAdjust="spacing" textLength="9" x="639" y="245.0591">4</text><text fill="#000000" font-family="sans-serif" font-size="13" lengthAdjust="spacing" textLength="83" x="652" y="245.0591">execute(dto)</text><polygon fill="#181818" points="1350,275.2578,1360,279.2578,1350,283.2578,1354,279.2578" style="stroke:#181818;stroke-width:1.0;"/><line style="stroke:#181818;stroke-width:1.0;" x1="979" x2="1356" y1="279.2578" y2="279.2578"/><text fill="#000000" font-family="sans-serif" font-size="13" font-weight="bold" lengthAdjust="spacing" textLength="9" x="986" y="274.1919">5</text><text fill="#000000" font-family="sans-serif" font-size="13" lengthAdjust="spacing" textLength="123" x="999" y="274.1919">getStatistics(date);</text><polygon fill="#181818" points="1729,304.3906,1739,308.3906,1729,312.3906,1733,308.3906" style="stroke:#181818;stroke-width:1.0;"/><line style="stroke:#181818;stroke-width:1.0;" x1="1372" x2="1735" y1="308.3906" y2="308.3906"/><text fill="#000000" font-family="sans-serif" font-size="13" font-weight="bold" lengthAdjust="spacing" textLength="9" x="1379" y="303.3247">6</text><text fill="#000000" font-family="sans-serif" font-size="13" lengthAdjust="spacing" textLength="179" x="1392" y="303.3247">averagePostsByDate(date);</text><line style="stroke:#181818;stroke-width:1.0;" x1="1751" x2="1798" y1="332.5234" y2="332.5234"/><line style="stroke:#181818;stroke-width:1.0;" x1="1798" x2="1798" y1="332.5234" y2="345.5234"/><line style="stroke:#181818;stroke-width:1.0;" x1="1757" x2="1798" y1="345.5234" y2="345.5234"/><polygon fill="#181818" points="1767,341.5234,1757,345.5234,1767,349.5234,1763,345.5234" style="stroke:#181818;stroke-width:1.0;"/><text fill="#000000" font-family="sans-serif" font-size="13" font-weight="bold" lengthAdjust="spacing" textLength="9" x="1763" y="327.4575">7</text><text fill="#000000" font-family="sans-serif" font-size="13" lengthAdjust="spacing" textLength="52" x="1776" y="327.4575">query();</text><line style="stroke:#181818;stroke-width:1.0;stroke-dasharray:2.0,2.0;" x1="1756" x2="1798" y1="384.6563" y2="384.6563"/><line style="stroke:#181818;stroke-width:1.0;stroke-dasharray:2.0,2.0;" x1="1798" x2="1798" y1="384.6563" y2="397.6563"/><line style="stroke:#181818;stroke-width:1.0;stroke-dasharray:2.0,2.0;" x1="1751" x2="1798" y1="397.6563" y2="397.6563"/><polygon fill="#181818" points="1761,393.6563,1751,397.6563,1761,401.6563,1757,397.6563" style="stroke:#181818;stroke-width:1.0;"/><text fill="#000000" font-family="sans-serif" font-size="13" font-weight="bold" lengthAdjust="spacing" textLength="9" x="1763" y="379.5903">8</text><text fill="#000000" font-family="sans-serif" font-size="13" lengthAdjust="spacing" textLength="332" x="1776" y="379.5903">response[{total_posts; total_members; average}];</text><polygon fill="#181818" points="1383,417.7891,1373,421.7891,1383,425.7891,1379,421.7891" style="stroke:#181818;stroke-width:1.0;"/><line style="stroke:#181818;stroke-width:1.0;stroke-dasharray:2.0,2.0;" x1="1377" x2="1745" y1="421.7891" y2="421.7891"/><text fill="#000000" font-family="sans-serif" font-size="13" font-weight="bold" lengthAdjust="spacing" textLength="9" x="1389" y="416.7231">9</text><text fill="#000000" font-family="sans-serif" font-size="13" lengthAdjust="spacing" textLength="332" x="1402" y="416.7231">response[{total_posts; total_members; average}];</text><polygon fill="#181818" points="990,446.9219,980,450.9219,990,454.9219,986,450.9219" style="stroke:#181818;stroke-width:1.0;"/><line style="stroke:#181818;stroke-width:1.0;stroke-dasharray:2.0,2.0;" x1="984" x2="1366" y1="450.9219" y2="450.9219"/><text fill="#000000" font-family="sans-serif" font-size="13" font-weight="bold" lengthAdjust="spacing" textLength="19" x="996" y="445.856">10</text><text fill="#000000" font-family="sans-serif" font-size="13" lengthAdjust="spacing" textLength="336" x="1019" y="445.856">response [{total_posts; total_members; average}];</text><polygon fill="#181818" points="643,476.0547,633,480.0547,643,484.0547,639,480.0547" style="stroke:#181818;stroke-width:1.0;"/><line style="stroke:#181818;stroke-width:1.0;stroke-dasharray:2.0,2.0;" x1="637" x2="973" y1="480.0547" y2="480.0547"/><text fill="#000000" font-family="sans-serif" font-size="13" font-weight="bold" lengthAdjust="spacing" textLength="18" x="649" y="474.9888">11</text><text fill="#000000" font-family="sans-serif" font-size="13" lengthAdjust="spacing" textLength="87" x="671" y="474.9888">ok(statistics);</text><line style="stroke:#181818;stroke-width:1.0;stroke-dasharray:2.0,2.0;" x1="632" x2="674" y1="514.1875" y2="514.1875"/><line style="stroke:#181818;stroke-width:1.0;stroke-dasharray:2.0,2.0;" x1="674" x2="674" y1="514.1875" y2="527.1875"/><line style="stroke:#181818;stroke-width:1.0;stroke-dasharray:2.0,2.0;" x1="627" x2="674" y1="527.1875" y2="527.1875"/><polygon fill="#181818" points="637,523.1875,627,527.1875,637,531.1875,633,527.1875" style="stroke:#181818;stroke-width:1.0;"/><text fill="#000000" font-family="sans-serif" font-size="13" font-weight="bold" lengthAdjust="spacing" textLength="18" x="639" y="509.1216">12</text><text fill="#000000" font-family="sans-serif" font-size="13" lengthAdjust="spacing" textLength="87" x="661" y="509.1216">ok(statistics);</text><polygon fill="#181818" points="333,547.3203,323,551.3203,333,555.3203,329,551.3203" style="stroke:#181818;stroke-width:1.0;"/><line style="stroke:#181818;stroke-width:1.0;stroke-dasharray:2.0,2.0;" x1="327" x2="621" y1="551.3203" y2="551.3203"/><text fill="#000000" font-family="sans-serif" font-size="13" font-weight="bold" lengthAdjust="spacing" textLength="17" x="339" y="546.2544">13</text><text fill="#000000" font-family="sans-serif" font-size="13" lengthAdjust="spacing" textLength="175" x="360" y="546.2544">ok(res, {statistics: user});;</text><polygon fill="#181818" points="54,576.4531,44,580.4531,54,584.4531,50,580.4531" style="stroke:#181818;stroke-width:1.0;"/><line style="stroke:#181818;stroke-width:1.0;stroke-dasharray:2.0,2.0;" x1="48" x2="316" y1="580.4531" y2="580.4531"/><text fill="#000000" font-family="sans-serif" font-size="13" font-weight="bold" lengthAdjust="spacing" textLength="18" x="60" y="575.3872">14</text><text fill="#000000" font-family="sans-serif" font-size="13" lengthAdjust="spacing" textLength="223" x="82" y="575.3872">[200 OK] Average of Posts per day</text><!--SRC=[jLLDRzim3BthLn0v9K2B53igm82j7OfY65Oqswae1ivcNI6sv4fqjwpeVvyisR4zPswpZvCbYkyz-v6KtKRf4YqMK1XjaZjh2WAs5GctEoansM16Qzxc19OIHftb_GHtXwdvfdG6jvWx4bYnqLNnbQmGhDYZrdHVaKu8pXHcDUGOtZoGzQnWRg4qZXsKP275hH2OiB4m-q0rmmpGGLmAhyOgKILgXfar5PEJZf6Lys4NCgz2T9YP4QztMM-tPyXqQZHRa-TavVdKQU2Sp1XALOvEqT4-qa3Ld8z0zefA8oy-DwisDso6oS79NFsWGUue6bnK3rwtDIy-uFXruv64ytUVO5chk6NdubAc7jI3Dux6HmsVj4C2VQV4fyujtH_vRd6BLOzisih9qvTBNnHbf_xlnDlQxhumPRFesDlIYcRHG69bOT23yzfYxqiVsrHDjCiQFggg18nJSrbFJ7p94TcUNXY5ViFk0tOxFvniFvktlpJQqVKZ6yRyInZp5SHD4ThHRvilUhfPYPGErwt-brol4ltYjohm9pB3EiSkURwjpMRUpUVYLyBOTC-rxr-fJ0_E2wJR6yThUF-EuB5Jai6KfyNg4CNsClBKyLgJSFtgv0G-lh_f_rSk1_-L7dt4_mG0]--></g></svg>