<?xml version="1.0" encoding="us-ascii" standalone="no"?><svg xmlns="http://www.w3.org/2000/svg" xmlns:xlink="http://www.w3.org/1999/xlink" contentStyleType="text/css" height="452px" preserveAspectRatio="none" style="width:584px;height:452px;background:#FFFFFF;" version="1.1" viewBox="0 0 584 452" width="584px" zoomAndPan="magnify"><defs/><g><text fill="#000000" font-family="sans-serif" font-size="14" font-weight="bold" lengthAdjust="spacing" textLength="349" x="116.5" y="27.9951">SSD1 - Member Interacts with Post Sorting</text><rect fill="#FFFFFF" height="225.0625" style="stroke:#181818;stroke-width:1.0;" width="10" x="71" y="128.5938"/><rect fill="#FFFFFF" height="29.1328" style="stroke:#181818;stroke-width:1.0;" width="10" x="539" y="149.7266"/><rect fill="#FFFFFF" height="29.1328" style="stroke:#181818;stroke-width:1.0;" width="10" x="539" y="207.9922"/><rect fill="#FFFFFF" height="29.1328" style="stroke:#181818;stroke-width:1.0;" width="10" x="539" y="266.2578"/><rect fill="#FFFFFF" height="29.1328" style="stroke:#181818;stroke-width:1.0;" width="10" x="539" y="324.5234"/><line style="stroke:#181818;stroke-width:0.5;stroke-dasharray:5.0,5.0;" x1="76" x2="76" y1="118.5938" y2="371.6563"/><line style="stroke:#181818;stroke-width:0.5;stroke-dasharray:5.0,5.0;" x1="544" x2="544" y1="118.5938" y2="371.6563"/><text fill="#000000" font-family="sans-serif" font-size="14" lengthAdjust="spacing" textLength="136" x="5" y="115.292">Logged-in Member</text><ellipse cx="76" cy="50.7969" fill="#E3E3E3" rx="8" ry="8" style="stroke:#181818;stroke-width:0.5;"/><path d="M76,58.7969 L76,85.7969 M63,66.7969 L89,66.7969 M76,85.7969 L63,100.7969 M76,85.7969 L89,100.7969 " fill="none" style="stroke:#181818;stroke-width:0.5;"/><text fill="#000000" font-family="sans-serif" font-size="14" lengthAdjust="spacing" textLength="136" x="5" y="383.6514">Logged-in Member</text><ellipse cx="76" cy="395.4531" fill="#E3E3E3" rx="8" ry="8" style="stroke:#181818;stroke-width:0.5;"/><path d="M76,403.4531 L76,430.4531 M63,411.4531 L89,411.4531 M76,430.4531 L63,445.4531 M76,430.4531 L89,445.4531 " fill="none" style="stroke:#181818;stroke-width:0.5;"/><rect fill="#E3E3E3" height="30.2969" rx="2.5" ry="2.5" style="stroke:#181818;stroke-width:0.5;" width="68" x="510" y="87.2969"/><text fill="#000000" font-family="sans-serif" font-size="14" lengthAdjust="spacing" textLength="54" x="517" y="107.292">System</text><rect fill="#E3E3E3" height="30.2969" rx="2.5" ry="2.5" style="stroke:#181818;stroke-width:0.5;" width="68" x="510" y="370.6563"/><text fill="#000000" font-family="sans-serif" font-size="14" lengthAdjust="spacing" textLength="54" x="517" y="390.6514">System</text><rect fill="#FFFFFF" height="225.0625" style="stroke:#181818;stroke-width:1.0;" width="10" x="71" y="128.5938"/><rect fill="#FFFFFF" height="29.1328" style="stroke:#181818;stroke-width:1.0;" width="10" x="539" y="149.7266"/><rect fill="#FFFFFF" height="29.1328" style="stroke:#181818;stroke-width:1.0;" width="10" x="539" y="207.9922"/><rect fill="#FFFFFF" height="29.1328" style="stroke:#181818;stroke-width:1.0;" width="10" x="539" y="266.2578"/><rect fill="#FFFFFF" height="29.1328" style="stroke:#181818;stroke-width:1.0;" width="10" x="539" y="324.5234"/><polygon fill="#181818" points="527,145.7266,537,149.7266,527,153.7266,531,149.7266" style="stroke:#181818;stroke-width:1.0;"/><line style="stroke:#181818;stroke-width:1.0;" x1="81" x2="533" y1="149.7266" y2="149.7266"/><text fill="#000000" font-family="sans-serif" font-size="13" font-weight="bold" lengthAdjust="spacing" textLength="9" x="88" y="144.6606">1</text><text fill="#000000" font-family="sans-serif" font-size="13" lengthAdjust="spacing" textLength="149" x="101" y="144.6606">Navigate to index page</text><polygon fill="#181818" points="92,174.8594,82,178.8594,92,182.8594,88,178.8594" style="stroke:#181818;stroke-width:1.0;"/><line style="stroke:#181818;stroke-width:1.0;" x1="86" x2="543" y1="178.8594" y2="178.8594"/><text fill="#000000" font-family="sans-serif" font-size="13" font-weight="bold" lengthAdjust="spacing" textLength="9" x="98" y="173.7935">2</text><text fill="#000000" font-family="sans-serif" font-size="13" lengthAdjust="spacing" textLength="122" x="111" y="173.7935">Display index page</text><polygon fill="#181818" points="527,203.9922,537,207.9922,527,211.9922,531,207.9922" style="stroke:#181818;stroke-width:1.0;"/><line style="stroke:#181818;stroke-width:1.0;" x1="81" x2="533" y1="207.9922" y2="207.9922"/><text fill="#000000" font-family="sans-serif" font-size="13" font-weight="bold" lengthAdjust="spacing" textLength="8" x="88" y="202.9263">3</text><text fill="#000000" font-family="sans-serif" font-size="13" lengthAdjust="spacing" textLength="147" x="100" y="202.9263">Sort posts by "Popular"</text><polygon fill="#181818" points="92,233.125,82,237.125,92,241.125,88,237.125" style="stroke:#181818;stroke-width:1.0;"/><line style="stroke:#181818;stroke-width:1.0;" x1="86" x2="543" y1="237.125" y2="237.125"/><text fill="#000000" font-family="sans-serif" font-size="13" font-weight="bold" lengthAdjust="spacing" textLength="9" x="98" y="232.0591">4</text><text fill="#000000" font-family="sans-serif" font-size="13" lengthAdjust="spacing" textLength="400" x="111" y="232.0591">Display "Show me purple" post with "Please comment me" link</text><polygon fill="#181818" points="527,262.2578,537,266.2578,527,270.2578,531,266.2578" style="stroke:#181818;stroke-width:1.0;"/><line style="stroke:#181818;stroke-width:1.0;" x1="81" x2="533" y1="266.2578" y2="266.2578"/><text fill="#000000" font-family="sans-serif" font-size="13" font-weight="bold" lengthAdjust="spacing" textLength="9" x="88" y="261.1919">5</text><text fill="#000000" font-family="sans-serif" font-size="13" lengthAdjust="spacing" textLength="144" x="101" y="261.1919">Sort posts by "Recent"</text><polygon fill="#181818" points="92,291.3906,82,295.3906,92,299.3906,88,295.3906" style="stroke:#181818;stroke-width:1.0;"/><line style="stroke:#181818;stroke-width:1.0;" x1="86" x2="543" y1="295.3906" y2="295.3906"/><text fill="#000000" font-family="sans-serif" font-size="13" font-weight="bold" lengthAdjust="spacing" textLength="9" x="98" y="290.3247">6</text><text fill="#000000" font-family="sans-serif" font-size="13" lengthAdjust="spacing" textLength="421" x="111" y="290.3247">Display "Show me purple" post without "Please comment me" link</text><polygon fill="#181818" points="527,320.5234,537,324.5234,527,328.5234,531,324.5234" style="stroke:#181818;stroke-width:1.0;"/><line style="stroke:#181818;stroke-width:1.0;" x1="81" x2="533" y1="324.5234" y2="324.5234"/><text fill="#000000" font-family="sans-serif" font-size="13" font-weight="bold" lengthAdjust="spacing" textLength="9" x="88" y="319.4575">7</text><text fill="#000000" font-family="sans-serif" font-size="13" lengthAdjust="spacing" textLength="164" x="101" y="319.4575">Sort posts by "Unpopular"</text><polygon fill="#181818" points="87,349.6563,77,353.6563,87,357.6563,83,353.6563" style="stroke:#181818;stroke-width:1.0;"/><line style="stroke:#181818;stroke-width:1.0;" x1="81" x2="543" y1="353.6563" y2="353.6563"/><text fill="#000000" font-family="sans-serif" font-size="13" font-weight="bold" lengthAdjust="spacing" textLength="9" x="93" y="348.5903">8</text><text fill="#000000" font-family="sans-serif" font-size="13" lengthAdjust="spacing" textLength="421" x="106" y="348.5903">Display "Show me purple" post without "Please comment me" link</text><!--SRC=[jP6nJiCm48PtFyN9UmVM3anTa015H3p0rJaSAxRFiYyDUNkS9Y2en5AefxFlztU_VvV1nOGP0mIERFhCWK3oIAfyTHAQ0IsrCdk2J4OmMlzTK7hiU7BHmXlwGag9aofjsyCTxE29mf4oF4IXZ4OAJ4vwQBW8j9obNbCAH-4uBhfQ6-4C-f6jfMxduWRGW6KhLHqhphY4KK2tSn4Av_PQAWLrLOmxeT3ddULiixAxtvHxUCQJiujA65piwBs-rj9Fm4Q5RQtR1RBYzd1m9NcSBm4TNI9-CR740Aa6Kk0uWsuuZHwpljA5RdkUe7vZ6dFofC_aDNJTUC92O3W4gjc5slKk3d-o-qAcilxVBOzo6yElCTqguIiyNvokipu0]--></g></svg>