<?xml version="1.0" encoding="us-ascii" standalone="no"?><svg xmlns="http://www.w3.org/2000/svg" xmlns:xlink="http://www.w3.org/1999/xlink" contentStyleType="text/css" height="394px" preserveAspectRatio="none" style="width:563px;height:394px;background:#FFFFFF;" version="1.1" viewBox="0 0 563 394" width="563px" zoomAndPan="magnify"><defs/><g><text fill="#000000" font-family="sans-serif" font-size="14" font-weight="bold" lengthAdjust="spacing" textLength="392" x="84.5" y="27.9951">SSD2 - Member Clicks "Please Comment Me" Link</text><rect fill="#FFFFFF" height="166.7969" style="stroke:#181818;stroke-width:1.0;" width="10" x="71" y="128.5938"/><rect fill="#FFFFFF" height="29.1328" style="stroke:#181818;stroke-width:1.0;" width="10" x="518" y="149.7266"/><rect fill="#FFFFFF" height="29.1328" style="stroke:#181818;stroke-width:1.0;" width="10" x="518" y="207.9922"/><rect fill="#FFFFFF" height="29.1328" style="stroke:#181818;stroke-width:1.0;" width="10" x="518" y="266.2578"/><line style="stroke:#181818;stroke-width:0.5;stroke-dasharray:5.0,5.0;" x1="76" x2="76" y1="118.5938" y2="313.3906"/><line style="stroke:#181818;stroke-width:0.5;stroke-dasharray:5.0,5.0;" x1="523" x2="523" y1="118.5938" y2="313.3906"/><text fill="#000000" font-family="sans-serif" font-size="14" lengthAdjust="spacing" textLength="136" x="5" y="115.292">Logged-in Member</text><ellipse cx="76" cy="50.7969" fill="#E3E3E3" rx="8" ry="8" style="stroke:#181818;stroke-width:0.5;"/><path d="M76,58.7969 L76,85.7969 M63,66.7969 L89,66.7969 M76,85.7969 L63,100.7969 M76,85.7969 L89,100.7969 " fill="none" style="stroke:#181818;stroke-width:0.5;"/><text fill="#000000" font-family="sans-serif" font-size="14" lengthAdjust="spacing" textLength="136" x="5" y="325.3857">Logged-in Member</text><ellipse cx="76" cy="337.1875" fill="#E3E3E3" rx="8" ry="8" style="stroke:#181818;stroke-width:0.5;"/><path d="M76,345.1875 L76,372.1875 M63,353.1875 L89,353.1875 M76,372.1875 L63,387.1875 M76,372.1875 L89,387.1875 " fill="none" style="stroke:#181818;stroke-width:0.5;"/><rect fill="#E3E3E3" height="30.2969" rx="2.5" ry="2.5" style="stroke:#181818;stroke-width:0.5;" width="68" x="489" y="87.2969"/><text fill="#000000" font-family="sans-serif" font-size="14" lengthAdjust="spacing" textLength="54" x="496" y="107.292">System</text><rect fill="#E3E3E3" height="30.2969" rx="2.5" ry="2.5" style="stroke:#181818;stroke-width:0.5;" width="68" x="489" y="312.3906"/><text fill="#000000" font-family="sans-serif" font-size="14" lengthAdjust="spacing" textLength="54" x="496" y="332.3857">System</text><rect fill="#FFFFFF" height="166.7969" style="stroke:#181818;stroke-width:1.0;" width="10" x="71" y="128.5938"/><rect fill="#FFFFFF" height="29.1328" style="stroke:#181818;stroke-width:1.0;" width="10" x="518" y="149.7266"/><rect fill="#FFFFFF" height="29.1328" style="stroke:#181818;stroke-width:1.0;" width="10" x="518" y="207.9922"/><rect fill="#FFFFFF" height="29.1328" style="stroke:#181818;stroke-width:1.0;" width="10" x="518" y="266.2578"/><polygon fill="#181818" points="506,145.7266,516,149.7266,506,153.7266,510,149.7266" style="stroke:#181818;stroke-width:1.0;"/><line style="stroke:#181818;stroke-width:1.0;" x1="81" x2="512" y1="149.7266" y2="149.7266"/><text fill="#000000" font-family="sans-serif" font-size="13" font-weight="bold" lengthAdjust="spacing" textLength="9" x="88" y="144.6606">1</text><text fill="#000000" font-family="sans-serif" font-size="13" lengthAdjust="spacing" textLength="149" x="101" y="144.6606">Navigate to index page</text><polygon fill="#181818" points="92,174.8594,82,178.8594,92,182.8594,88,178.8594" style="stroke:#181818;stroke-width:1.0;"/><line style="stroke:#181818;stroke-width:1.0;" x1="86" x2="522" y1="178.8594" y2="178.8594"/><text fill="#000000" font-family="sans-serif" font-size="13" font-weight="bold" lengthAdjust="spacing" textLength="9" x="98" y="173.7935">2</text><text fill="#000000" font-family="sans-serif" font-size="13" lengthAdjust="spacing" textLength="122" x="111" y="173.7935">Display index page</text><polygon fill="#181818" points="506,203.9922,516,207.9922,506,211.9922,510,207.9922" style="stroke:#181818;stroke-width:1.0;"/><line style="stroke:#181818;stroke-width:1.0;" x1="81" x2="512" y1="207.9922" y2="207.9922"/><text fill="#000000" font-family="sans-serif" font-size="13" font-weight="bold" lengthAdjust="spacing" textLength="8" x="88" y="202.9263">3</text><text fill="#000000" font-family="sans-serif" font-size="13" lengthAdjust="spacing" textLength="147" x="100" y="202.9263">Sort posts by "Popular"</text><polygon fill="#181818" points="92,233.125,82,237.125,92,241.125,88,237.125" style="stroke:#181818;stroke-width:1.0;"/><line style="stroke:#181818;stroke-width:1.0;" x1="86" x2="522" y1="237.125" y2="237.125"/><text fill="#000000" font-family="sans-serif" font-size="13" font-weight="bold" lengthAdjust="spacing" textLength="9" x="98" y="232.0591">4</text><text fill="#000000" font-family="sans-serif" font-size="13" lengthAdjust="spacing" textLength="400" x="111" y="232.0591">Display "Show me purple" post with "Please comment me" link</text><polygon fill="#181818" points="506,262.2578,516,266.2578,506,270.2578,510,266.2578" style="stroke:#181818;stroke-width:1.0;"/><line style="stroke:#181818;stroke-width:1.0;" x1="81" x2="512" y1="266.2578" y2="266.2578"/><text fill="#000000" font-family="sans-serif" font-size="13" font-weight="bold" lengthAdjust="spacing" textLength="9" x="88" y="261.1919">5</text><text fill="#000000" font-family="sans-serif" font-size="13" lengthAdjust="spacing" textLength="371" x="101" y="261.1919">Click "Please comment me" link on "Show me purple" post</text><polygon fill="#181818" points="87,291.3906,77,295.3906,87,299.3906,83,295.3906" style="stroke:#181818;stroke-width:1.0;"/><line style="stroke:#181818;stroke-width:1.0;" x1="81" x2="522" y1="295.3906" y2="295.3906"/><text fill="#000000" font-family="sans-serif" font-size="13" font-weight="bold" lengthAdjust="spacing" textLength="9" x="93" y="290.3247">6</text><text fill="#000000" font-family="sans-serif" font-size="13" lengthAdjust="spacing" textLength="399" x="106" y="290.3247">Navigate to comment posting page for "Show me purple" post</text><!--SRC=[dPAnSiCW38PtFuNEUvQE6ReaOzhhdPz0mGhc38W3EQdVlc2JN2vjXfH9eFy-IRz8e_418pfmx5aDaHs1n8cQTCi4L2DgwcIs196KeDVsNf06xFbYl8OJsaHD8qQojElsRx213t97Yh2pHeq9sYzBc0Xsx1nvoTaM3iQFJOEJi9-ADiTAE49xOAsftnXV8IrWgc6JIujH9c26jDsSXDoINiC5OSueTDL3FhMLpNjLRU4JpqONbJ0OtzDtdbRJ8hu1AX7gMQy5ikAsi3SfM9mV0Jqz8fuqqN4K29mamN7E3d6OBCRsdrsqtS0No6iCKmmssrl8S34otCnNrNoNixQO_rAxooQVie3ztosyECxzPgur2gPyis8ndCeFULhezpGFhskT7m00]--></g></svg>