<?xml version="1.0" encoding="us-ascii" standalone="no"?><svg xmlns="http://www.w3.org/2000/svg" xmlns:xlink="http://www.w3.org/1999/xlink" contentStyleType="text/css" height="436px" preserveAspectRatio="none" style="width:702px;height:436px;background:#FFFFFF;" version="1.1" viewBox="0 0 702 436" width="702px" zoomAndPan="magnify"><defs/><g><text fill="#000000" font-family="sans-serif" font-size="14" font-weight="bold" lengthAdjust="spacing" textLength="674" x="10" y="27.9951">System Sequence Diagram (SSD) - The post with more comments for a specific day</text><rect fill="#FFFFFF" height="208.9297" style="stroke:#181818;stroke-width:1.0;" width="10" x="78.5" y="128.5938"/><rect fill="#FFFFFF" height="29.1328" style="stroke:#181818;stroke-width:1.0;" width="10" x="360.5" y="149.7266"/><rect fill="#FFFFFF" height="29.1328" style="stroke:#181818;stroke-width:1.0;" width="10" x="360.5" y="207.9922"/><rect fill="#FFFFFF" height="71.2656" style="stroke:#181818;stroke-width:1.0;" width="10" x="360.5" y="266.2578"/><line style="stroke:#181818;stroke-width:0.5;stroke-dasharray:5.0,5.0;" x1="83.5" x2="83.5" y1="118.5938" y2="355.5234"/><line style="stroke:#181818;stroke-width:0.5;stroke-dasharray:5.0,5.0;" x1="365.5" x2="365.5" y1="118.5938" y2="355.5234"/><text fill="#000000" font-family="sans-serif" font-size="14" lengthAdjust="spacing" textLength="60" x="50.5" y="115.292">Member</text><ellipse cx="83.5" cy="50.7969" fill="#E3E3E3" rx="8" ry="8" style="stroke:#181818;stroke-width:0.5;"/><path d="M83.5,58.7969 L83.5,85.7969 M70.5,66.7969 L96.5,66.7969 M83.5,85.7969 L70.5,100.7969 M83.5,85.7969 L96.5,100.7969 " fill="none" style="stroke:#181818;stroke-width:0.5;"/><text fill="#000000" font-family="sans-serif" font-size="14" lengthAdjust="spacing" textLength="60" x="50.5" y="367.5186">Member</text><ellipse cx="83.5" cy="379.3203" fill="#E3E3E3" rx="8" ry="8" style="stroke:#181818;stroke-width:0.5;"/><path d="M83.5,387.3203 L83.5,414.3203 M70.5,395.3203 L96.5,395.3203 M83.5,414.3203 L70.5,429.3203 M83.5,414.3203 L96.5,429.3203 " fill="none" style="stroke:#181818;stroke-width:0.5;"/><rect fill="#E3E3E3" height="30.2969" rx="2.5" ry="2.5" style="stroke:#181818;stroke-width:0.5;" width="68" x="331.5" y="87.2969"/><text fill="#000000" font-family="sans-serif" font-size="14" lengthAdjust="spacing" textLength="54" x="338.5" y="107.292">System</text><rect fill="#E3E3E3" height="30.2969" rx="2.5" ry="2.5" style="stroke:#181818;stroke-width:0.5;" width="68" x="331.5" y="354.5234"/><text fill="#000000" font-family="sans-serif" font-size="14" lengthAdjust="spacing" textLength="54" x="338.5" y="374.5186">System</text><rect fill="#FFFFFF" height="208.9297" style="stroke:#181818;stroke-width:1.0;" width="10" x="78.5" y="128.5938"/><rect fill="#FFFFFF" height="29.1328" style="stroke:#181818;stroke-width:1.0;" width="10" x="360.5" y="149.7266"/><rect fill="#FFFFFF" height="29.1328" style="stroke:#181818;stroke-width:1.0;" width="10" x="360.5" y="207.9922"/><rect fill="#FFFFFF" height="71.2656" style="stroke:#181818;stroke-width:1.0;" width="10" x="360.5" y="266.2578"/><polygon fill="#181818" points="348.5,145.7266,358.5,149.7266,348.5,153.7266,352.5,149.7266" style="stroke:#181818;stroke-width:1.0;"/><line style="stroke:#181818;stroke-width:1.0;" x1="88.5" x2="354.5" y1="149.7266" y2="149.7266"/><text fill="#000000" font-family="sans-serif" font-size="13" font-weight="bold" lengthAdjust="spacing" textLength="9" x="95.5" y="144.6606">1</text><text fill="#000000" font-family="sans-serif" font-size="13" lengthAdjust="spacing" textLength="38" x="108.5" y="144.6606">Log in</text><polygon fill="#181818" points="99.5,174.8594,89.5,178.8594,99.5,182.8594,95.5,178.8594" style="stroke:#181818;stroke-width:1.0;"/><line style="stroke:#181818;stroke-width:1.0;stroke-dasharray:2.0,2.0;" x1="93.5" x2="364.5" y1="178.8594" y2="178.8594"/><text fill="#000000" font-family="sans-serif" font-size="13" font-weight="bold" lengthAdjust="spacing" textLength="9" x="105.5" y="173.7935">2</text><text fill="#000000" font-family="sans-serif" font-size="13" lengthAdjust="spacing" textLength="100" x="118.5" y="173.7935">Logs in account</text><polygon fill="#181818" points="348.5,203.9922,358.5,207.9922,348.5,211.9922,352.5,207.9922" style="stroke:#181818;stroke-width:1.0;"/><line style="stroke:#181818;stroke-width:1.0;" x1="88.5" x2="354.5" y1="207.9922" y2="207.9922"/><text fill="#000000" font-family="sans-serif" font-size="13" font-weight="bold" lengthAdjust="spacing" textLength="8" x="95.5" y="202.9263">3</text><text fill="#000000" font-family="sans-serif" font-size="13" lengthAdjust="spacing" textLength="90" x="107.5" y="202.9263">Click statistics</text><polygon fill="#181818" points="99.5,233.125,89.5,237.125,99.5,241.125,95.5,237.125" style="stroke:#181818;stroke-width:1.0;"/><line style="stroke:#181818;stroke-width:1.0;stroke-dasharray:2.0,2.0;" x1="93.5" x2="364.5" y1="237.125" y2="237.125"/><text fill="#000000" font-family="sans-serif" font-size="13" font-weight="bold" lengthAdjust="spacing" textLength="9" x="105.5" y="232.0591">4</text><text fill="#000000" font-family="sans-serif" font-size="13" lengthAdjust="spacing" textLength="164" x="118.5" y="232.0591">Statistics page displayed:</text><polygon fill="#181818" points="348.5,262.2578,358.5,266.2578,348.5,270.2578,352.5,266.2578" style="stroke:#181818;stroke-width:1.0;"/><line style="stroke:#181818;stroke-width:1.0;" x1="88.5" x2="354.5" y1="266.2578" y2="266.2578"/><text fill="#000000" font-family="sans-serif" font-size="13" font-weight="bold" lengthAdjust="spacing" textLength="9" x="95.5" y="261.1919">5</text><text fill="#000000" font-family="sans-serif" font-size="13" lengthAdjust="spacing" textLength="240" x="108.5" y="261.1919">Writes a specific day on specific field.</text><line style="stroke:#181818;stroke-width:1.0;" x1="370.5" x2="412.5" y1="295.3906" y2="295.3906"/><line style="stroke:#181818;stroke-width:1.0;" x1="412.5" x2="412.5" y1="295.3906" y2="308.3906"/><line style="stroke:#181818;stroke-width:1.0;" x1="371.5" x2="412.5" y1="308.3906" y2="308.3906"/><polygon fill="#181818" points="381.5,304.3906,371.5,308.3906,381.5,312.3906,377.5,308.3906" style="stroke:#181818;stroke-width:1.0;"/><text fill="#000000" font-family="sans-serif" font-size="13" font-weight="bold" lengthAdjust="spacing" textLength="9" x="377.5" y="290.3247">6</text><text fill="#000000" font-family="sans-serif" font-size="13" lengthAdjust="spacing" textLength="247" x="390.5" y="290.3247">Search the Post With more Comments</text><polygon fill="#181818" points="94.5,333.5234,84.5,337.5234,94.5,341.5234,90.5,337.5234" style="stroke:#181818;stroke-width:1.0;"/><line style="stroke:#181818;stroke-width:1.0;stroke-dasharray:2.0,2.0;" x1="88.5" x2="364.5" y1="337.5234" y2="337.5234"/><text fill="#000000" font-family="sans-serif" font-size="13" font-weight="bold" lengthAdjust="spacing" textLength="9" x="100.5" y="332.4575">7</text><text fill="#000000" font-family="sans-serif" font-size="13" lengthAdjust="spacing" textLength="110" x="113.5" y="332.4575">Display Post Title</text><!--SRC=[bL8nRiCm3Dpr2Y9JEwGFoD0b6LkWW09aPcNQ9c99haWtyEyhHuvJ94NHQX4btP5tECcHGuy9FVWOecjJz0IQ1ZAolFJeZjYGrR4ZIEGKGzDz1qYBLJnnQA36JiWOPSrGEugI1qiV0mL7i6Di9lY3jRj7MCE-9UYZA9nOspm_4RZeFGKLg6C21Ed9SSqEAXoDmK5Z6FmxfLmxpOZLAqt75Q10AKrMfEounw2mAWhEpwKy4_aJbIvuKtPOFy-G3Rp41ZWOo6j1N-WmhzdREjDAWpDDCYzpN1o2Bj2AVknoFtVRiJk2A2fBzY3_Lc0NQiwi8QXO-Wv7gZR_5tD8h2Gt6K0CrtFDr5LFVnDvxMi9asj1S_PlK_Q79VljdFrl3dV5KQ7kfrzMPjtRkhaj3Ru0]--></g></svg>