<?xml version="1.0" encoding="us-ascii" standalone="no"?><svg xmlns="http://www.w3.org/2000/svg" xmlns:xlink="http://www.w3.org/1999/xlink" contentStyleType="text/css" height="945px" preserveAspectRatio="none" style="width:1739px;height:945px;background:#FFFFFF;" version="1.1" viewBox="0 0 1739 945" width="1739px" zoomAndPan="magnify"><defs/><g><text fill="#000000" font-family="sans-serif" font-size="14" font-weight="bold" lengthAdjust="spacing" textLength="381" x="678" y="27.9951">Sequence Diagram (SD) - US002 - Create a Post</text><rect fill="#FFFFFF" height="718.0547" style="stroke:#181818;stroke-width:1.0;" width="10" x="33" y="128.5938"/><rect fill="#FFFFFF" height="696.9219" style="stroke:#181818;stroke-width:1.0;" width="10" x="294" y="149.7266"/><rect fill="#FFFFFF" height="638.6563" style="stroke:#181818;stroke-width:1.0;" width="10" x="498.5" y="178.8594"/><rect fill="#CCCCCC" height="565.3906" style="stroke:#181818;stroke-width:1.0;" width="10" x="503.5" y="215.9922"/><rect fill="#FFFFFF" height="29.1328" style="stroke:#181818;stroke-width:1.0;" width="10" x="710" y="250.125"/><rect fill="#FFFFFF" height="437.8594" style="stroke:#181818;stroke-width:1.0;" width="10" x="838" y="308.3906"/><rect fill="#FFFFFF" height="29.1328" style="stroke:#181818;stroke-width:1.0;" width="10" x="966.5" y="395.7891"/><rect fill="#FFFFFF" height="29.1328" style="stroke:#181818;stroke-width:1.0;" width="10" x="1055.5" y="454.0547"/><rect fill="#FFFFFF" height="29.1328" style="stroke:#181818;stroke-width:1.0;" width="10" x="1143" y="512.3203"/><rect fill="#FFFFFF" height="29.1328" style="stroke:#181818;stroke-width:1.0;" width="10" x="1229" y="570.5859"/><rect fill="#FFFFFF" height="29.1328" style="stroke:#181818;stroke-width:1.0;" width="10" x="1300" y="628.8516"/><rect fill="#FFFFFF" height="29.1328" style="stroke:#181818;stroke-width:1.0;" width="10" x="1443.5" y="337.5234"/><rect fill="#FFFFFF" height="30" style="stroke:#181818;stroke-width:1.0;" width="10" x="1646" y="687.1172"/><line style="stroke:#181818;stroke-width:0.5;stroke-dasharray:5.0,5.0;" x1="38" x2="38" y1="118.5938" y2="864.6484"/><line style="stroke:#181818;stroke-width:0.5;stroke-dasharray:5.0,5.0;" x1="299" x2="299" y1="118.5938" y2="864.6484"/><line style="stroke:#181818;stroke-width:0.5;stroke-dasharray:5.0,5.0;" x1="503" x2="503" y1="118.5938" y2="864.6484"/><line style="stroke:#181818;stroke-width:0.5;stroke-dasharray:5.0,5.0;" x1="715" x2="715" y1="118.5938" y2="864.6484"/><line style="stroke:#181818;stroke-width:0.5;stroke-dasharray:5.0,5.0;" x1="843" x2="843" y1="118.5938" y2="864.6484"/><line style="stroke:#181818;stroke-width:0.5;stroke-dasharray:5.0,5.0;" x1="971" x2="971" y1="118.5938" y2="864.6484"/><line style="stroke:#181818;stroke-width:0.5;stroke-dasharray:5.0,5.0;" x1="1060" x2="1060" y1="118.5938" y2="864.6484"/><line style="stroke:#181818;stroke-width:0.5;stroke-dasharray:5.0,5.0;" x1="1148" x2="1148" y1="118.5938" y2="864.6484"/><line style="stroke:#181818;stroke-width:0.5;stroke-dasharray:5.0,5.0;" x1="1234" x2="1234" y1="118.5938" y2="864.6484"/><line style="stroke:#181818;stroke-width:0.5;stroke-dasharray:5.0,5.0;" x1="1305" x2="1305" y1="118.5938" y2="864.6484"/><line style="stroke:#181818;stroke-width:0.5;stroke-dasharray:5.0,5.0;" x1="1448" x2="1448" y1="118.5938" y2="864.6484"/><line style="stroke:#181818;stroke-width:0.5;stroke-dasharray:5.0,5.0;" x1="1651" x2="1651" y1="118.5938" y2="864.6484"/><text fill="#000000" font-family="sans-serif" font-size="14" lengthAdjust="spacing" textLength="60" x="5" y="115.292">Member</text><ellipse cx="38" cy="50.7969" fill="#E3E3E3" rx="8" ry="8" style="stroke:#181818;stroke-width:0.5;"/><path d="M38,58.7969 L38,85.7969 M25,66.7969 L51,66.7969 M38,85.7969 L25,100.7969 M38,85.7969 L51,100.7969 " fill="none" style="stroke:#181818;stroke-width:0.5;"/><text fill="#000000" font-family="sans-serif" font-size="14" lengthAdjust="spacing" textLength="60" x="5" y="876.6436">Member</text><ellipse cx="38" cy="888.4453" fill="#E3E3E3" rx="8" ry="8" style="stroke:#181818;stroke-width:0.5;"/><path d="M38,896.4453 L38,923.4453 M25,904.4453 L51,904.4453 M38,923.4453 L25,938.4453 M38,923.4453 L51,938.4453 " fill="none" style="stroke:#181818;stroke-width:0.5;"/><rect fill="#E3E3E3" height="30.2969" rx="2.5" ry="2.5" style="stroke:#181818;stroke-width:0.5;" width="64" x="267" y="87.2969"/><text fill="#000000" font-family="sans-serif" font-size="14" lengthAdjust="spacing" textLength="50" x="274" y="107.292">Routes</text><rect fill="#E3E3E3" height="30.2969" rx="2.5" ry="2.5" style="stroke:#181818;stroke-width:0.5;" width="64" x="267" y="863.6484"/><text fill="#000000" font-family="sans-serif" font-size="14" lengthAdjust="spacing" textLength="50" x="274" y="883.6436">Routes</text><rect fill="#E3E3E3" height="30.2969" rx="2.5" ry="2.5" style="stroke:#181818;stroke-width:0.5;" width="325" x="341" y="87.2969"/><text fill="#000000" font-family="sans-serif" font-size="14" lengthAdjust="spacing" textLength="311" x="348" y="107.292">createPostController:CreatePostController</text><rect fill="#E3E3E3" height="30.2969" rx="2.5" ry="2.5" style="stroke:#181818;stroke-width:0.5;" width="325" x="341" y="863.6484"/><text fill="#000000" font-family="sans-serif" font-size="14" lengthAdjust="spacing" textLength="311" x="348" y="883.6436">createPostController:CreatePostController</text><rect fill="#E3E3E3" height="30.2969" rx="2.5" ry="2.5" style="stroke:#181818;stroke-width:0.5;" width="78" x="676" y="87.2969"/><text fill="#000000" font-family="sans-serif" font-size="14" lengthAdjust="spacing" textLength="64" x="683" y="107.292">TextUtils</text><rect fill="#E3E3E3" height="30.2969" rx="2.5" ry="2.5" style="stroke:#181818;stroke-width:0.5;" width="78" x="676" y="863.6484"/><text fill="#000000" font-family="sans-serif" font-size="14" lengthAdjust="spacing" textLength="64" x="683" y="883.6436">TextUtils</text><rect fill="#E3E3E3" height="30.2969" rx="2.5" ry="2.5" style="stroke:#181818;stroke-width:0.5;" width="158" x="764" y="87.2969"/><text fill="#000000" font-family="sans-serif" font-size="14" lengthAdjust="spacing" textLength="144" x="771" y="107.292">useCase:CreatePost</text><rect fill="#E3E3E3" height="30.2969" rx="2.5" ry="2.5" style="stroke:#181818;stroke-width:0.5;" width="158" x="764" y="863.6484"/><text fill="#000000" font-family="sans-serif" font-size="14" lengthAdjust="spacing" textLength="144" x="771" y="883.6436">useCase:CreatePost</text><rect fill="#E3E3E3" height="30.2969" rx="2.5" ry="2.5" style="stroke:#181818;stroke-width:0.5;" width="79" x="932" y="87.2969"/><text fill="#000000" font-family="sans-serif" font-size="14" lengthAdjust="spacing" textLength="65" x="939" y="107.292">PostTitle</text><rect fill="#E3E3E3" height="30.2969" rx="2.5" ry="2.5" style="stroke:#181818;stroke-width:0.5;" width="79" x="932" y="863.6484"/><text fill="#000000" font-family="sans-serif" font-size="14" lengthAdjust="spacing" textLength="65" x="939" y="883.6436">PostTitle</text><rect fill="#E3E3E3" height="30.2969" rx="2.5" ry="2.5" style="stroke:#181818;stroke-width:0.5;" width="79" x="1021" y="87.2969"/><text fill="#000000" font-family="sans-serif" font-size="14" lengthAdjust="spacing" textLength="65" x="1028" y="107.292">PostText</text><rect fill="#E3E3E3" height="30.2969" rx="2.5" ry="2.5" style="stroke:#181818;stroke-width:0.5;" width="79" x="1021" y="863.6484"/><text fill="#000000" font-family="sans-serif" font-size="14" lengthAdjust="spacing" textLength="65" x="1028" y="883.6436">PostText</text><rect fill="#E3E3E3" height="30.2969" rx="2.5" ry="2.5" style="stroke:#181818;stroke-width:0.5;" width="76" x="1110" y="87.2969"/><text fill="#000000" font-family="sans-serif" font-size="14" lengthAdjust="spacing" textLength="62" x="1117" y="107.292">PostLink</text><rect fill="#E3E3E3" height="30.2969" rx="2.5" ry="2.5" style="stroke:#181818;stroke-width:0.5;" width="76" x="1110" y="863.6484"/><text fill="#000000" font-family="sans-serif" font-size="14" lengthAdjust="spacing" textLength="62" x="1117" y="883.6436">PostLink</text><rect fill="#E3E3E3" height="30.2969" rx="2.5" ry="2.5" style="stroke:#181818;stroke-width:0.5;" width="76" x="1196" y="87.2969"/><text fill="#000000" font-family="sans-serif" font-size="14" lengthAdjust="spacing" textLength="62" x="1203" y="107.292">PostSlug</text><rect fill="#E3E3E3" height="30.2969" rx="2.5" ry="2.5" style="stroke:#181818;stroke-width:0.5;" width="76" x="1196" y="863.6484"/><text fill="#000000" font-family="sans-serif" font-size="14" lengthAdjust="spacing" textLength="62" x="1203" y="883.6436">PostSlug</text><rect fill="#E3E3E3" height="30.2969" rx="2.5" ry="2.5" style="stroke:#181818;stroke-width:0.5;" width="46" x="1282" y="87.2969"/><text fill="#000000" font-family="sans-serif" font-size="14" lengthAdjust="spacing" textLength="32" x="1289" y="107.292">Post</text><rect fill="#E3E3E3" height="30.2969" rx="2.5" ry="2.5" style="stroke:#181818;stroke-width:0.5;" width="46" x="1282" y="863.6484"/><text fill="#000000" font-family="sans-serif" font-size="14" lengthAdjust="spacing" textLength="32" x="1289" y="883.6436">Post</text><rect fill="#E3E3E3" height="30.2969" rx="2.5" ry="2.5" style="stroke:#181818;stroke-width:0.5;" width="221" x="1338" y="87.2969"/><text fill="#000000" font-family="sans-serif" font-size="14" lengthAdjust="spacing" textLength="207" x="1345" y="107.292">memberRepo:IMemberRepo</text><rect fill="#E3E3E3" height="30.2969" rx="2.5" ry="2.5" style="stroke:#181818;stroke-width:0.5;" width="221" x="1338" y="863.6484"/><text fill="#000000" font-family="sans-serif" font-size="14" lengthAdjust="spacing" textLength="207" x="1345" y="883.6436">memberRepo:IMemberRepo</text><rect fill="#E3E3E3" height="30.2969" rx="2.5" ry="2.5" style="stroke:#181818;stroke-width:0.5;" width="164" x="1569" y="87.2969"/><text fill="#000000" font-family="sans-serif" font-size="14" lengthAdjust="spacing" textLength="150" x="1576" y="107.292">postRepo:IPostRepo</text><rect fill="#E3E3E3" height="30.2969" rx="2.5" ry="2.5" style="stroke:#181818;stroke-width:0.5;" width="164" x="1569" y="863.6484"/><text fill="#000000" font-family="sans-serif" font-size="14" lengthAdjust="spacing" textLength="150" x="1576" y="883.6436">postRepo:IPostRepo</text><rect fill="#FFFFFF" height="718.0547" style="stroke:#181818;stroke-width:1.0;" width="10" x="33" y="128.5938"/><rect fill="#FFFFFF" height="696.9219" style="stroke:#181818;stroke-width:1.0;" width="10" x="294" y="149.7266"/><rect fill="#FFFFFF" height="638.6563" style="stroke:#181818;stroke-width:1.0;" width="10" x="498.5" y="178.8594"/><rect fill="#CCCCCC" height="565.3906" style="stroke:#181818;stroke-width:1.0;" width="10" x="503.5" y="215.9922"/><rect fill="#FFFFFF" height="29.1328" style="stroke:#181818;stroke-width:1.0;" width="10" x="710" y="250.125"/><rect fill="#FFFFFF" height="437.8594" style="stroke:#181818;stroke-width:1.0;" width="10" x="838" y="308.3906"/><rect fill="#FFFFFF" height="29.1328" style="stroke:#181818;stroke-width:1.0;" width="10" x="966.5" y="395.7891"/><rect fill="#FFFFFF" height="29.1328" style="stroke:#181818;stroke-width:1.0;" width="10" x="1055.5" y="454.0547"/><rect fill="#FFFFFF" height="29.1328" style="stroke:#181818;stroke-width:1.0;" width="10" x="1143" y="512.3203"/><rect fill="#FFFFFF" height="29.1328" style="stroke:#181818;stroke-width:1.0;" width="10" x="1229" y="570.5859"/><rect fill="#FFFFFF" height="29.1328" style="stroke:#181818;stroke-width:1.0;" width="10" x="1300" y="628.8516"/><rect fill="#FFFFFF" height="29.1328" style="stroke:#181818;stroke-width:1.0;" width="10" x="1443.5" y="337.5234"/><rect fill="#FFFFFF" height="30" style="stroke:#181818;stroke-width:1.0;" width="10" x="1646" y="687.1172"/><polygon fill="#181818" points="282,145.7266,292,149.7266,282,153.7266,286,149.7266" style="stroke:#181818;stroke-width:1.0;"/><line style="stroke:#181818;stroke-width:1.0;" x1="43" x2="288" y1="149.7266" y2="149.7266"/><text fill="#000000" font-family="sans-serif" font-size="13" font-weight="bold" lengthAdjust="spacing" textLength="9" x="50" y="144.6606">1</text><text fill="#000000" font-family="sans-serif" font-size="13" lengthAdjust="spacing" textLength="219" x="63" y="144.6606">HTTP Request: POST /api/v1/posts</text><polygon fill="#181818" points="486.5,174.8594,496.5,178.8594,486.5,182.8594,490.5,178.8594" style="stroke:#181818;stroke-width:1.0;"/><line style="stroke:#181818;stroke-width:1.0;" x1="304" x2="492.5" y1="178.8594" y2="178.8594"/><text fill="#000000" font-family="sans-serif" font-size="13" font-weight="bold" lengthAdjust="spacing" textLength="9" x="311" y="173.7935">2</text><text fill="#000000" font-family="sans-serif" font-size="13" lengthAdjust="spacing" textLength="111" x="324" y="173.7935">execute(req, res)</text><line style="stroke:#181818;stroke-width:1.0;" x1="508.5" x2="555.5" y1="202.9922" y2="202.9922"/><line style="stroke:#181818;stroke-width:1.0;" x1="555.5" x2="555.5" y1="202.9922" y2="215.9922"/><line style="stroke:#181818;stroke-width:1.0;" x1="514.5" x2="555.5" y1="215.9922" y2="215.9922"/><polygon fill="#181818" points="524.5,211.9922,514.5,215.9922,524.5,219.9922,520.5,215.9922" style="stroke:#181818;stroke-width:1.0;"/><text fill="#000000" font-family="sans-serif" font-size="13" font-weight="bold" lengthAdjust="spacing" textLength="8" x="520.5" y="197.9263">3</text><text fill="#000000" font-family="sans-serif" font-size="13" lengthAdjust="spacing" textLength="135" x="532.5" y="197.9263">executeImp(req, res)</text><polygon fill="#181818" points="698,246.125,708,250.125,698,254.125,702,250.125" style="stroke:#181818;stroke-width:1.0;"/><line style="stroke:#181818;stroke-width:1.0;" x1="513.5" x2="704" y1="250.125" y2="250.125"/><text fill="#000000" font-family="sans-serif" font-size="13" font-weight="bold" lengthAdjust="spacing" textLength="9" x="520.5" y="245.0591">4</text><text fill="#000000" font-family="sans-serif" font-size="13" lengthAdjust="spacing" textLength="59" x="533.5" y="245.0591">sanitize()</text><polygon fill="#181818" points="524.5,275.2578,514.5,279.2578,524.5,283.2578,520.5,279.2578" style="stroke:#181818;stroke-width:1.0;"/><line style="stroke:#181818;stroke-width:1.0;stroke-dasharray:2.0,2.0;" x1="518.5" x2="714" y1="279.2578" y2="279.2578"/><text fill="#000000" font-family="sans-serif" font-size="13" font-weight="bold" lengthAdjust="spacing" textLength="9" x="530.5" y="274.1919">5</text><text fill="#000000" font-family="sans-serif" font-size="13" lengthAdjust="spacing" textLength="21" x="543.5" y="274.1919">dto</text><polygon fill="#181818" points="826,304.3906,836,308.3906,826,312.3906,830,308.3906" style="stroke:#181818;stroke-width:1.0;"/><line style="stroke:#181818;stroke-width:1.0;" x1="513.5" x2="832" y1="308.3906" y2="308.3906"/><text fill="#000000" font-family="sans-serif" font-size="13" font-weight="bold" lengthAdjust="spacing" textLength="9" x="520.5" y="303.3247">6</text><text fill="#000000" font-family="sans-serif" font-size="13" lengthAdjust="spacing" textLength="83" x="533.5" y="303.3247">execute(dto)</text><polygon fill="#181818" points="1431.5,333.5234,1441.5,337.5234,1431.5,341.5234,1435.5,337.5234" style="stroke:#181818;stroke-width:1.0;"/><line style="stroke:#181818;stroke-width:1.0;" x1="848" x2="1437.5" y1="337.5234" y2="337.5234"/><text fill="#000000" font-family="sans-serif" font-size="13" font-weight="bold" lengthAdjust="spacing" textLength="9" x="855" y="332.4575">7</text><text fill="#000000" font-family="sans-serif" font-size="13" lengthAdjust="spacing" textLength="180" x="868" y="332.4575">getMemberByUserID(userId)</text><polygon fill="#181818" points="859,362.6563,849,366.6563,859,370.6563,855,366.6563" style="stroke:#181818;stroke-width:1.0;"/><line style="stroke:#181818;stroke-width:1.0;stroke-dasharray:2.0,2.0;" x1="853" x2="1447.5" y1="366.6563" y2="366.6563"/><text fill="#000000" font-family="sans-serif" font-size="13" font-weight="bold" lengthAdjust="spacing" textLength="9" x="865" y="361.5903">8</text><text fill="#000000" font-family="sans-serif" font-size="13" lengthAdjust="spacing" textLength="55" x="878" y="361.5903">member</text><polygon fill="#181818" points="954.5,391.7891,964.5,395.7891,954.5,399.7891,958.5,395.7891" style="stroke:#181818;stroke-width:1.0;"/><line style="stroke:#181818;stroke-width:1.0;" x1="848" x2="960.5" y1="395.7891" y2="395.7891"/><text fill="#000000" font-family="sans-serif" font-size="13" font-weight="bold" lengthAdjust="spacing" textLength="9" x="855" y="390.7231">9</text><text fill="#000000" font-family="sans-serif" font-size="13" lengthAdjust="spacing" textLength="51" x="868" y="390.7231">create()</text><polygon fill="#181818" points="859,420.9219,849,424.9219,859,428.9219,855,424.9219" style="stroke:#181818;stroke-width:1.0;"/><line style="stroke:#181818;stroke-width:1.0;stroke-dasharray:2.0,2.0;" x1="853" x2="970.5" y1="424.9219" y2="424.9219"/><text fill="#000000" font-family="sans-serif" font-size="13" font-weight="bold" lengthAdjust="spacing" textLength="19" x="865" y="419.856">10</text><text fill="#000000" font-family="sans-serif" font-size="13" lengthAdjust="spacing" textLength="70" x="888" y="419.856">titleOrError</text><polygon fill="#181818" points="1043.5,450.0547,1053.5,454.0547,1043.5,458.0547,1047.5,454.0547" style="stroke:#181818;stroke-width:1.0;"/><line style="stroke:#181818;stroke-width:1.0;" x1="848" x2="1049.5" y1="454.0547" y2="454.0547"/><text fill="#000000" font-family="sans-serif" font-size="13" font-weight="bold" lengthAdjust="spacing" textLength="18" x="855" y="448.9888">11</text><text fill="#000000" font-family="sans-serif" font-size="13" lengthAdjust="spacing" textLength="51" x="877" y="448.9888">create()</text><polygon fill="#181818" points="859,479.1875,849,483.1875,859,487.1875,855,483.1875" style="stroke:#181818;stroke-width:1.0;"/><line style="stroke:#181818;stroke-width:1.0;stroke-dasharray:2.0,2.0;" x1="853" x2="1059.5" y1="483.1875" y2="483.1875"/><text fill="#000000" font-family="sans-serif" font-size="13" font-weight="bold" lengthAdjust="spacing" textLength="18" x="865" y="478.1216">12</text><text fill="#000000" font-family="sans-serif" font-size="13" lengthAdjust="spacing" textLength="72" x="887" y="478.1216">textOrError</text><polygon fill="#181818" points="1131,508.3203,1141,512.3203,1131,516.3203,1135,512.3203" style="stroke:#181818;stroke-width:1.0;"/><line style="stroke:#181818;stroke-width:1.0;" x1="848" x2="1137" y1="512.3203" y2="512.3203"/><text fill="#000000" font-family="sans-serif" font-size="13" font-weight="bold" lengthAdjust="spacing" textLength="17" x="855" y="507.2544">13</text><text fill="#000000" font-family="sans-serif" font-size="13" lengthAdjust="spacing" textLength="51" x="876" y="507.2544">create()</text><polygon fill="#181818" points="859,537.4531,849,541.4531,859,545.4531,855,541.4531" style="stroke:#181818;stroke-width:1.0;"/><line style="stroke:#181818;stroke-width:1.0;stroke-dasharray:2.0,2.0;" x1="853" x2="1147" y1="541.4531" y2="541.4531"/><text fill="#000000" font-family="sans-serif" font-size="13" font-weight="bold" lengthAdjust="spacing" textLength="18" x="865" y="536.3872">14</text><text fill="#000000" font-family="sans-serif" font-size="13" lengthAdjust="spacing" textLength="67" x="887" y="536.3872">linkOrError</text><polygon fill="#181818" points="1217,566.5859,1227,570.5859,1217,574.5859,1221,570.5859" style="stroke:#181818;stroke-width:1.0;"/><line style="stroke:#181818;stroke-width:1.0;" x1="848" x2="1223" y1="570.5859" y2="570.5859"/><text fill="#000000" font-family="sans-serif" font-size="13" font-weight="bold" lengthAdjust="spacing" textLength="18" x="855" y="565.52">15</text><text fill="#000000" font-family="sans-serif" font-size="13" lengthAdjust="spacing" textLength="75" x="877" y="565.52">create(title)</text><polygon fill="#181818" points="859,595.7188,849,599.7188,859,603.7188,855,599.7188" style="stroke:#181818;stroke-width:1.0;"/><line style="stroke:#181818;stroke-width:1.0;stroke-dasharray:2.0,2.0;" x1="853" x2="1233" y1="599.7188" y2="599.7188"/><text fill="#000000" font-family="sans-serif" font-size="13" font-weight="bold" lengthAdjust="spacing" textLength="18" x="865" y="594.6528">16</text><text fill="#000000" font-family="sans-serif" font-size="13" lengthAdjust="spacing" textLength="72" x="887" y="594.6528">slugOrError</text><polygon fill="#181818" points="1288,624.8516,1298,628.8516,1288,632.8516,1292,628.8516" style="stroke:#181818;stroke-width:1.0;"/><line style="stroke:#181818;stroke-width:1.0;" x1="848" x2="1294" y1="628.8516" y2="628.8516"/><text fill="#000000" font-family="sans-serif" font-size="13" font-weight="bold" lengthAdjust="spacing" textLength="18" x="855" y="623.7856">17</text><text fill="#000000" font-family="sans-serif" font-size="13" lengthAdjust="spacing" textLength="115" x="877" y="623.7856">create(postProps)</text><polygon fill="#181818" points="859,653.9844,849,657.9844,859,661.9844,855,657.9844" style="stroke:#181818;stroke-width:1.0;"/><line style="stroke:#181818;stroke-width:1.0;stroke-dasharray:2.0,2.0;" x1="853" x2="1304" y1="657.9844" y2="657.9844"/><text fill="#000000" font-family="sans-serif" font-size="13" font-weight="bold" lengthAdjust="spacing" textLength="18" x="865" y="652.9185">18</text><text fill="#000000" font-family="sans-serif" font-size="13" lengthAdjust="spacing" textLength="74" x="887" y="652.9185">postOrError</text><polygon fill="#181818" points="1634,683.1172,1644,687.1172,1634,691.1172,1638,687.1172" style="stroke:#181818;stroke-width:1.0;"/><line style="stroke:#181818;stroke-width:1.0;" x1="848" x2="1640" y1="687.1172" y2="687.1172"/><text fill="#000000" font-family="sans-serif" font-size="13" font-weight="bold" lengthAdjust="spacing" textLength="18" x="855" y="682.0513">19</text><text fill="#000000" font-family="sans-serif" font-size="13" lengthAdjust="spacing" textLength="69" x="877" y="682.0513">save(post)</text><polygon fill="#181818" points="524.5,742.25,514.5,746.25,524.5,750.25,520.5,746.25" style="stroke:#181818;stroke-width:1.0;"/><line style="stroke:#181818;stroke-width:1.0;stroke-dasharray:2.0,2.0;" x1="518.5" x2="842" y1="746.25" y2="746.25"/><text fill="#000000" font-family="sans-serif" font-size="13" font-weight="bold" lengthAdjust="spacing" textLength="19" x="530.5" y="741.1841">20</text><text fill="#000000" font-family="sans-serif" font-size="13" lengthAdjust="spacing" textLength="36" x="553.5" y="741.1841">result</text><line style="stroke:#181818;stroke-width:1.0;stroke-dasharray:2.0,2.0;" x1="513.5" x2="555.5" y1="780.3828" y2="780.3828"/><line style="stroke:#181818;stroke-width:1.0;stroke-dasharray:2.0,2.0;" x1="555.5" x2="555.5" y1="780.3828" y2="793.3828"/><line style="stroke:#181818;stroke-width:1.0;stroke-dasharray:2.0,2.0;" x1="508.5" x2="555.5" y1="793.3828" y2="793.3828"/><polygon fill="#181818" points="518.5,789.3828,508.5,793.3828,518.5,797.3828,514.5,793.3828" style="stroke:#181818;stroke-width:1.0;"/><text fill="#000000" font-family="sans-serif" font-size="13" font-weight="bold" lengthAdjust="spacing" textLength="18" x="520.5" y="775.3169">21</text><text fill="#000000" font-family="sans-serif" font-size="13" lengthAdjust="spacing" textLength="36" x="542.5" y="775.3169">result</text><polygon fill="#181818" points="315,813.5156,305,817.5156,315,821.5156,311,817.5156" style="stroke:#181818;stroke-width:1.0;"/><line style="stroke:#181818;stroke-width:1.0;stroke-dasharray:2.0,2.0;" x1="309" x2="502.5" y1="817.5156" y2="817.5156"/><text fill="#000000" font-family="sans-serif" font-size="13" font-weight="bold" lengthAdjust="spacing" textLength="18" x="321" y="812.4497">22</text><text fill="#000000" font-family="sans-serif" font-size="13" lengthAdjust="spacing" textLength="36" x="343" y="812.4497">result</text><polygon fill="#181818" points="49,842.6484,39,846.6484,49,850.6484,45,846.6484" style="stroke:#181818;stroke-width:1.0;"/><line style="stroke:#181818;stroke-width:1.0;stroke-dasharray:2.0,2.0;" x1="43" x2="298" y1="846.6484" y2="846.6484"/><text fill="#000000" font-family="sans-serif" font-size="13" font-weight="bold" lengthAdjust="spacing" textLength="17" x="55" y="841.5825">23</text><text fill="#000000" font-family="sans-serif" font-size="13" lengthAdjust="spacing" textLength="200" x="76" y="841.5825">STATUS 200 ok | "Done-zo! &#129312;"</text><!--SRC=[bPH1Rjim44NtFCNKtJX03RjPQb6WiGFKG88Obdm0LfxAX2LH8Iat2NgNTj43zWWbAOaYRGb9LXeE__ndavoHHrPMLD022bxoz21uWQ14ZKIwdOgcHvfXh9vp186fecMM-m9ve7l-avKP_A2vH49hnSkw-8w2AAPqKOoFDPOfmehHp5HCuzKLp60NBnRN-hiKI1K2XGsNYX2QAYvWSe_6OW9KGXCIZLCiPHKj5Kosl5OexNOJXjkfzJI6IrugmVCSHRGSI5g78NNeb-2JsYcMDqIt2aMrn2MLw76ikas7MhERcEEn4hSQ46bMhz6BIyaTAuzEOXQNaZYlCoSnYqk9smwt2dluMwnujBvtiHNtMs59fKsQWaqRMNcNjbVCJkREsvjjFZ3xqjvb1D-IP0DRyt2aYc3p42SmfnMRdpxFZOtqFDhhRpx6O_3k0PymrOgfmCTF-XtBgzvXyFh9KFPL-tLHlPK07-zOTb0tkMwtKPXxQH58MZB5Nd3g-VOFaRWGPgC_SgyusUDGzHY_UzBk-BI5n- -UDca3K-8z6CXGDNTxyxoJADQhQMq-Uy_2UqI4z0lxBnozoVk_tI_puAwHelO8_DFgkyn58SREgmTnAmGFO7tX9KoVuIZBT6iNd95qPWnagYuufgt7EBRbko3av3epmh5LvnWp6Xp67iSPoywEBWXPKcT6MBRgdEKufgCtWbVoZ6Kv8SD8HnY1lnj1kcrE3S4pTvF8i-YdK-ypsaYwk-jS-UMk4uOxwHrExvb6tiHygr4t9tLfqveHnCdNP1V3zM81_0Y_OBBY9SvU-0Vuz_lldudlsGvRBzEO_0S0]--></g></svg>