<?xml version="1.0" encoding="us-ascii" standalone="no"?><svg xmlns="http://www.w3.org/2000/svg" xmlns:xlink="http://www.w3.org/1999/xlink" contentStyleType="text/css" height="665px" preserveAspectRatio="none" style="width:1600px;height:665px;background:#FFFFFF;" version="1.1" viewBox="0 0 1600 665" width="1600px" zoomAndPan="magnify"><defs/><g><text fill="#000000" font-family="sans-serif" font-size="14" font-weight="bold" lengthAdjust="spacing" textLength="695" x="451.75" y="27.9951">Sequence Diagram (SD) - US 018 - View top 3 Commenting Members for a Specific Day</text><rect fill="#FFFFFF" height="438.0234" style="stroke:#181818;stroke-width:1.0;" width="10" x="33" y="128.5938"/><rect fill="#FFFFFF" height="387.7578" style="stroke:#181818;stroke-width:1.0;" width="10" x="204" y="149.7266"/><rect fill="#FFFFFF" height="358.625" style="stroke:#181818;stroke-width:1.0;" width="10" x="517" y="178.8594"/><rect fill="#CCCCCC" height="285.3594" style="stroke:#181818;stroke-width:1.0;" width="10" x="522" y="215.9922"/><rect fill="#FFFFFF" height="29.1328" style="stroke:#181818;stroke-width:1.0;" width="10" x="868" y="320.5547"/><rect fill="#FFFFFF" height="87.3984" style="stroke:#181818;stroke-width:1.0;" width="10" x="1102" y="291.4219"/><rect fill="#FFFFFF" height="29.1328" style="stroke:#181818;stroke-width:1.0;" width="10" x="1102" y="437.0859"/><rect fill="#FFFFFF" height="29.1328" style="stroke:#181818;stroke-width:1.0;" width="10" x="1304.5" y="378.8203"/><rect fill="#FFFFFF" height="29.1328" style="stroke:#181818;stroke-width:1.0;" width="10" x="1514.5" y="407.9531"/><line style="stroke:#181818;stroke-width:0.5;stroke-dasharray:5.0,5.0;" x1="38" x2="38" y1="118.5938" y2="584.6172"/><line style="stroke:#181818;stroke-width:0.5;stroke-dasharray:5.0,5.0;" x1="208.5" x2="208.5" y1="118.5938" y2="584.6172"/><line style="stroke:#181818;stroke-width:0.5;stroke-dasharray:5.0,5.0;" x1="521.5" x2="521.5" y1="118.5938" y2="584.6172"/><line style="stroke:#181818;stroke-width:0.5;stroke-dasharray:5.0,5.0;" x1="872.5" x2="872.5" y1="259.6406" y2="584.6172"/><line style="stroke:#181818;stroke-width:0.5;stroke-dasharray:5.0,5.0;" x1="1106.5" x2="1106.5" y1="118.5938" y2="584.6172"/><line style="stroke:#181818;stroke-width:0.5;stroke-dasharray:5.0,5.0;" x1="1309.5" x2="1309.5" y1="118.5938" y2="584.6172"/><line style="stroke:#181818;stroke-width:0.5;stroke-dasharray:5.0,5.0;" x1="1519.5" x2="1519.5" y1="118.5938" y2="584.6172"/><text fill="#000000" font-family="sans-serif" font-size="14" lengthAdjust="spacing" textLength="60" x="5" y="115.292">Member</text><ellipse cx="38" cy="50.7969" fill="#E3E3E3" rx="8" ry="8" style="stroke:#181818;stroke-width:0.5;"/><path d="M38,58.7969 L38,85.7969 M25,66.7969 L51,66.7969 M38,85.7969 L25,100.7969 M38,85.7969 L51,100.7969 " fill="none" style="stroke:#181818;stroke-width:0.5;"/><text fill="#000000" font-family="sans-serif" font-size="14" lengthAdjust="spacing" textLength="60" x="5" y="596.6123">Member</text><ellipse cx="38" cy="608.4141" fill="#E3E3E3" rx="8" ry="8" style="stroke:#181818;stroke-width:0.5;"/><path d="M38,616.4141 L38,643.4141 M25,624.4141 L51,624.4141 M38,643.4141 L25,658.4141 M38,643.4141 L51,658.4141 " fill="none" style="stroke:#181818;stroke-width:0.5;"/><rect fill="#E3E3E3" height="30.2969" rx="2.5" ry="2.5" style="stroke:#181818;stroke-width:0.5;" width="147" x="135.5" y="87.2969"/><text fill="#000000" font-family="sans-serif" font-size="14" lengthAdjust="spacing" textLength="133" x="142.5" y="107.292">userRouter:Router</text><rect fill="#E3E3E3" height="30.2969" rx="2.5" ry="2.5" style="stroke:#181818;stroke-width:0.5;" width="147" x="135.5" y="583.6172"/><text fill="#000000" font-family="sans-serif" font-size="14" lengthAdjust="spacing" textLength="133" x="142.5" y="603.6123">userRouter:Router</text><rect fill="#E3E3E3" height="30.2969" rx="2.5" ry="2.5" style="stroke:#181818;stroke-width:0.5;" width="459" x="292.5" y="87.2969"/><text fill="#000000" font-family="sans-serif" font-size="14" lengthAdjust="spacing" textLength="445" x="299.5" y="107.292">getStatisticsByDateController:GetStatisticsByDateController</text><rect fill="#E3E3E3" height="30.2969" rx="2.5" ry="2.5" style="stroke:#181818;stroke-width:0.5;" width="459" x="292.5" y="583.6172"/><text fill="#000000" font-family="sans-serif" font-size="14" lengthAdjust="spacing" textLength="445" x="299.5" y="603.6123">getStatisticsByDateController:GetStatisticsByDateController</text><rect fill="#E3E3E3" height="30.2969" rx="2.5" ry="2.5" style="stroke:#181818;stroke-width:0.5;" width="223" x="761.5" y="583.6172"/><text fill="#000000" font-family="sans-serif" font-size="14" lengthAdjust="spacing" textLength="209" x="768.5" y="603.6123">dto:GetStatisticsByDateDTO</text><rect fill="#E3E3E3" height="30.2969" rx="2.5" ry="2.5" style="stroke:#181818;stroke-width:0.5;" width="225" x="994.5" y="87.2969"/><text fill="#000000" font-family="sans-serif" font-size="14" lengthAdjust="spacing" textLength="211" x="1001.5" y="107.292">useCase:GetStatisticsByDate</text><rect fill="#E3E3E3" height="30.2969" rx="2.5" ry="2.5" style="stroke:#181818;stroke-width:0.5;" width="225" x="994.5" y="583.6172"/><text fill="#000000" font-family="sans-serif" font-size="14" lengthAdjust="spacing" textLength="211" x="1001.5" y="603.6123">useCase:GetStatisticsByDate</text><rect fill="#E3E3E3" height="30.2969" rx="2.5" ry="2.5" style="stroke:#181818;stroke-width:0.5;" width="160" x="1229.5" y="87.2969"/><text fill="#000000" font-family="sans-serif" font-size="14" lengthAdjust="spacing" textLength="146" x="1236.5" y="107.292">userRepo:IUserRepo</text><rect fill="#E3E3E3" height="30.2969" rx="2.5" ry="2.5" style="stroke:#181818;stroke-width:0.5;" width="160" x="1229.5" y="583.6172"/><text fill="#000000" font-family="sans-serif" font-size="14" lengthAdjust="spacing" textLength="146" x="1236.5" y="603.6123">userRepo:IUserRepo</text><rect fill="#E3E3E3" height="30.2969" rx="2.5" ry="2.5" style="stroke:#181818;stroke-width:0.5;" width="150" x="1444.5" y="87.2969"/><text fill="#000000" font-family="sans-serif" font-size="14" lengthAdjust="spacing" textLength="136" x="1451.5" y="107.292">sequelizeUserRepo</text><rect fill="#E3E3E3" height="30.2969" rx="2.5" ry="2.5" style="stroke:#181818;stroke-width:0.5;" width="150" x="1444.5" y="583.6172"/><text fill="#000000" font-family="sans-serif" font-size="14" lengthAdjust="spacing" textLength="136" x="1451.5" y="603.6123">sequelizeUserRepo</text><rect fill="#FFFFFF" height="438.0234" style="stroke:#181818;stroke-width:1.0;" width="10" x="33" y="128.5938"/><rect fill="#FFFFFF" height="387.7578" style="stroke:#181818;stroke-width:1.0;" width="10" x="204" y="149.7266"/><rect fill="#FFFFFF" height="358.625" style="stroke:#181818;stroke-width:1.0;" width="10" x="517" y="178.8594"/><rect fill="#CCCCCC" height="285.3594" style="stroke:#181818;stroke-width:1.0;" width="10" x="522" y="215.9922"/><rect fill="#FFFFFF" height="29.1328" style="stroke:#181818;stroke-width:1.0;" width="10" x="868" y="320.5547"/><rect fill="#FFFFFF" height="87.3984" style="stroke:#181818;stroke-width:1.0;" width="10" x="1102" y="291.4219"/><rect fill="#FFFFFF" height="29.1328" style="stroke:#181818;stroke-width:1.0;" width="10" x="1102" y="437.0859"/><rect fill="#FFFFFF" height="29.1328" style="stroke:#181818;stroke-width:1.0;" width="10" x="1304.5" y="378.8203"/><rect fill="#FFFFFF" height="29.1328" style="stroke:#181818;stroke-width:1.0;" width="10" x="1514.5" y="407.9531"/><polygon fill="#181818" points="192,145.7266,202,149.7266,192,153.7266,196,149.7266" style="stroke:#181818;stroke-width:1.0;"/><line style="stroke:#181818;stroke-width:1.0;" x1="43" x2="198" y1="149.7266" y2="149.7266"/><text fill="#000000" font-family="sans-serif" font-size="13" font-weight="bold" lengthAdjust="spacing" textLength="9" x="50" y="144.6606">1</text><text fill="#000000" font-family="sans-serif" font-size="13" lengthAdjust="spacing" textLength="129" x="63" y="144.6606">GET /statistics/:date</text><polygon fill="#181818" points="505,174.8594,515,178.8594,505,182.8594,509,178.8594" style="stroke:#181818;stroke-width:1.0;"/><line style="stroke:#181818;stroke-width:1.0;" x1="214" x2="511" y1="178.8594" y2="178.8594"/><text fill="#000000" font-family="sans-serif" font-size="13" font-weight="bold" lengthAdjust="spacing" textLength="9" x="221" y="173.7935">2</text><text fill="#000000" font-family="sans-serif" font-size="13" lengthAdjust="spacing" textLength="111" x="234" y="173.7935">execute(req, res)</text><line style="stroke:#181818;stroke-width:1.0;" x1="527" x2="574" y1="202.9922" y2="202.9922"/><line style="stroke:#181818;stroke-width:1.0;" x1="574" x2="574" y1="202.9922" y2="215.9922"/><line style="stroke:#181818;stroke-width:1.0;" x1="533" x2="574" y1="215.9922" y2="215.9922"/><polygon fill="#181818" points="543,211.9922,533,215.9922,543,219.9922,539,215.9922" style="stroke:#181818;stroke-width:1.0;"/><text fill="#000000" font-family="sans-serif" font-size="13" font-weight="bold" lengthAdjust="spacing" textLength="8" x="539" y="197.9263">3</text><text fill="#000000" font-family="sans-serif" font-size="13" lengthAdjust="spacing" textLength="135" x="551" y="197.9263">executeImp(req, res)</text><polygon fill="#181818" points="749.5,246.125,759.5,250.125,749.5,254.125,753.5,250.125" style="stroke:#181818;stroke-width:1.0;"/><line style="stroke:#181818;stroke-width:1.0;" x1="532" x2="755.5" y1="250.125" y2="250.125"/><text fill="#000000" font-family="sans-serif" font-size="13" font-weight="bold" lengthAdjust="spacing" textLength="9" x="539" y="245.0591">4</text><text fill="#000000" font-family="sans-serif" font-size="13" lengthAdjust="spacing" textLength="37" x="552" y="245.0591">new()</text><rect fill="#E3E3E3" height="30.2969" rx="2.5" ry="2.5" style="stroke:#181818;stroke-width:0.5;" width="223" x="761.5" y="228.9922"/><text fill="#000000" font-family="sans-serif" font-size="14" lengthAdjust="spacing" textLength="209" x="768.5" y="248.9873">dto:GetStatisticsByDateDTO</text><polygon fill="#181818" points="1090,287.4219,1100,291.4219,1090,295.4219,1094,291.4219" style="stroke:#181818;stroke-width:1.0;"/><line style="stroke:#181818;stroke-width:1.0;" x1="532" x2="1096" y1="291.4219" y2="291.4219"/><text fill="#000000" font-family="sans-serif" font-size="13" font-weight="bold" lengthAdjust="spacing" textLength="9" x="539" y="286.356">5</text><text fill="#000000" font-family="sans-serif" font-size="13" lengthAdjust="spacing" textLength="83" x="552" y="286.356">execute(dto)</text><polygon fill="#181818" points="889,316.5547,879,320.5547,889,324.5547,885,320.5547" style="stroke:#181818;stroke-width:1.0;"/><line style="stroke:#181818;stroke-width:1.0;stroke-dasharray:2.0,2.0;" x1="883" x2="1101" y1="320.5547" y2="320.5547"/><text fill="#000000" font-family="sans-serif" font-size="13" font-weight="bold" lengthAdjust="spacing" textLength="9" x="895" y="315.4888">6</text><text fill="#000000" font-family="sans-serif" font-size="13" lengthAdjust="spacing" textLength="82" x="908" y="315.4888">request date</text><polygon fill="#181818" points="1090,345.6875,1100,349.6875,1090,353.6875,1094,349.6875" style="stroke:#181818;stroke-width:1.0;"/><line style="stroke:#181818;stroke-width:1.0;" x1="873" x2="1096" y1="349.6875" y2="349.6875"/><text fill="#000000" font-family="sans-serif" font-size="13" font-weight="bold" lengthAdjust="spacing" textLength="9" x="880" y="344.6216">7</text><text fill="#000000" font-family="sans-serif" font-size="13" lengthAdjust="spacing" textLength="29" x="893" y="344.6216">date</text><polygon fill="#181818" points="1292.5,374.8203,1302.5,378.8203,1292.5,382.8203,1296.5,378.8203" style="stroke:#181818;stroke-width:1.0;"/><line style="stroke:#181818;stroke-width:1.0;" x1="1107" x2="1298.5" y1="378.8203" y2="378.8203"/><text fill="#000000" font-family="sans-serif" font-size="13" font-weight="bold" lengthAdjust="spacing" textLength="9" x="1114" y="373.7544">8</text><text fill="#000000" font-family="sans-serif" font-size="13" lengthAdjust="spacing" textLength="118" x="1127" y="373.7544">getStatistics(date)</text><polygon fill="#181818" points="1502.5,403.9531,1512.5,407.9531,1502.5,411.9531,1506.5,407.9531" style="stroke:#181818;stroke-width:1.0;"/><line style="stroke:#181818;stroke-width:1.0;" x1="1309.5" x2="1508.5" y1="407.9531" y2="407.9531"/><text fill="#000000" font-family="sans-serif" font-size="13" font-weight="bold" lengthAdjust="spacing" textLength="9" x="1316.5" y="402.8872">9</text><text fill="#000000" font-family="sans-serif" font-size="13" lengthAdjust="spacing" textLength="168" x="1329.5" y="402.8872">getTopThreeByDate(date)</text><polygon fill="#181818" points="1123,433.0859,1113,437.0859,1123,441.0859,1119,437.0859" style="stroke:#181818;stroke-width:1.0;"/><line style="stroke:#181818;stroke-width:1.0;stroke-dasharray:2.0,2.0;" x1="1117" x2="1518.5" y1="437.0859" y2="437.0859"/><text fill="#000000" font-family="sans-serif" font-size="13" font-weight="bold" lengthAdjust="spacing" textLength="19" x="1129" y="432.02">10</text><text fill="#000000" font-family="sans-serif" font-size="13" lengthAdjust="spacing" textLength="129" x="1152" y="432.02">getTopThreeByDate</text><polygon fill="#181818" points="543,462.2188,533,466.2188,543,470.2188,539,466.2188" style="stroke:#181818;stroke-width:1.0;"/><line style="stroke:#181818;stroke-width:1.0;stroke-dasharray:2.0,2.0;" x1="537" x2="1106" y1="466.2188" y2="466.2188"/><text fill="#000000" font-family="sans-serif" font-size="13" font-weight="bold" lengthAdjust="spacing" textLength="18" x="549" y="461.1528">11</text><text fill="#000000" font-family="sans-serif" font-size="13" lengthAdjust="spacing" textLength="97" x="571" y="461.1528">return right(ok)</text><line style="stroke:#181818;stroke-width:1.0;stroke-dasharray:2.0,2.0;" x1="532" x2="574" y1="500.3516" y2="500.3516"/><line style="stroke:#181818;stroke-width:1.0;stroke-dasharray:2.0,2.0;" x1="574" x2="574" y1="500.3516" y2="513.3516"/><line style="stroke:#181818;stroke-width:1.0;stroke-dasharray:2.0,2.0;" x1="527" x2="574" y1="513.3516" y2="513.3516"/><polygon fill="#181818" points="537,509.3516,527,513.3516,537,517.3516,533,513.3516" style="stroke:#181818;stroke-width:1.0;"/><text fill="#000000" font-family="sans-serif" font-size="13" font-weight="bold" lengthAdjust="spacing" textLength="18" x="539" y="495.2856">12</text><text fill="#000000" font-family="sans-serif" font-size="13" lengthAdjust="spacing" textLength="4" x="561" y="495.2856">&#160;</text><polygon fill="#181818" points="220,533.4844,210,537.4844,220,541.4844,216,537.4844" style="stroke:#181818;stroke-width:1.0;"/><line style="stroke:#181818;stroke-width:1.0;stroke-dasharray:2.0,2.0;" x1="214" x2="521" y1="537.4844" y2="537.4844"/><text fill="#000000" font-family="sans-serif" font-size="13" font-weight="bold" lengthAdjust="spacing" textLength="17" x="226" y="532.4185">13</text><text fill="#000000" font-family="sans-serif" font-size="13" lengthAdjust="spacing" textLength="36" x="247" y="532.4185">result</text><polygon fill="#181818" points="49,562.6172,39,566.6172,49,570.6172,45,566.6172" style="stroke:#181818;stroke-width:1.0;"/><line style="stroke:#181818;stroke-width:1.0;stroke-dasharray:2.0,2.0;" x1="43" x2="208" y1="566.6172" y2="566.6172"/><text fill="#000000" font-family="sans-serif" font-size="13" font-weight="bold" lengthAdjust="spacing" textLength="18" x="55" y="561.5513">14</text><text fill="#000000" font-family="sans-serif" font-size="13" lengthAdjust="spacing" textLength="97" x="77" y="561.5513">STATUS 200 ok</text><!--SRC=[fLLDZzCm4BtxLupA9P6eji05vR0Isw3LIY0aakLkqcbgDR6pzeHIVZrsqdnu4wL5N5ft_ERD-CspQuv2Lbpp4aebLNRGgaGWNICp_Kx5ioFFCQ5pWQ0n8oxpOWmm1xvJ9o5psFF28ECrALcNFr4pHe9iLe8lDSeC8HOyTob14eUmXkS4Dky-siKFWISWLS47sAgoH4cExYiw4WDxfO53Kc4czYA3c9yPundPwAg5h82R2vhPdaXaekAIO5KRrDzLJQYZzgj13b4VdICbn4aO6p8FvvWJRfKahOh24ZmkxJQyYmY_r8xK766SVckOxFRa85jkS2wdEvBRdpazLYfwUhwiXkFR7pxOk1aLuWzws4cqKLxyidKxmLdx3UlxaR0HF7vEuSxqlTv5Evip98zcm8Qr8rbKCGByZPc51XfVtbexcd3WNDQVBMxVNlcfhFwvEBpv8l83FHJsPh5CeqjmCxxQalC9I3m5uGtzToRfDRBPeITvun5sMS2wAw3Tb0s1FoBN8BCV7dK3sQ4FwWdlUtD5uDscmEM5uyIk6zyHZSEwbUER6B0XJbML7ZHYgy8iUSlLHsQCF0arWlGddPGP5vZIBSjynLeQgTOIj3D9e8xXSgaP5Q-PureBOyx_kKRhLw-0lIDrGRUplvxXvONmdWXRedro8aZIJwdz4tc_sO0wmZYxHVm5]--></g></svg>