<?xml version="1.0" encoding="us-ascii" standalone="no"?><svg xmlns="http://www.w3.org/2000/svg" xmlns:xlink="http://www.w3.org/1999/xlink" contentStyleType="text/css" height="947px" preserveAspectRatio="none" style="width:560px;height:947px;background:#FFFFFF;" version="1.1" viewBox="0 0 560 947" width="560px" zoomAndPan="magnify"><defs/><g><!--cluster UseCaseDiagram-DDD Forum.com--><g id="cluster_UseCaseDiagram-DDD Forum.com"><rect fill="none" height="934" rx="2.5" ry="2.5" style="stroke:#181818;stroke-width:1.0;" width="337" x="217" y="7"/><text fill="#000000" font-family="sans-serif" font-size="14" font-weight="bold" lengthAdjust="spacing" textLength="264" x="253.5" y="21.9951">UseCaseDiagram-DDD Forum.com</text></g><g id="elem_us001"><ellipse cx="385.3631" cy="69.8726" fill="#F1F1F1" rx="127.3631" ry="27.8726" style="stroke:#181818;stroke-width:0.5;"/><text fill="#000000" font-family="sans-serif" font-size="14" lengthAdjust="spacing" textLength="223" x="273.8631" y="72.7193">us001 - Register a new account</text></g><g id="elem_us002"><ellipse cx="385.5118" cy="540.9024" fill="#F1F1F1" rx="95.0118" ry="21.4024" style="stroke:#181818;stroke-width:0.5;"/><text fill="#000000" font-family="sans-serif" font-size="14" lengthAdjust="spacing" textLength="153" x="309.0118" y="543.749">us002 - Create a post</text></g><g id="elem_us003"><ellipse cx="385.4476" cy="162.8895" fill="#F1F1F1" rx="134.9476" ry="29.3895" style="stroke:#181818;stroke-width:0.5;"/><text fill="#000000" font-family="sans-serif" font-size="14" lengthAdjust="spacing" textLength="239" x="265.9476" y="165.7362">us003 - View posts and their data</text></g><g id="elem_us004"><ellipse cx="385.6446" cy="628.1289" fill="#F1F1F1" rx="141.1446" ry="30.6289" style="stroke:#181818;stroke-width:0.5;"/><text fill="#000000" font-family="sans-serif" font-size="14" lengthAdjust="spacing" textLength="252" x="259.6446" y="630.9756">us004 - Write a comment on a post</text></g><g id="elem_us005"><ellipse cx="385.6527" cy="260.9305" fill="#F1F1F1" rx="152.6527" ry="32.9305" style="stroke:#181818;stroke-width:0.5;"/><text fill="#000000" font-family="sans-serif" font-size="14" lengthAdjust="spacing" textLength="276" x="247.6527" y="263.7772">us005 - View comments and their data</text></g><g id="elem_us006"><ellipse cx="385.6907" cy="726.2381" fill="#F1F1F1" rx="151.6907" ry="32.7381" style="stroke:#181818;stroke-width:0.5;"/><text fill="#000000" font-family="sans-serif" font-size="14" lengthAdjust="spacing" textLength="274" x="248.6907" y="729.0848">us006 - Reply to a comment on a post</text></g><g id="elem_us007"><ellipse cx="385.5673" cy="816.2135" fill="#F1F1F1" rx="99.0673" ry="22.2135" style="stroke:#181818;stroke-width:0.5;"/><text fill="#000000" font-family="sans-serif" font-size="14" lengthAdjust="spacing" textLength="162" x="304.5673" y="819.0601">us007 - Vote on a post</text></g><g id="elem_us008"><ellipse cx="385.6274" cy="899.0255" fill="#F1F1F1" rx="115.6274" ry="25.5255" style="stroke:#181818;stroke-width:0.5;"/><text fill="#000000" font-family="sans-serif" font-size="14" lengthAdjust="spacing" textLength="198" x="286.6274" y="901.8722">us008 - Vote on a comment</text></g><g id="elem_us009"><ellipse cx="385.3886" cy="360.7777" fill="#F1F1F1" rx="146.8886" ry="31.7777" style="stroke:#181818;stroke-width:0.5;"/><text fill="#000000" font-family="sans-serif" font-size="14" lengthAdjust="spacing" textLength="264" x="253.3886" y="363.6244">us009 - Sort posts by popular or new</text></g><g id="elem_us010"><ellipse cx="385.2813" cy="456.1563" fill="#F1F1F1" rx="128.7813" ry="28.1563" style="stroke:#181818;stroke-width:0.5;"/><text fill="#000000" font-family="sans-serif" font-size="14" lengthAdjust="spacing" textLength="226" x="272.2813" y="459.0029">us010 - View member's profiles</text></g><!--entity Member--><g id="elem_Member"><ellipse cx="36" cy="650.5" fill="#F1F1F1" rx="8" ry="8" style="stroke:#181818;stroke-width:0.5;"/><path d="M36,658.5 L36,685.5 M23,666.5 L49,666.5 M36,685.5 L23,700.5 M36,685.5 L49,700.5 " fill="none" style="stroke:#181818;stroke-width:0.5;"/><text fill="#000000" font-family="sans-serif" font-size="14" lengthAdjust="spacing" textLength="60" x="6" y="714.9951">Member</text></g><!--entity Visitor--><g id="elem_Visitor"><ellipse cx="149.5" cy="281.5" fill="#F1F1F1" rx="8" ry="8" style="stroke:#181818;stroke-width:0.5;"/><path d="M149.5,289.5 L149.5,316.5 M136.5,297.5 L162.5,297.5 M149.5,316.5 L136.5,331.5 M149.5,316.5 L162.5,331.5 " fill="none" style="stroke:#181818;stroke-width:0.5;"/><text fill="#000000" font-family="sans-serif" font-size="14" lengthAdjust="spacing" textLength="47" x="126" y="345.9951">Visitor</text></g><!--link Member to Visitor--><g id="link_Member_Visitor"><path d="M48.5125,641.9 C68.1096,577.045 108.06,444.832 131.088,368.623 " fill="none" id="Member-to-Visitor" style="stroke:#181818;stroke-width:1.0;"/><polygon fill="none" points="124.481,366.289,136.967,349.168,137.882,370.338,124.481,366.289" style="stroke:#181818;stroke-width:1.0;"/></g><!--link Visitor to us001--><g id="link_Visitor_us001"><path d="M151.315,272.728 C154.367,228.758 166.155,157.367 209,116 C224.524,101.012 244.307,90.751 264.959,83.762 " fill="none" id="Visitor-to-us001" style="stroke:#181818;stroke-width:1.0;"/><polygon fill="#181818" points="269.941,82.143,260.1452,81.1217,265.186,83.6889,262.6188,88.7297,269.941,82.143" style="stroke:#181818;stroke-width:1.0;"/></g><!--link Member to us002--><g id="link_Member_us002"><path d="M66.027,659.352 C99.1299,636.726 155.597,600.876 209,580 C238.266,568.559 271.656,560.086 301.4,554.014 " fill="none" id="Member-to-us002" style="stroke:#181818;stroke-width:1.0;"/><polygon fill="#181818" points="306.524,552.985,296.9121,550.8374,301.6221,553.9705,298.489,558.6805,306.524,552.985" style="stroke:#181818;stroke-width:1.0;"/></g><!--link Visitor to us003--><g id="link_Visitor_us003"><path d="M164.087,272.829 C173.557,251.419 188.25,225.897 209,210 C226.038,196.947 246.417,187.513 267.158,180.695 " fill="none" id="Visitor-to-us003" style="stroke:#181818;stroke-width:1.0;"/><polygon fill="#181818" points="272.152,179.105,262.3626,178.0244,267.3877,180.6221,264.79,185.6473,272.152,179.105" style="stroke:#181818;stroke-width:1.0;"/></g><!--link Member to us004--><g id="link_Member_us004"><path d="M66.03,675.656 C109.279,669.184 193.138,656.635 263.949,646.039 " fill="none" id="Member-to-us004" style="stroke:#181818;stroke-width:1.0;"/><polygon fill="#181818" points="269.024,645.28,259.5312,642.6558,264.079,646.0199,260.715,650.5678,269.024,645.28" style="stroke:#181818;stroke-width:1.0;"/></g><!--link Visitor to us005--><g id="link_Visitor_us005"><path d="M173.363,306.115 C196.53,301.164 234.154,293.125 271.271,285.194 " fill="none" id="Visitor-to-us005" style="stroke:#181818;stroke-width:1.0;"/><polygon fill="#181818" points="276.266,284.127,266.6291,282.0948,271.3763,285.1712,268.2998,289.9184,276.266,284.127" style="stroke:#181818;stroke-width:1.0;"/></g><!--link Member to us006--><g id="link_Member_us006"><path d="M66.03,683.843 C106.649,689.22 183.089,699.338 250.897,708.314 " fill="none" id="Member-to-us006" style="stroke:#181818;stroke-width:1.0;"/><polygon fill="#181818" points="256.179,709.014,247.7829,703.8656,251.2224,708.3567,246.7313,711.7962,256.179,709.014" style="stroke:#181818;stroke-width:1.0;"/></g><!--link Member to us007--><g id="link_Member_us007"><path d="M66.1779,699.709 C99.4162,721.328 156.004,755.653 209,776 C237.957,787.118 270.843,795.627 300.257,801.88 " fill="none" id="Member-to-us007" style="stroke:#181818;stroke-width:1.0;"/><polygon fill="#181818" points="305.326,802.943,297.3378,797.182,300.4323,801.9174,295.6969,805.0119,305.326,802.943" style="stroke:#181818;stroke-width:1.0;"/></g><!--link Member to us008--><g id="link_Member_us008"><path d="M63.8181,718.029 C94.3458,758.427 147.96,821.165 209,856 C231.35,868.7547 257.396,877.7505 282.476,884.0867 " fill="none" id="Member-to-us008" style="stroke:#181818;stroke-width:1.0;"/><polygon fill="#181818" points="287.477,885.3188,279.6947,879.2826,282.6221,884.1231,277.7816,887.0504,287.477,885.3188" style="stroke:#181818;stroke-width:1.0;"/></g><!--link Visitor to us009--><g id="link_Visitor_us009"><path d="M173.363,315.885 C197.246,320.988 236.491,329.374 274.708,337.54 " fill="none" id="Visitor-to-us009" style="stroke:#181818;stroke-width:1.0;"/><polygon fill="#181818" points="279.847,338.638,271.8825,332.8444,274.9575,337.5924,270.2095,340.6675,279.847,338.638" style="stroke:#181818;stroke-width:1.0;"/></g><!--link Visitor to us010--><g id="link_Visitor_us010"><path d="M164.679,349.442 C174.21,370.238 188.766,394.722 209,410 C226.878,423.499 248.368,433.047 270.083,439.799 " fill="none" id="Visitor-to-us010" style="stroke:#181818;stroke-width:1.0;"/><polygon fill="#181818" points="275.012,441.283,267.5475,434.858,270.2243,439.8414,265.2409,442.5183,275.012,441.283" style="stroke:#181818;stroke-width:1.0;"/></g><!--SRC=[VP9DJyCm38Rl-HNMBZiLjVlUPPTLtBY066Ulyxf8RL8bgT04_7VSBYt24vngES-JjufTqJb0iE1qUGbmqewAeArHIc4Hh8F94zL7SXD03xToE3XehxdeJsBDLkUZAIk2Lqzxz9HhB1tMIPxdZzQrzKDXQ_XG0AsdWizXqleqpI21Pogr3-G0mT0xO57OreJ-_XwHpeoTlICCn4PZ_Gywa-YSqOFcIplC0veJX0jf1oSCE6fpgIrOUtEw3-3Vhia4i4QcBQIs7DAYysVWKfgh_XcQwjgDvB_CbJJNNQRbFxrdrvBT_69Zo8Xl9Bvb_CMw41_lUEMYQIjqm6l0anhDhJ2pT7Y8kj-SgOV6sREko0zEbYhrfTHjio19FdVZBiKlDtTn_YErYrEMo5mYYpjaAP6LRAnbOtDtoLPsilGR]--></g></svg>