<?xml version="1.0" encoding="us-ascii" standalone="no"?><svg xmlns="http://www.w3.org/2000/svg" xmlns:xlink="http://www.w3.org/1999/xlink" contentStyleType="text/css" height="438px" preserveAspectRatio="none" style="width:395px;height:438px;background:#FFFFFF;" version="1.1" viewBox="0 0 395 438" width="395px" zoomAndPan="magnify"><defs/><g><!--cluster DeploymentMachine--><g id="cluster_DeploymentMachine"><polygon fill="none" points="16,16,26,6,378,6,378,411,368,421,16,421,16,16" style="stroke:#181818;stroke-width:1.0;"/><line style="stroke:#181818;stroke-width:1.0;" x1="368" x2="378" y1="16" y2="6"/><line style="stroke:#181818;stroke-width:1.0;" x1="16" x2="368" y1="16" y2="16"/><line style="stroke:#181818;stroke-width:1.0;" x1="368" x2="368" y1="16" y2="421"/><text fill="#000000" font-family="sans-serif" font-size="14" font-style="italic" lengthAdjust="spacing" textLength="65" x="160.5" y="31.9951">&#171;device&#187;</text><text fill="#000000" font-family="sans-serif" font-size="14" font-weight="bold" lengthAdjust="spacing" textLength="163" x="111.5" y="48.292">DeploymentMachine</text></g><!--entity MySQL--><g id="elem_MySQL"><polygon fill="#F1F1F1" points="221,352,231,342,347,342,347,394.5938,337,404.5938,221,404.5938,221,352" style="stroke:#181818;stroke-width:0.5;"/><line style="stroke:#181818;stroke-width:0.5;" x1="337" x2="347" y1="352" y2="342"/><line style="stroke:#181818;stroke-width:0.5;" x1="221" x2="337" y1="352" y2="352"/><line style="stroke:#181818;stroke-width:0.5;" x1="337" x2="337" y1="352" y2="404.5938"/><text fill="#000000" font-family="sans-serif" font-size="14" font-style="italic" lengthAdjust="spacing" textLength="86" x="236" y="374.9951">&#171;container&#187;</text><text fill="#000000" font-family="sans-serif" font-size="14" lengthAdjust="spacing" textLength="48" x="255" y="391.292">MySQL</text></g><!--entity Adminer--><g id="elem_Adminer"><polygon fill="#F1F1F1" points="233,212,243,202,359,202,359,254.5938,349,264.5938,233,264.5938,233,212" style="stroke:#181818;stroke-width:0.5;"/><line style="stroke:#181818;stroke-width:0.5;" x1="349" x2="359" y1="212" y2="202"/><line style="stroke:#181818;stroke-width:0.5;" x1="233" x2="349" y1="212" y2="212"/><line style="stroke:#181818;stroke-width:0.5;" x1="349" x2="349" y1="212" y2="264.5938"/><text fill="#000000" font-family="sans-serif" font-size="14" font-style="italic" lengthAdjust="spacing" textLength="86" x="248" y="234.9951">&#171;container&#187;</text><text fill="#000000" font-family="sans-serif" font-size="14" lengthAdjust="spacing" textLength="61" x="260.5" y="251.292">Adminer</text></g><!--entity Redis--><g id="elem_Redis"><polygon fill="#F1F1F1" points="56,352,66,342,182,342,182,394.5938,172,404.5938,56,404.5938,56,352" style="stroke:#181818;stroke-width:0.5;"/><line style="stroke:#181818;stroke-width:0.5;" x1="172" x2="182" y1="352" y2="342"/><line style="stroke:#181818;stroke-width:0.5;" x1="56" x2="172" y1="352" y2="352"/><line style="stroke:#181818;stroke-width:0.5;" x1="172" x2="172" y1="352" y2="404.5938"/><text fill="#000000" font-family="sans-serif" font-size="14" font-style="italic" lengthAdjust="spacing" textLength="86" x="71" y="374.9951">&#171;container&#187;</text><text fill="#000000" font-family="sans-serif" font-size="14" lengthAdjust="spacing" textLength="39" x="94.5" y="391.292">Redis</text></g><!--entity Backend--><g id="elem_Backend"><polygon fill="#F1F1F1" points="42.5,212,52.5,202,195.5,202,195.5,254.5938,185.5,264.5938,42.5,264.5938,42.5,212" style="stroke:#181818;stroke-width:0.5;"/><line style="stroke:#181818;stroke-width:0.5;" x1="185.5" x2="195.5" y1="212" y2="202"/><line style="stroke:#181818;stroke-width:0.5;" x1="42.5" x2="185.5" y1="212" y2="212"/><line style="stroke:#181818;stroke-width:0.5;" x1="185.5" x2="185.5" y1="212" y2="264.5938"/><text fill="#000000" font-family="sans-serif" font-size="14" font-style="italic" lengthAdjust="spacing" textLength="113" x="57.5" y="234.9951">&#171;node process&#187;</text><text fill="#000000" font-family="sans-serif" font-size="14" lengthAdjust="spacing" textLength="62" x="83" y="251.292">Backend</text></g><!--entity Frontend--><g id="elem_Frontend"><polygon fill="#F1F1F1" points="32.5,72,42.5,62,185.5,62,185.5,114.5938,175.5,124.5938,32.5,124.5938,32.5,72" style="stroke:#181818;stroke-width:0.5;"/><line style="stroke:#181818;stroke-width:0.5;" x1="175.5" x2="185.5" y1="72" y2="62"/><line style="stroke:#181818;stroke-width:0.5;" x1="32.5" x2="175.5" y1="72" y2="72"/><line style="stroke:#181818;stroke-width:0.5;" x1="175.5" x2="175.5" y1="72" y2="124.5938"/><text fill="#000000" font-family="sans-serif" font-size="14" font-style="italic" lengthAdjust="spacing" textLength="113" x="47.5" y="94.9951">&#171;node process&#187;</text><text fill="#000000" font-family="sans-serif" font-size="14" lengthAdjust="spacing" textLength="66" x="71" y="111.292">Frontend</text></g><!--entity Browser--><g id="elem_Browser"><polygon fill="#F1F1F1" points="248.5,72,258.5,62,361.5,62,361.5,114.5938,351.5,124.5938,248.5,124.5938,248.5,72" style="stroke:#181818;stroke-width:0.5;"/><line style="stroke:#181818;stroke-width:0.5;" x1="351.5" x2="361.5" y1="72" y2="62"/><line style="stroke:#181818;stroke-width:0.5;" x1="248.5" x2="351.5" y1="72" y2="72"/><line style="stroke:#181818;stroke-width:0.5;" x1="351.5" x2="351.5" y1="72" y2="124.5938"/><text fill="#000000" font-family="sans-serif" font-size="14" font-style="italic" lengthAdjust="spacing" textLength="73" x="263.5" y="94.9951">&#171;process&#187;</text><text fill="#000000" font-family="sans-serif" font-size="14" lengthAdjust="spacing" textLength="58" x="271" y="111.292">Browser</text></g><!--link Frontend to Backend--><g id="link_Frontend_Backend"><path d="M111.219,125.127 C112.876,147.996 115.131,179.111 116.787,201.959 " fill="none" id="Frontend-Backend" style="stroke:#181818;stroke-width:1.0;"/><text fill="#000000" font-family="sans-serif" font-size="13" lengthAdjust="spacing" textLength="26" x="116" y="168.0669">http</text><text fill="#000000" font-family="sans-serif" font-size="13" lengthAdjust="spacing" textLength="32" x="81.0304" y="191.0293">5001</text></g><!--link Backend to MySQL--><g id="link_Backend_MySQL"><path d="M155.619,265.127 C182.962,287.996 220.165,319.111 247.484,341.9589 " fill="none" id="Backend-MySQL" style="stroke:#181818;stroke-width:1.0;"/><text fill="#000000" font-family="sans-serif" font-size="13" lengthAdjust="spacing" textLength="35" x="213" y="308.0669">tcp/ip</text><text fill="#000000" font-family="sans-serif" font-size="13" lengthAdjust="spacing" textLength="32" x="204.6526" y="331.0293">3306</text></g><!--link Backend to Redis--><g id="link_Backend_Redis"><path d="M119,265.127 C119,287.996 119,319.111 119,341.9589 " fill="none" id="Backend-Redis" style="stroke:#181818;stroke-width:1.0;"/><text fill="#000000" font-family="sans-serif" font-size="13" lengthAdjust="spacing" textLength="35" x="120" y="308.0669">tcp/ip</text><text fill="#000000" font-family="sans-serif" font-size="13" lengthAdjust="spacing" textLength="32" x="83.7" y="331.0293">6379</text></g><!--link Adminer to MySQL--><g id="link_Adminer_MySQL"><path d="M293.337,265.127 C291.348,287.996 288.643,319.111 286.656,341.9589 " fill="none" id="Adminer-MySQL" style="stroke:#181818;stroke-width:1.0;"/><text fill="#000000" font-family="sans-serif" font-size="13" lengthAdjust="spacing" textLength="35" x="291" y="308.0669">tcp/ip</text><text fill="#000000" font-family="sans-serif" font-size="13" lengthAdjust="spacing" textLength="32" x="251.9038" y="331.0293">3306</text></g><!--link Frontend to Browser--><g id="link_Frontend_Browser"><path d="M185.621,93.5 C206.558,93.5 228.863,93.5 248.457,93.5 " fill="none" id="Frontend-Browser" style="stroke:#181818;stroke-width:1.0;"/><text fill="#000000" font-family="sans-serif" font-size="13" lengthAdjust="spacing" textLength="26" x="204" y="86.5669">http</text><text fill="#000000" font-family="sans-serif" font-size="13" lengthAdjust="spacing" textLength="32" x="193.5806" y="106.2346">3000</text></g><!--link Browser to Adminer--><g id="link_Browser_Adminer"><path d="M303.003,125.127 C301.511,147.996 299.482,179.111 297.992,201.959 " fill="none" id="Browser-Adminer" style="stroke:#181818;stroke-width:1.0;"/><text fill="#000000" font-family="sans-serif" font-size="13" lengthAdjust="spacing" textLength="26" x="302" y="168.0669">http</text><text fill="#000000" font-family="sans-serif" font-size="13" lengthAdjust="spacing" textLength="32" x="263.1029" y="191.0293">8080</text></g><!--SRC=[VP3H2e8m58RlVOgnUsaXcOa8HNIL5zKJo7R2aMxYHY7HkxUfCuniTzltxPpp7o4Pe3tKfMmh43hBQS45e2HXSESKqXGzFMIEi5xMNav7mwWKEZTQawRUXsvPPTzc-HaOLxDqbzCR26PuTwqRIK6fYN9epCzvPyI-Z_2Aa2LsHMDKQ5ttbkjZfI0W8UvJnKZJUi5_I66mtk1- -Adaylwjr6Thv4Drc_aQsG6_XAksPGWXU0mo6TkPnef8PAoX_I2ztW00]--></g></svg>